CharisSIL-Italic.ufo
<glyph name="ExclamationMrk" format="2">
  <advance width="692"/>
  <unicode hex="0021"/>
  <outline>
    <contour>
      <point x="608" y="1294" type="line"/>
      <point x="608" y="1364"/>
      <point x="575" y="1399"/>
      <point x="506" y="1399" type="curve" smooth="yes"/>
      <point x="393" y="1399"/>
      <point x="354" y="1335"/>
      <point x="342" y="1231" type="curve" smooth="yes"/>
      <point x="238" y="346" type="line"/>
      <point x="367" y="346" type="line"/>
    </contour>
    <contour>
      <point x="402" y="90" type="curve" smooth="yes"/>
      <point x="402" y="154"/>
      <point x="355" y="213"/>
      <point x="271" y="213" type="curve" smooth="yes"/>
      <point x="185" y="213"/>
      <point x="134" y="152"/>
      <point x="134" y="88" type="curve" smooth="yes"/>
      <point x="134" y="25"/>
      <point x="185" y="-33"/>
      <point x="271" y="-33" type="curve" smooth="yes"/>
      <point x="355" y="-33"/>
      <point x="402" y="27"/>
    </contour>
  </outline>
</glyph>
<glyph name="QuotMrk" format="2">
  <advance width="678"/>
  <unicode hex="0022"/>
  <outline>
    <contour>
      <point x="770" y="1384" type="curve" smooth="yes"/>
      <point x="770" y="1434"/>
      <point x="733" y="1462"/>
      <point x="684" y="1462" type="curve" smooth="yes"/>
      <point x="592" y="1462"/>
      <point x="563" y="1403"/>
      <point x="557" y="1321" type="curve"/>
      <point x="532" y="864" type="line"/>
      <point x="598" y="864" type="line"/>
      <point x="618" y="920"/>
      <point x="770" y="1341"/>
    </contour>
    <contour>
      <point x="440" y="1384" type="curve" smooth="yes"/>
      <point x="440" y="1434"/>
      <point x="403" y="1462"/>
      <point x="356" y="1462" type="curve" smooth="yes"/>
      <point x="264" y="1462"/>
      <point x="236" y="1403"/>
      <point x="231" y="1321" type="curve" smooth="yes"/>
      <point x="205" y="864" type="line"/>
      <point x="270" y="864" type="line"/>
      <point x="291" y="920"/>
      <point x="440" y="1341"/>
    </contour>
  </outline>
</glyph>
<glyph name="NumSgn" format="2">
  <advance width="1522"/>
  <unicode hex="0023"/>
  <outline>
    <contour>
      <point x="1425" y="862" type="line"/>
      <point x="1425" y="967" type="line"/>
      <point x="1139" y="967" type="line"/>
      <point x="1294" y="1417" type="line"/>
      <point x="1188" y="1450" type="line"/>
      <point x="1026" y="967" type="line"/>
      <point x="727" y="967" type="line"/>
      <point x="883" y="1417" type="line"/>
      <point x="778" y="1450" type="line"/>
      <point x="614" y="967" type="line"/>
      <point x="250" y="967" type="line"/>
      <point x="250" y="862" type="line"/>
      <point x="580" y="862" type="line"/>
      <point x="479" y="569" type="line"/>
      <point x="156" y="569" type="line"/>
      <point x="156" y="467" type="line"/>
      <point x="446" y="467" type="line"/>
      <point x="283" y="-12" type="line"/>
      <point x="385" y="-47" type="line"/>
      <point x="559" y="467" type="line"/>
      <point x="856" y="467" type="line"/>
      <point x="694" y="-14" type="line"/>
      <point x="797" y="-47" type="line"/>
      <point x="971" y="467" type="line"/>
      <point x="1335" y="467" type="line"/>
      <point x="1335" y="569" type="line"/>
      <point x="1006" y="569" type="line"/>
      <point x="1104" y="862" type="line"/>
    </contour>
    <contour>
      <point x="989" y="862" type="line"/>
      <point x="891" y="569" type="line"/>
      <point x="594" y="569" type="line"/>
      <point x="692" y="862" type="line"/>
    </contour>
  </outline>
</glyph>
<glyph name="DollarSgn" format="2">
  <advance width="1139"/>
  <unicode hex="0024"/>
  <outline>
    <contour>
      <point x="1067" y="1315" type="line"/>
      <point x="1034" y="1325"/>
      <point x="901" y="1370"/>
      <point x="768" y="1374" type="curve"/>
      <point x="793" y="1522" type="line"/>
      <point x="676" y="1522" type="line"/>
      <point x="647" y="1368" type="line"/>
      <point x="414" y="1346"/>
      <point x="205" y="1198"/>
      <point x="205" y="965" type="curve" smooth="yes"/>
      <point x="205" y="805"/>
      <point x="332" y="700"/>
      <point x="504" y="627" type="curve"/>
      <point x="403" y="104" type="line"/>
      <point x="319" y="111"/>
      <point x="238" y="154"/>
      <point x="227" y="158" type="curve" smooth="yes"/>
      <point x="221" y="160"/>
      <point x="213" y="166"/>
      <point x="213" y="176" type="curve" smooth="yes"/>
      <point x="231" y="412" type="line"/>
      <point x="94" y="412" type="line"/>
      <point x="29" y="90" type="line"/>
      <point x="137" y="37"/>
      <point x="236" y="8"/>
      <point x="381" y="0" type="curve"/>
      <point x="342" y="-209" type="line"/>
      <point x="463" y="-209" type="line"/>
      <point x="502" y="2" type="line"/>
      <point x="639" y="12"/>
      <point x="977" y="109"/>
      <point x="977" y="426" type="curve" smooth="yes"/>
      <point x="977" y="600"/>
      <point x="831" y="709"/>
      <point x="649" y="768" type="curve"/>
      <point x="745" y="1276" type="line"/>
      <point x="811" y="1270"/>
      <point x="862" y="1245"/>
      <point x="868" y="1241" type="curve" smooth="yes"/>
      <point x="877" y="1237"/>
      <point x="891" y="1219"/>
      <point x="891" y="1210" type="curve" smooth="yes"/>
      <point x="881" y="1010" type="line"/>
      <point x="1001" y="1010" type="line"/>
    </contour>
    <contour>
      <point x="627" y="1268" type="curve"/>
      <point x="541" y="823" type="line"/>
      <point x="457" y="866"/>
      <point x="410" y="928"/>
      <point x="410" y="1020" type="curve" smooth="yes"/>
      <point x="410" y="1141"/>
      <point x="496" y="1229"/>
    </contour>
    <contour>
      <point x="762" y="371" type="curve" smooth="yes"/>
      <point x="762" y="244"/>
      <point x="678" y="150"/>
      <point x="526" y="113" type="curve"/>
      <point x="616" y="575" type="line"/>
      <point x="717" y="528"/>
      <point x="762" y="459"/>
    </contour>
  </outline>
</glyph>
<glyph name="Ampersand" format="2">
  <advance width="1442"/>
  <unicode hex="0026"/>
  <outline>
    <contour>
      <point x="1378" y="647" type="line"/>
      <point x="1378" y="741" type="line"/>
      <point x="942" y="741" type="line"/>
      <point x="942" y="647" type="line"/>
      <point x="1047" y="629" type="line"/>
      <point x="1049" y="629"/>
      <point x="1069" y="606"/>
      <point x="1067" y="600" type="curve" smooth="yes"/>
      <point x="1034" y="530"/>
      <point x="979" y="432"/>
      <point x="909" y="354" type="curve"/>
      <point x="621" y="735" type="line"/>
      <point x="864" y="817"/>
      <point x="1036" y="934"/>
      <point x="1036" y="1130" type="curve" smooth="yes"/>
      <point x="1036" y="1266"/>
      <point x="946" y="1401"/>
      <point x="723" y="1401" type="curve" smooth="yes"/>
      <point x="463" y="1401"/>
      <point x="266" y="1239"/>
      <point x="266" y="1018" type="curve" smooth="yes"/>
      <point x="266" y="920"/>
      <point x="315" y="838"/>
      <point x="377" y="752" type="curve"/>
      <point x="182" y="653"/>
      <point x="25" y="520"/>
      <point x="25" y="317" type="curve" smooth="yes"/>
      <point x="25" y="104"/>
      <point x="186" y="-23"/>
      <point x="391" y="-23" type="curve" smooth="yes"/>
      <point x="582" y="-23"/>
      <point x="719" y="47"/>
      <point x="840" y="137" type="curve"/>
      <point x="913" y="47"/>
      <point x="969" y="12"/>
      <point x="1036" y="0" type="curve" smooth="yes"/>
      <point x="1073" y="-8"/>
      <point x="1114" y="-8"/>
      <point x="1157" y="-6" type="curve" smooth="yes"/>
      <point x="1196" y="-4"/>
      <point x="1241" y="0"/>
      <point x="1307" y="2" type="curve"/>
      <point x="1307" y="92" type="line"/>
      <point x="1149" y="94"/>
      <point x="1071" y="137"/>
      <point x="977" y="264" type="curve"/>
      <point x="1081" y="375"/>
      <point x="1174" y="510"/>
      <point x="1231" y="631" type="curve"/>
    </contour>
    <contour>
      <point x="836" y="1112" type="curve" smooth="yes"/>
      <point x="836" y="956"/>
      <point x="725" y="868"/>
      <point x="565" y="805" type="curve"/>
      <point x="508" y="874"/>
      <point x="451" y="975"/>
      <point x="451" y="1073" type="curve" smooth="yes"/>
      <point x="451" y="1227"/>
      <point x="584" y="1300"/>
      <point x="682" y="1300" type="curve" smooth="yes"/>
      <point x="782" y="1300"/>
      <point x="836" y="1208"/>
    </contour>
    <contour>
      <point x="772" y="219" type="line"/>
      <point x="666" y="141"/>
      <point x="592" y="106"/>
      <point x="496" y="106" type="curve" smooth="yes"/>
      <point x="362" y="106"/>
      <point x="242" y="213"/>
      <point x="242" y="377" type="curve" smooth="yes"/>
      <point x="242" y="502"/>
      <point x="315" y="596"/>
      <point x="432" y="672" type="curve"/>
    </contour>
  </outline>
</glyph>
<glyph name="LftParen" format="2">
  <advance width="858"/>
  <unicode hex="0028"/>
  <outline>
    <contour>
      <point x="956" y="1470" type="line"/>
      <point x="406" y="1421"/>
      <point x="145" y="774"/>
      <point x="145" y="285" type="curve" smooth="yes"/>
      <point x="145" y="-49"/>
      <point x="342" y="-276"/>
      <point x="618" y="-293" type="curve"/>
      <point x="637" y="-199" type="line"/>
      <point x="475" y="-164"/>
      <point x="346" y="-57"/>
      <point x="346" y="246" type="curve" smooth="yes"/>
      <point x="346" y="557"/>
      <point x="485" y="1315"/>
      <point x="938" y="1376" type="curve"/>
    </contour>
  </outline>
</glyph>
<glyph name="FullStop" format="2">
  <advance width="573"/>
  <unicode hex="002E"/>
  <outline>
    <contour>
      <point x="311" y="113" type="curve" smooth="yes"/>
      <point x="311" y="188"/>
      <point x="248" y="250"/>
      <point x="172" y="250" type="curve" smooth="yes"/>
      <point x="96" y="250"/>
      <point x="37" y="188"/>
      <point x="37" y="113" type="curve" smooth="yes"/>
      <point x="37" y="37"/>
      <point x="96" y="-25"/>
      <point x="172" y="-25" type="curve" smooth="yes"/>
      <point x="248" y="-25"/>
      <point x="311" y="37"/>
    </contour>
  </outline>
</glyph>
<glyph name="DigitFour" format="2">
  <advance width="1139"/>
  <unicode hex="0034"/>
  <anchor x="438" y="-100" name="L"/>
  <anchor x="726" y="1500" name="U"/>
  <outline>
    <contour>
      <point x="1069" y="555" type="line"/>
      <point x="883" y="555" type="line"/>
      <point x="1047" y="1407" type="line"/>
      <point x="895" y="1407" type="line"/>
      <point x="70" y="551" type="line"/>
      <point x="43" y="414" type="line"/>
      <point x="662" y="414" type="line"/>
      <point x="569" y="-55" type="line"/>
      <point x="762" y="-55" type="line"/>
      <point x="852" y="414" type="line"/>
      <point x="1042" y="414" type="line"/>
    </contour>
    <contour>
      <point x="815" y="1179" type="line"/>
      <point x="690" y="555" type="line"/>
      <point x="189" y="555" type="line"/>
      <point x="214" y="496" type="line"/>
      <point x="857" y="1157" type="line"/>
    </contour>
  </outline>
</glyph>
<glyph name="DigitSix" format="2">
  <advance width="1139"/>
  <unicode hex="0036"/>
  <anchor x="442" y="-100" name="L"/>
  <anchor x="730" y="1500" name="U"/>
  <outline>
    <contour>
      <point x="1063" y="555" type="curve" smooth="yes"/>
      <point x="1063" y="786"/>
      <point x="907" y="926"/>
      <point x="688" y="926" type="curve" smooth="yes"/>
      <point x="565" y="926"/>
      <point x="457" y="887"/>
      <point x="358" y="821" type="curve"/>
      <point x="434" y="1094"/>
      <point x="684" y="1317"/>
      <point x="1038" y="1356" type="curve"/>
      <point x="1036" y="1468" type="line"/>
      <point x="444" y="1405"/>
      <point x="70" y="940"/>
      <point x="70" y="440" type="curve" smooth="yes"/>
      <point x="70" y="61"/>
      <point x="311" y="-33"/>
      <point x="504" y="-33" type="curve" smooth="yes"/>
      <point x="815" y="-33"/>
      <point x="1063" y="238"/>
    </contour>
    <contour>
      <point x="846" y="502" type="curve" smooth="yes"/>
      <point x="846" y="272"/>
      <point x="686" y="70"/>
      <point x="514" y="70" type="curve" smooth="yes"/>
      <point x="326" y="70"/>
      <point x="287" y="279"/>
      <point x="287" y="418" type="curve" smooth="yes"/>
      <point x="287" y="516"/>
      <point x="321" y="662"/>
      <point x="328" y="688" type="curve"/>
      <point x="436" y="770"/>
      <point x="518" y="795"/>
      <point x="600" y="795" type="curve" smooth="yes"/>
      <point x="770" y="795"/>
      <point x="846" y="680"/>
    </contour>
  </outline>
</glyph>
<glyph name="DigitSeven" format="2">
  <advance width="1139"/>
  <unicode hex="0037"/>
  <anchor x="451" y="-100" name="L"/>
  <anchor x="739" y="1500" name="U"/>
  <outline>
    <contour>
      <point x="1257" y="1374" type="line"/>
      <point x="282" y="1374" type="line"/>
      <point x="213" y="1024" type="line"/>
      <point x="344" y="1024" type="line"/>
      <point x="409" y="1208" type="line"/>
      <point x="1005" y="1208" type="line"/>
      <point x="94" y="-76" type="line"/>
      <point x="296" y="-76" type="line"/>
      <point x="309" y="-29" type="line"/>
      <point x="1241" y="1286" type="line"/>
    </contour>
  </outline>
</glyph>
<glyph name="Colon" format="2">
  <advance width="573"/>
  <unicode hex="003A"/>
  <outline>
    <contour>
      <point x="461" y="874" type="curve" smooth="yes"/>
      <point x="461" y="950"/>
      <point x="397" y="1012"/>
      <point x="322" y="1012" type="curve" smooth="yes"/>
      <point x="246" y="1012"/>
      <point x="184" y="950"/>
      <point x="184" y="874" type="curve" smooth="yes"/>
      <point x="184" y="799"/>
      <point x="246" y="737"/>
      <point x="322" y="737" type="curve" smooth="yes"/>
      <point x="397" y="737"/>
      <point x="461" y="799"/>
    </contour>
    <contour>
      <point x="311" y="113" type="curve" smooth="yes"/>
      <point x="311" y="188"/>
      <point x="248" y="250"/>
      <point x="172" y="250" type="curve" smooth="yes"/>
      <point x="96" y="250"/>
      <point x="35" y="188"/>
      <point x="35" y="113" type="curve" smooth="yes"/>
      <point x="35" y="37"/>
      <point x="96" y="-25"/>
      <point x="172" y="-25" type="curve" smooth="yes"/>
      <point x="248" y="-25"/>
      <point x="311" y="37"/>
    </contour>
  </outline>
</glyph>
<glyph name="EqSgn" format="2">
  <advance width="2048"/>
  <unicode hex="003D"/>
  <outline>
    <contour>
      <point x="1638" y="737" type="line"/>
      <point x="1638" y="864" type="line"/>
      <point x="410" y="864" type="line"/>
      <point x="410" y="737" type="line"/>
    </contour>
    <contour>
      <point x="1638" y="365" type="line"/>
      <point x="1638" y="492" type="line"/>
      <point x="410" y="492" type="line"/>
      <point x="410" y="365" type="line"/>
    </contour>
  </outline>
</glyph>
<glyph name="AtSgn" format="2">
  <advance width="1917"/>
  <unicode hex="0040"/>
  <outline>
    <contour>
      <point x="1790" y="764" type="curve" smooth="yes"/>
      <point x="1790" y="1186"/>
      <point x="1495" y="1415"/>
      <point x="1090" y="1415" type="curve" smooth="yes"/>
      <point x="633" y="1415"/>
      <point x="170" y="1096"/>
      <point x="170" y="489" type="curve" smooth="yes"/>
      <point x="170" y="-8"/>
      <point x="545" y="-313"/>
      <point x="983" y="-313" type="curve" smooth="yes"/>
      <point x="1221" y="-313"/>
      <point x="1419" y="-231"/>
      <point x="1604" y="-133" type="curve"/>
      <point x="1575" y="-59" type="line"/>
      <point x="1450" y="-129"/>
      <point x="1272" y="-211"/>
      <point x="1032" y="-211" type="curve" smooth="yes"/>
      <point x="580" y="-211"/>
      <point x="315" y="109"/>
      <point x="315" y="526" type="curve" smooth="yes"/>
      <point x="315" y="983"/>
      <point x="647" y="1325"/>
      <point x="1114" y="1325" type="curve" smooth="yes"/>
      <point x="1403" y="1325"/>
      <point x="1690" y="1147"/>
      <point x="1690" y="762" type="curve" smooth="yes"/>
      <point x="1690" y="436"/>
      <point x="1495" y="231"/>
      <point x="1374" y="231" type="curve" smooth="yes"/>
      <point x="1296" y="231"/>
      <point x="1278" y="297"/>
      <point x="1298" y="391" type="curve"/>
      <point x="1298" y="391"/>
      <point x="1430" y="967"/>
      <point x="1440" y="999" type="curve"/>
      <point x="1323" y="999" type="line"/>
      <point x="1286" y="952" type="line"/>
      <point x="1227" y="985"/>
      <point x="1145" y="1008"/>
      <point x="1085" y="1008" type="curve" smooth="yes"/>
      <point x="827" y="1008"/>
      <point x="578" y="764"/>
      <point x="578" y="451" type="curve" smooth="yes"/>
      <point x="578" y="246"/>
      <point x="684" y="117"/>
      <point x="834" y="117" type="curve" smooth="yes"/>
      <point x="930" y="117"/>
      <point x="1022" y="178"/>
      <point x="1128" y="285" type="curve"/>
      <point x="1128" y="172"/>
      <point x="1176" y="115"/>
      <point x="1288" y="115" type="curve" smooth="yes"/>
      <point x="1493" y="115"/>
      <point x="1790" y="348"/>
    </contour>
    <contour>
      <point x="1217" y="805" type="curve"/>
      <point x="1135" y="381" type="line"/>
      <point x="1092" y="328"/>
      <point x="1018" y="248"/>
      <point x="926" y="248" type="curve" smooth="yes"/>
      <point x="823" y="248"/>
      <point x="766" y="322"/>
      <point x="766" y="469" type="curve" smooth="yes"/>
      <point x="766" y="719"/>
      <point x="893" y="922"/>
      <point x="1096" y="922" type="curve" smooth="yes"/>
      <point x="1169" y="922"/>
      <point x="1225" y="840"/>
    </contour>
  </outline>
</glyph>
<glyph name="LtnCapC" format="2">
  <advance width="1290"/>
  <unicode hex="0043"/>
  <anchor x="615" y="0" name="H"/>
  <anchor x="614" y="-100" name="L"/>
  <anchor x="902" y="1500" name="U"/>
  <outline>
    <contour>
      <point x="1319" y="1325" type="line"/>
      <point x="1161" y="1376"/>
      <point x="1055" y="1407"/>
      <point x="922" y="1407" type="curve" smooth="yes"/>
      <point x="434" y="1407"/>
      <point x="98" y="983"/>
      <point x="98" y="547" type="curve" smooth="yes"/>
      <point x="98" y="256"/>
      <point x="260" y="-33"/>
      <point x="668" y="-33" type="curve" smooth="yes"/>
      <point x="835" y="-33"/>
      <point x="996" y="17"/>
      <point x="1090" y="49" type="curve"/>
      <point x="1145" y="381" type="line"/>
      <point x="1024" y="381" type="line"/>
      <point x="936" y="147" type="line" smooth="yes"/>
      <point x="929" y="129"/>
      <point x="905" y="112"/>
      <point x="890" y="105" type="curve" smooth="yes"/>
      <point x="880" y="100"/>
      <point x="823" y="72"/>
      <point x="735" y="72" type="curve" smooth="yes"/>
      <point x="506" y="72"/>
      <point x="315" y="215"/>
      <point x="315" y="524" type="curve" smooth="yes"/>
      <point x="315" y="997"/>
      <point x="618" y="1303"/>
      <point x="932" y="1303" type="curve" smooth="yes"/>
      <point x="1024" y="1303"/>
      <point x="1095" y="1259"/>
      <point x="1111" y="1249" type="curve" smooth="yes"/>
      <point x="1126" y="1239"/>
      <point x="1143" y="1217"/>
      <point x="1143" y="1196" type="curve" smooth="yes"/>
      <point x="1143" y="1006" type="line"/>
      <point x="1264" y="1006" type="line"/>
    </contour>
  </outline>
</glyph>
<glyph name="LtnCapG" format="2">
  <advance width="1409"/>
  <unicode hex="0047"/>
  <anchor x="664" y="0" name="H"/>
  <anchor x="644" y="-100" name="L"/>
  <anchor x="932" y="1500" name="U"/>
  <outline>
    <contour>
      <point x="680" y="-33" type="curve" smooth="yes"/>
      <point x="850" y="-33"/>
      <point x="1081" y="37"/>
      <point x="1122" y="47" type="curve"/>
      <point x="1214" y="528" type="line" smooth="yes"/>
      <point x="1221" y="555"/>
      <point x="1239" y="565"/>
      <point x="1266" y="567" type="curve" smooth="yes"/>
      <point x="1382" y="578" type="line"/>
      <point x="1382" y="664" type="line"/>
      <point x="854" y="664" type="line"/>
      <point x="854" y="578" type="line"/>
      <point x="967" y="567" type="line" smooth="yes"/>
      <point x="1004" y="565"/>
      <point x="1012" y="551"/>
      <point x="1008" y="528" type="curve" smooth="yes"/>
      <point x="928" y="111" type="line"/>
      <point x="895" y="102"/>
      <point x="803" y="76"/>
      <point x="721" y="76" type="curve" smooth="yes"/>
      <point x="573" y="76"/>
      <point x="324" y="186"/>
      <point x="324" y="516" type="curve" smooth="yes"/>
      <point x="324" y="989"/>
      <point x="649" y="1296"/>
      <point x="956" y="1296" type="curve" smooth="yes"/>
      <point x="1055" y="1296"/>
      <point x="1116" y="1257"/>
      <point x="1126" y="1253" type="curve" smooth="yes"/>
      <point x="1151" y="1247"/>
      <point x="1167" y="1227"/>
      <point x="1165" y="1196" type="curve" smooth="yes"/>
      <point x="1159" y="1008" type="line"/>
      <point x="1298" y="1008" type="line"/>
      <point x="1362" y="1337" type="line"/>
      <point x="1204" y="1386"/>
      <point x="1114" y="1407"/>
      <point x="981" y="1407" type="curve" smooth="yes"/>
      <point x="541" y="1407"/>
      <point x="98" y="1073"/>
      <point x="98" y="549" type="curve" smooth="yes"/>
      <point x="98" y="319"/>
      <point x="213" y="-33"/>
    </contour>
  </outline>
</glyph>
<glyph name="LtnCapO" format="2">
  <advance width="1454"/>
  <unicode hex="004F"/>
  <anchor x="625" y="0" name="H"/>
  <anchor x="605" y="-100" name="L"/>
  <anchor x="873" y="0" name="O"/>
  <anchor x="1430" y="1250" name="R"/>
  <anchor x="893" y="1500" name="U"/>
  <outline>
    <contour>
      <point x="1415" y="854" type="curve" smooth="yes"/>
      <point x="1415" y="1159"/>
      <point x="1200" y="1407"/>
      <point x="860" y="1407" type="curve" smooth="yes"/>
      <point x="410" y="1407"/>
      <point x="98" y="977"/>
      <point x="98" y="537" type="curve" smooth="yes"/>
      <point x="98" y="193"/>
      <point x="328" y="-33"/>
      <point x="655" y="-33" type="curve" smooth="yes"/>
      <point x="1137" y="-33"/>
      <point x="1415" y="422"/>
    </contour>
    <contour>
      <point x="1182" y="854" type="curve" smooth="yes"/>
      <point x="1182" y="506"/>
      <point x="969" y="74"/>
      <point x="670" y="74" type="curve" smooth="yes"/>
      <point x="479" y="74"/>
      <point x="330" y="244"/>
      <point x="330" y="520" type="curve" smooth="yes"/>
      <point x="330" y="883"/>
      <point x="543" y="1305"/>
      <point x="842" y="1305" type="curve" smooth="yes"/>
      <point x="1038" y="1305"/>
      <point x="1182" y="1126"/>
    </contour>
  </outline>
</glyph>
<glyph name="LtnCapP" format="2">
  <advance width="1159"/>
  <unicode hex="0050"/>
  <anchor x="436" y="-100" name="L"/>
  <anchor x="724" y="1500" name="U"/>
  <outline>
    <contour>
      <point x="-35" y="0" type="line"/>
      <point x="498" y="0" type="line"/>
      <point x="498" y="86" type="line"/>
      <point x="381" y="96" type="line" smooth="yes"/>
      <point x="344" y="98"/>
      <point x="336" y="115"/>
      <point x="340" y="135" type="curve" smooth="yes"/>
      <point x="416" y="516" type="line"/>
      <point x="416" y="516"/>
      <point x="504" y="512"/>
      <point x="545" y="512" type="curve" smooth="yes"/>
      <point x="903" y="512"/>
      <point x="1169" y="717"/>
      <point x="1169" y="1047" type="curve" smooth="yes"/>
      <point x="1169" y="1237"/>
      <point x="1038" y="1374"/>
      <point x="702" y="1374" type="curve" smooth="yes"/>
      <point x="193" y="1374" type="line"/>
      <point x="193" y="1288" type="line"/>
      <point x="307" y="1278" type="line" smooth="yes"/>
      <point x="344" y="1276"/>
      <point x="352" y="1260"/>
      <point x="348" y="1237" type="curve" smooth="yes"/>
      <point x="133" y="135" type="line"/>
      <point x="127" y="111"/>
      <point x="109" y="98"/>
      <point x="84" y="96" type="curve" smooth="yes"/>
      <point x="-35" y="86" type="line"/>
    </contour>
    <contour>
      <point x="434" y="623" type="curve"/>
      <point x="561" y="1274" type="line"/>
      <point x="582" y="1276"/>
      <point x="614" y="1278"/>
      <point x="639" y="1278" type="curve" smooth="yes"/>
      <point x="874" y="1278"/>
      <point x="956" y="1169"/>
      <point x="956" y="1012" type="curve" smooth="yes"/>
      <point x="956" y="852"/>
      <point x="879" y="750"/>
      <point x="776" y="688" type="curve" smooth="yes"/>
      <point x="680" y="629"/>
      <point x="553" y="612"/>
    </contour>
  </outline>
</glyph>
<glyph name="LtnCapW" format="2">
  <advance width="1898"/>
  <unicode hex="0057"/>
  <anchor x="855" y="-100" name="L"/>
  <anchor x="1153" y="1500" name="U"/>
  <outline>
    <contour>
      <point x="408" y="-33" type="line"/>
      <point x="551" y="-33" type="line"/>
      <point x="1063" y="1061" type="line"/>
      <point x="1182" y="-33" type="line"/>
      <point x="1313" y="-33" type="line"/>
      <point x="1927" y="1276" type="line"/>
      <point x="2048" y="1288" type="line"/>
      <point x="2048" y="1374" type="line"/>
      <point x="1620" y="1374" type="line"/>
      <point x="1620" y="1288" type="line"/>
      <point x="1712" y="1284" type="line" smooth="yes"/>
      <point x="1749" y="1282"/>
      <point x="1763" y="1268"/>
      <point x="1751" y="1243" type="curve" smooth="yes"/>
      <point x="1335" y="340" type="line"/>
      <point x="1231" y="1374" type="line"/>
      <point x="1065" y="1374" type="line"/>
      <point x="584" y="354" type="line"/>
      <point x="512" y="1243" type="line"/>
      <point x="512" y="1268"/>
      <point x="522" y="1282"/>
      <point x="553" y="1284" type="curve" smooth="yes"/>
      <point x="643" y="1288" type="line"/>
      <point x="643" y="1374" type="line"/>
      <point x="170" y="1374" type="line"/>
      <point x="170" y="1288" type="line"/>
      <point x="256" y="1284" type="line" smooth="yes"/>
      <point x="291" y="1282"/>
      <point x="303" y="1270"/>
      <point x="305" y="1243" type="curve" smooth="yes"/>
    </contour>
  </outline>
</glyph>
<glyph name="RtSqrBrac" format="2">
  <advance width="862"/>
  <unicode hex="005D"/>
  <outline>
    <contour>
      <point x="770" y="1450" type="line"/>
      <point x="242" y="1450" type="line"/>
      <point x="242" y="1356" type="line"/>
      <point x="555" y="1356" type="line"/>
      <point x="252" y="-172" type="line"/>
      <point x="-84" y="-172" type="line"/>
      <point x="-84" y="-270" type="line"/>
      <point x="426" y="-270" type="line"/>
    </contour>
  </outline>
</glyph>
<glyph name="LtnSmI" format="2">
  <advance width="545"/>
  <unicode hex="0069"/>
  <anchor x="194" y="0" name="H"/>
  <anchor x="181" y="-100" name="L"/>
  <anchor x="408" y="0" name="O"/>
  <anchor x="545" y="1000" name="R"/>
  <anchor x="438" y="1500" name="U"/>
  <outline>
    <contour>
      <point x="530" y="1313" type="curve" smooth="yes"/>
      <point x="530" y="1370"/>
      <point x="485" y="1427"/>
      <point x="408" y="1427" type="curve" smooth="yes"/>
      <point x="326" y="1427"/>
      <point x="279" y="1366"/>
      <point x="279" y="1313" type="curve" smooth="yes"/>
      <point x="279" y="1249"/>
      <point x="322" y="1198"/>
      <point x="406" y="1198" type="curve" smooth="yes"/>
      <point x="485" y="1198"/>
      <point x="530" y="1253"/>
    </contour>
    <contour>
      <point x="539" y="59" type="curve"/>
      <point x="539" y="137" type="line"/>
      <point x="512" y="130"/>
      <point x="418" y="88"/>
      <point x="371" y="88" type="curve" smooth="yes"/>
      <point x="315" y="88"/>
      <point x="280" y="137"/>
      <point x="291" y="193" type="curve" smooth="yes"/>
      <point x="446" y="1012" type="line"/>
      <point x="362" y="1012" type="line"/>
      <point x="53" y="948" type="line"/>
      <point x="53" y="889" type="line"/>
      <point x="229" y="870" type="line"/>
      <point x="98" y="176" type="line" smooth="yes"/>
      <point x="80" y="82"/>
      <point x="100" y="-25"/>
      <point x="240" y="-25" type="curve" smooth="yes"/>
      <point x="352" y="-25"/>
      <point x="508" y="45"/>
    </contour>
  </outline>
</glyph>
<glyph name="LtnSmJ" format="2">
  <advance width="559"/>
  <unicode hex="006A"/>
  <anchor x="-45" y="-500" name="L"/>
  <anchor x="91" y="-391" name="O"/>
  <anchor x="440" y="1500" name="U"/>
  <outline>
    <contour>
      <point x="545" y="1313" type="curve" smooth="yes"/>
      <point x="545" y="1374"/>
      <point x="500" y="1430"/>
      <point x="418" y="1430" type="curve" smooth="yes"/>
      <point x="332" y="1430"/>
      <point x="291" y="1374"/>
      <point x="291" y="1313" type="curve" smooth="yes"/>
      <point x="291" y="1247"/>
      <point x="344" y="1198"/>
      <point x="418" y="1198" type="curve" smooth="yes"/>
      <point x="494" y="1198"/>
      <point x="545" y="1264"/>
    </contour>
    <contour>
      <point x="473" y="1012" type="line"/>
      <point x="397" y="1012" type="line"/>
      <point x="88" y="948" type="line"/>
      <point x="88" y="889" type="line"/>
      <point x="260" y="870" type="line"/>
      <point x="106" y="-25" type="line" smooth="yes"/>
      <point x="86" y="-137"/>
      <point x="37" y="-281"/>
      <point x="-2" y="-324" type="curve"/>
      <point x="-207" y="-268" type="line"/>
      <point x="-227" y="-281"/>
      <point x="-264" y="-309"/>
      <point x="-264" y="-360" type="curve" smooth="yes"/>
      <point x="-264" y="-422"/>
      <point x="-213" y="-469"/>
      <point x="-127" y="-469" type="curve" smooth="yes"/>
      <point x="147" y="-469"/>
      <point x="293" y="-41"/>
      <point x="328" y="164" type="curve" smooth="yes"/>
    </contour>
  </outline>
</glyph>
<glyph name="LtnSmM" format="2">
  <advance width="1589"/>
  <unicode hex="006D"/>
  <anchor x="1292" y="0" name="H"/>
  <anchor x="692" y="-100" name="L"/>
  <anchor x="791" y="0" name="O"/>
  <anchor x="936" y="1100" name="U"/>
  <outline>
    <contour>
      <point x="1583" y="53" type="curve"/>
      <point x="1583" y="123" type="line"/>
      <point x="1532" y="103"/>
      <point x="1487" y="86"/>
      <point x="1454" y="86" type="curve" smooth="yes"/>
      <point x="1401" y="86"/>
      <point x="1352" y="133"/>
      <point x="1366" y="199" type="curve" smooth="yes"/>
      <point x="1481" y="752" type="line" smooth="yes"/>
      <point x="1514" y="909"/>
      <point x="1442" y="1012"/>
      <point x="1305" y="1012" type="curve" smooth="yes"/>
      <point x="1180" y="1012"/>
      <point x="1030" y="922"/>
      <point x="932" y="823" type="curve"/>
      <point x="922" y="897"/>
      <point x="887" y="1012"/>
      <point x="750" y="1012" type="curve" smooth="yes"/>
      <point x="629" y="1012"/>
      <point x="496" y="920"/>
      <point x="395" y="823" type="curve"/>
      <point x="434" y="1012" type="line"/>
      <point x="350" y="1012" type="line"/>
      <point x="43" y="948" type="line"/>
      <point x="43" y="889" type="line"/>
      <point x="213" y="870" type="line"/>
      <point x="37" y="0" type="line"/>
      <point x="225" y="0" type="line"/>
      <point x="369" y="688" type="line"/>
      <point x="410" y="739"/>
      <point x="541" y="868"/>
      <point x="637" y="868" type="curve" smooth="yes"/>
      <point x="725" y="868"/>
      <point x="741" y="756"/>
      <point x="723" y="668" type="curve" smooth="yes"/>
      <point x="586" y="0" type="line"/>
      <point x="776" y="0" type="line"/>
      <point x="920" y="692" type="line"/>
      <point x="948" y="739"/>
      <point x="1069" y="868"/>
      <point x="1194" y="868" type="curve" smooth="yes"/>
      <point x="1247" y="868"/>
      <point x="1300" y="803"/>
      <point x="1272" y="666" type="curve" smooth="yes"/>
      <point x="1159" y="119" type="line" smooth="yes"/>
      <point x="1140" y="25"/>
      <point x="1214" y="-25"/>
      <point x="1325" y="-25" type="curve" smooth="yes"/>
      <point x="1405" y="-25"/>
      <point x="1513" y="22"/>
    </contour>
  </outline>
</glyph>
<glyph name="LtnSmP" format="2">
  <advance width="1012"/>
  <unicode hex="0070"/>
  <anchor x="-6" y="-435" name="H"/>
  <anchor x="573" y="-100" name="L"/>
  <anchor x="1012" y="1000" name="R"/>
  <anchor x="553" y="1100" name="U"/>
  <outline>
    <contour>
      <point x="-197" y="-446" type="line"/>
      <point x="319" y="-446" type="line"/>
      <point x="319" y="-369" type="line"/>
      <point x="190" y="-358" type="line" smooth="yes"/>
      <point x="154" y="-355"/>
      <point x="145" y="-340"/>
      <point x="150" y="-317" type="curve" smooth="yes"/>
      <point x="215" y="12" type="line"/>
      <point x="248" y="-4"/>
      <point x="299" y="-25"/>
      <point x="360" y="-25" type="curve" smooth="yes"/>
      <point x="694" y="-25"/>
      <point x="946" y="297"/>
      <point x="946" y="633" type="curve" smooth="yes"/>
      <point x="946" y="815"/>
      <point x="885" y="1012"/>
      <point x="678" y="1012" type="curve" smooth="yes"/>
      <point x="568" y="1012"/>
      <point x="451" y="936"/>
      <point x="383" y="885" type="curve"/>
      <point x="408" y="1012" type="line"/>
      <point x="328" y="1012" type="line"/>
      <point x="18" y="948" type="line"/>
      <point x="18" y="889" type="line"/>
      <point x="190" y="870" type="line"/>
      <point x="-41" y="-317" type="line" smooth="yes"/>
      <point x="-46" y="-344"/>
      <point x="-63" y="-355"/>
      <point x="-90" y="-358" type="curve" smooth="yes"/>
      <point x="-197" y="-369" type="line"/>
    </contour>
    <contour>
      <point x="401" y="72" type="curve" smooth="yes"/>
      <point x="330" y="72"/>
      <point x="262" y="117"/>
      <point x="238" y="133" type="curve"/>
      <point x="360" y="768" type="line"/>
      <point x="405" y="809"/>
      <point x="495" y="887"/>
      <point x="584" y="887" type="curve" smooth="yes"/>
      <point x="694" y="887"/>
      <point x="743" y="745"/>
      <point x="743" y="625" type="curve" smooth="yes"/>
      <point x="743" y="397"/>
      <point x="625" y="72"/>
    </contour>
  </outline>
</glyph>
<glyph name="LtnSmT" format="2">
  <advance width="614"/>
  <unicode hex="0074"/>
  <anchor x="256" y="0" name="H"/>
  <anchor x="236" y="-100" name="L"/>
  <anchor x="614" y="1000" name="R"/>
  <anchor x="487" y="1363" name="U"/>
  <outline>
    <contour>
      <point x="715" y="858" type="line"/>
      <point x="715" y="952" type="line"/>
      <point x="432" y="952" type="line"/>
      <point x="473" y="1186" type="line"/>
      <point x="348" y="1186" type="line"/>
      <point x="248" y="981" type="line"/>
      <point x="94" y="913" type="line"/>
      <point x="94" y="846" type="line"/>
      <point x="223" y="858" type="line"/>
      <point x="98" y="236" type="line" smooth="yes"/>
      <point x="92" y="207"/>
      <point x="90" y="178"/>
      <point x="90" y="152" type="curve" smooth="yes"/>
      <point x="90" y="51"/>
      <point x="135" y="-25"/>
      <point x="283" y="-25" type="curve" smooth="yes"/>
      <point x="401" y="-25"/>
      <point x="582" y="53"/>
      <point x="616" y="68" type="curve"/>
      <point x="616" y="150" type="line"/>
      <point x="573" y="134"/>
      <point x="481" y="100"/>
      <point x="403" y="100" type="curve" smooth="yes"/>
      <point x="334" y="100"/>
      <point x="271" y="143"/>
      <point x="285" y="215" type="curve" smooth="yes"/>
      <point x="414" y="858" type="line"/>
    </contour>
  </outline>
</glyph>
<glyph name="LtnSmW" format="2">
  <advance width="1438"/>
  <unicode hex="0077"/>
  <anchor x="521" y="-100" name="L"/>
  <anchor x="791" y="1100" name="U"/>
  <outline>
    <contour>
      <point x="1446" y="891" type="curve" smooth="yes"/>
      <point x="1446" y="924"/>
      <point x="1421" y="1012"/>
      <point x="1323" y="1012" type="curve" smooth="yes"/>
      <point x="1253" y="1012"/>
      <point x="1210" y="971"/>
      <point x="1200" y="961" type="curve"/>
      <point x="1241" y="721" type="line"/>
      <point x="1159" y="532"/>
      <point x="1067" y="362"/>
      <point x="940" y="199" type="curve"/>
      <point x="889" y="979" type="line"/>
      <point x="735" y="961" type="line"/>
      <point x="629" y="717"/>
      <point x="496" y="436"/>
      <point x="389" y="240" type="curve"/>
      <point x="344" y="1006" type="line"/>
      <point x="252" y="1012" type="line"/>
      <point x="4" y="942" type="line"/>
      <point x="4" y="885" type="line"/>
      <point x="158" y="868" type="line"/>
      <point x="215" y="23" type="line"/>
      <point x="195" y="-25" type="line"/>
      <point x="346" y="-25" type="line"/>
      <point x="461" y="152"/>
      <point x="604" y="416"/>
      <point x="725" y="674" type="curve"/>
      <point x="770" y="-25" type="line"/>
      <point x="897" y="-25" type="line"/>
      <point x="938" y="25"/>
      <point x="1446" y="662"/>
    </contour>
  </outline>
</glyph>
<glyph name="InvExclamationMrk" format="2">
  <advance width="692"/>
  <unicode hex="00A1"/>
  <outline>
    <contour>
      <point x="548" y="897" type="curve" smooth="yes"/>
      <point x="548" y="973"/>
      <point x="477" y="1012"/>
      <point x="417" y="1012" type="curve" smooth="yes"/>
      <point x="338" y="1012"/>
      <point x="282" y="959"/>
      <point x="282" y="889" type="curve" smooth="yes"/>
      <point x="282" y="823"/>
      <point x="344" y="770"/>
      <point x="417" y="770" type="curve" smooth="yes"/>
      <point x="493" y="770"/>
      <point x="548" y="825"/>
    </contour>
    <contour>
      <point x="448" y="647" type="line"/>
      <point x="317" y="647" type="line"/>
      <point x="317" y="647"/>
      <point x="73" y="-256"/>
      <point x="73" y="-303" type="curve" smooth="yes"/>
      <point x="73" y="-364"/>
      <point x="104" y="-405"/>
      <point x="182" y="-405" type="curve" smooth="yes"/>
      <point x="266" y="-405"/>
      <point x="327" y="-360"/>
      <point x="342" y="-246" type="curve" smooth="yes"/>
    </contour>
  </outline>
</glyph>
<glyph name="YenSgn" format="2">
  <advance width="1139"/>
  <unicode hex="00A5"/>
  <outline>
    <contour>
      <point x="190" y="0" type="line"/>
      <point x="745" y="0" type="line"/>
      <point x="745" y="90" type="line"/>
      <point x="608" y="100" type="line"/>
      <point x="578" y="104"/>
      <point x="580" y="125"/>
      <point x="582" y="137" type="curve" smooth="yes"/>
      <point x="645" y="479" type="line"/>
      <point x="1069" y="479" type="line"/>
      <point x="1069" y="573" type="line"/>
      <point x="662" y="573" type="line"/>
      <point x="811" y="772" type="line"/>
      <point x="1128" y="772" type="line"/>
      <point x="1128" y="864" type="line"/>
      <point x="893" y="864" type="line"/>
      <point x="1184" y="1245" type="line"/>
      <point x="1309" y="1272" type="line"/>
      <point x="1309" y="1360" type="line"/>
      <point x="899" y="1360" type="line"/>
      <point x="899" y="1272" type="line"/>
      <point x="989" y="1251" type="line" smooth="yes"/>
      <point x="1022" y="1245"/>
      <point x="1012" y="1227"/>
      <point x="1001" y="1212" type="curve" smooth="yes"/>
      <point x="623" y="721" type="line"/>
      <point x="463" y="1223" type="line" smooth="yes"/>
      <point x="457" y="1241"/>
      <point x="465" y="1257"/>
      <point x="483" y="1260" type="curve" smooth="yes"/>
      <point x="602" y="1270" type="line"/>
      <point x="602" y="1360" type="line"/>
      <point x="127" y="1360" type="line"/>
      <point x="127" y="1274" type="line"/>
      <point x="238" y="1249" type="line"/>
      <point x="360" y="864" type="line"/>
      <point x="117" y="864" type="line"/>
      <point x="117" y="772" type="line"/>
      <point x="399" y="772" type="line"/>
      <point x="465" y="573" type="line"/>
      <point x="57" y="573" type="line"/>
      <point x="57" y="479" type="line"/>
      <point x="449" y="479" type="line"/>
      <point x="385" y="137" type="line"/>
      <point x="381" y="106"/>
      <point x="340" y="95"/>
      <point x="309" y="94" type="curve" smooth="yes"/>
      <point x="190" y="90" type="line"/>
    </contour>
  </outline>
</glyph>
<glyph name="SupTwo" format="2">
  <advance width="739"/>
  <unicode hex="00B2"/>
  <anchor x="395" y="725" name="L"/>
  <anchor x="564" y="1650" name="U"/>
  <outline>
    <contour>
      <point x="815" y="1436" type="curve" smooth="yes"/>
      <point x="815" y="1575"/>
      <point x="700" y="1622"/>
      <point x="575" y="1622" type="curve" smooth="yes"/>
      <point x="414" y="1622"/>
      <point x="258" y="1524"/>
      <point x="258" y="1425" type="curve" smooth="yes"/>
      <point x="258" y="1374"/>
      <point x="311" y="1368"/>
      <point x="328" y="1368" type="curve" smooth="yes"/>
      <point x="359" y="1368"/>
      <point x="387" y="1381"/>
      <point x="399" y="1391" type="curve"/>
      <point x="426" y="1518" type="line"/>
      <point x="438" y="1524"/>
      <point x="481" y="1544"/>
      <point x="537" y="1544" type="curve" smooth="yes"/>
      <point x="621" y="1544"/>
      <point x="672" y="1505"/>
      <point x="672" y="1421" type="curve" smooth="yes"/>
      <point x="672" y="1249"/>
      <point x="494" y="1124"/>
      <point x="115" y="874" type="curve"/>
      <point x="96" y="784" type="line"/>
      <point x="717" y="784" type="line"/>
      <point x="760" y="999" type="line"/>
      <point x="684" y="999" type="line"/>
      <point x="641" y="897" type="line"/>
      <point x="285" y="897" type="line"/>
      <point x="545" y="1059"/>
      <point x="815" y="1228"/>
    </contour>
  </outline>
</glyph>
<glyph name="MicroSgn" format="2">
  <advance width="1120"/>
  <unicode hex="00B5"/>
  <outline>
    <contour>
      <point x="1069" y="221" type="curve"/>
      <point x="1028" y="221" type="line"/>
      <point x="1010" y="174"/>
      <point x="979" y="92"/>
      <point x="915" y="92" type="curve" smooth="yes"/>
      <point x="834" y="92"/>
      <point x="874" y="233"/>
      <point x="885" y="281" type="curve" smooth="yes"/>
      <point x="1024" y="987" type="line"/>
      <point x="834" y="987" type="line"/>
      <point x="686" y="246" type="line"/>
      <point x="618" y="182"/>
      <point x="535" y="104"/>
      <point x="436" y="104" type="curve" smooth="yes"/>
      <point x="362" y="104"/>
      <point x="324" y="158"/>
      <point x="324" y="225" type="curve" smooth="yes"/>
      <point x="324" y="287"/>
      <point x="336" y="346"/>
      <point x="348" y="403" type="curve" smooth="yes"/>
      <point x="463" y="987" type="line"/>
      <point x="272" y="987" type="line"/>
      <point x="119" y="207" type="line" smooth="yes"/>
      <point x="98" y="98"/>
      <point x="72" y="-8"/>
      <point x="35" y="-113" type="curve"/>
      <point x="6" y="-186"/>
      <point x="-57" y="-291"/>
      <point x="-57" y="-369" type="curve" smooth="yes"/>
      <point x="-57" y="-412"/>
      <point x="-35" y="-455"/>
      <point x="12" y="-455" type="curve" smooth="yes"/>
      <point x="131" y="-455"/>
      <point x="139" y="-305"/>
      <point x="139" y="-219" type="curve" smooth="yes"/>
      <point x="139" y="-121"/>
      <point x="145" y="-31"/>
      <point x="164" y="66" type="curve"/>
      <point x="190" y="-2"/>
      <point x="262" y="-25"/>
      <point x="328" y="-25" type="curve" smooth="yes"/>
      <point x="463" y="-25"/>
      <point x="582" y="88"/>
      <point x="674" y="174" type="curve"/>
      <point x="668" y="72"/>
      <point x="692" y="-25"/>
      <point x="813" y="-25" type="curve" smooth="yes"/>
      <point x="956" y="-25"/>
      <point x="1036" y="96"/>
    </contour>
  </outline>
</glyph>
<glyph name="SupOne" format="2">
  <advance width="739"/>
  <unicode hex="00B9"/>
  <anchor x="388" y="725" name="L"/>
  <anchor x="557" y="1650" name="U"/>
  <outline>
    <contour>
      <point x="668" y="1622" type="line"/>
      <point x="625" y="1622" type="line"/>
      <point x="319" y="1542" type="line"/>
      <point x="319" y="1477" type="line"/>
      <point x="516" y="1499" type="line"/>
      <point x="393" y="895" type="line" smooth="yes"/>
      <point x="389" y="872"/>
      <point x="377" y="860"/>
      <point x="348" y="858" type="curve" smooth="yes"/>
      <point x="236" y="854" type="line"/>
      <point x="236" y="784" type="line"/>
      <point x="635" y="784" type="line"/>
      <point x="635" y="852" type="line"/>
      <point x="547" y="858" type="line" smooth="yes"/>
      <point x="522" y="860"/>
      <point x="514" y="872"/>
      <point x="518" y="895" type="curve" smooth="yes"/>
    </contour>
  </outline>
</glyph>
<glyph name="VulgFracOneHalf" format="2">
  <advance width="1800"/>
  <unicode hex="00BD"/>
  <outline>
    <contour>
      <point x="1669" y="657" type="curve" smooth="yes"/>
      <point x="1669" y="797"/>
      <point x="1552" y="846"/>
      <point x="1425" y="846" type="curve" smooth="yes"/>
      <point x="1262" y="846"/>
      <point x="1104" y="748"/>
      <point x="1104" y="647" type="curve" smooth="yes"/>
      <point x="1104" y="596"/>
      <point x="1153" y="590"/>
      <point x="1174" y="590" type="curve" smooth="yes"/>
      <point x="1219" y="590"/>
      <point x="1245" y="612"/>
      <point x="1245" y="612" type="curve"/>
      <point x="1272" y="739" type="line"/>
      <point x="1284" y="745"/>
      <point x="1329" y="766"/>
      <point x="1384" y="766" type="curve" smooth="yes"/>
      <point x="1468" y="766"/>
      <point x="1524" y="729"/>
      <point x="1524" y="643" type="curve" smooth="yes"/>
      <point x="1524" y="401"/>
      <point x="1135" y="205"/>
      <point x="958" y="90" type="curve"/>
      <point x="938" y="0" type="line"/>
      <point x="1567" y="0" type="line"/>
      <point x="1612" y="215" type="line"/>
      <point x="1536" y="215" type="line"/>
      <point x="1491" y="115" type="line"/>
      <point x="1130" y="115" type="line"/>
      <point x="1298" y="223"/>
      <point x="1669" y="428"/>
    </contour>
    <contour>
      <point x="1540" y="1430" type="line"/>
      <point x="1395" y="1430" type="line"/>
      <point x="205" y="0" type="line"/>
      <point x="350" y="0" type="line"/>
    </contour>
    <contour>
      <point x="571" y="1436" type="line"/>
      <point x="528" y="1436" type="line"/>
      <point x="223" y="1356" type="line"/>
      <point x="223" y="1290" type="line"/>
      <point x="420" y="1313" type="line"/>
      <point x="299" y="709" type="line"/>
      <point x="293" y="686"/>
      <point x="281" y="674"/>
      <point x="252" y="674" type="curve"/>
      <point x="139" y="668" type="line"/>
      <point x="139" y="598" type="line"/>
      <point x="539" y="598" type="line"/>
      <point x="539" y="666" type="line"/>
      <point x="451" y="674" type="line"/>
      <point x="428" y="674"/>
      <point x="418" y="686"/>
      <point x="422" y="709" type="curve" smooth="yes"/>
    </contour>
  </outline>
</glyph>
<glyph name="LtnCapEth" format="2">
  <advance width="1374"/>
  <unicode hex="00D0"/>
  <anchor x="532" y="-100" name="L"/>
  <anchor x="820" y="1500" name="U"/>
  <outline>
    <component base="LtnCapD"/>
    <contour>
      <point x="59" y="668" type="line"/>
      <point x="711" y="668" type="line"/>
      <point x="711" y="776" type="line"/>
      <point x="59" y="776" type="line"/>
    </contour>
  </outline>
</glyph>
<glyph name="LtnCapThorn" format="2">
  <advance width="1159"/>
  <unicode hex="00DE"/>
  <anchor x="434" y="-100" name="L"/>
  <anchor x="722" y="1500" name="U"/>
  <outline>
    <contour>
      <point x="-35" y="0" type="line"/>
      <point x="498" y="0" type="line"/>
      <point x="498" y="86" type="line"/>
      <point x="381" y="96" type="line" smooth="yes"/>
      <point x="344" y="99"/>
      <point x="336" y="115"/>
      <point x="340" y="135" type="curve" smooth="yes"/>
      <point x="362" y="258" type="line"/>
      <point x="401" y="257"/>
      <point x="464" y="256"/>
      <point x="494" y="256" type="curve" smooth="yes"/>
      <point x="850" y="256"/>
      <point x="1116" y="459"/>
      <point x="1116" y="788" type="curve" smooth="yes"/>
      <point x="1116" y="981"/>
      <point x="985" y="1116"/>
      <point x="651" y="1116" type="curve" smooth="yes"/>
      <point x="530" y="1116" type="line"/>
      <point x="553" y="1237" type="line" smooth="yes"/>
      <point x="558" y="1264"/>
      <point x="578" y="1276"/>
      <point x="602" y="1278" type="curve" smooth="yes"/>
      <point x="721" y="1288" type="line"/>
      <point x="721" y="1374" type="line"/>
      <point x="193" y="1374" type="line"/>
      <point x="193" y="1288" type="line"/>
      <point x="307" y="1278" type="line" smooth="yes"/>
      <point x="344" y="1275"/>
      <point x="352" y="1260"/>
      <point x="348" y="1237" type="curve" smooth="yes"/>
      <point x="133" y="135" type="line"/>
      <point x="127" y="111"/>
      <point x="109" y="98"/>
      <point x="84" y="96" type="curve" smooth="yes"/>
      <point x="-35" y="86" type="line"/>
    </contour>
    <contour>
      <point x="383" y="365" type="curve"/>
      <point x="510" y="1018" type="line"/>
      <point x="528" y="1020"/>
      <point x="561" y="1022"/>
      <point x="586" y="1022" type="curve" smooth="yes"/>
      <point x="821" y="1022"/>
      <point x="903" y="913"/>
      <point x="903" y="756" type="curve" smooth="yes"/>
      <point x="903" y="596"/>
      <point x="827" y="487"/>
      <point x="725" y="430" type="curve" smooth="yes"/>
      <point x="627" y="375"/>
      <point x="502" y="365"/>
    </contour>
  </outline>
</glyph>
<glyph name="LtnSmDCaron" format="2">
  <advance width="1287"/>
  <unicode hex="010F"/>
  <anchor x="479" y="0" name="H"/>
  <anchor x="459" y="-100" name="L"/>
  <anchor x="772" y="1540" name="U"/>
  <outline>
    <contour>
      <point x="1083" y="1509" type="line"/>
      <point x="999" y="1509" type="line"/>
      <point x="682" y="1448" type="line"/>
      <point x="682" y="1386" type="line"/>
      <point x="868" y="1368" type="line"/>
      <point x="799" y="973" type="line"/>
      <point x="764" y="985"/>
      <point x="707" y="1012"/>
      <point x="645" y="1012" type="curve" smooth="yes"/>
      <point x="283" y="1012"/>
      <point x="66" y="668"/>
      <point x="66" y="342" type="curve" smooth="yes"/>
      <point x="66" y="170"/>
      <point x="129" y="-25"/>
      <point x="358" y="-25" type="curve" smooth="yes"/>
      <point x="473" y="-25"/>
      <point x="578" y="53"/>
      <point x="649" y="129" type="curve"/>
      <point x="649" y="39"/>
      <point x="678" y="-25"/>
      <point x="803" y="-25" type="curve" smooth="yes"/>
      <point x="887" y="-25"/>
      <point x="1038" y="33"/>
      <point x="1071" y="45" type="curve"/>
      <point x="1071" y="121" type="line"/>
      <point x="1053" y="117"/>
      <point x="944" y="82"/>
      <point x="924" y="82" type="curve" smooth="yes"/>
      <point x="905" y="82"/>
      <point x="836" y="100"/>
      <point x="850" y="176" type="curve" smooth="yes"/>
    </contour>
    <contour>
      <point x="770" y="807" type="curve"/>
      <point x="676" y="268" type="line"/>
      <point x="602" y="182"/>
      <point x="498" y="100"/>
      <point x="424" y="100" type="curve" smooth="yes"/>
      <point x="344" y="100"/>
      <point x="264" y="178"/>
      <point x="264" y="354" type="curve" smooth="yes"/>
      <point x="264" y="674"/>
      <point x="442" y="920"/>
      <point x="641" y="920" type="curve" smooth="yes"/>
      <point x="694" y="920"/>
      <point x="772" y="819"/>
    </contour>
    <contour>
      <point x="1100" y="1087" type="line"/>
      <point x="1200" y="1087" type="line"/>
      <point x="1389" y="1441" type="line"/>
      <point x="1404" y="1509" type="line"/>
      <point x="1229" y="1509" type="line"/>
    </contour>
  </outline>
</glyph>
<glyph name="LtnSmEOgonek" format="2">
  <advance width="889"/>
  <unicode hex="0119"/>
  <anchor x="302" y="-500" name="L"/>
  <anchor x="622" y="1100" name="U"/>
  <outline>
    <component base="LtnSmE"/>
    <contour>
      <point x="569" y="-311" type="line"/>
      <point x="544" y="-317"/>
      <point x="520" y="-322"/>
      <point x="493" y="-322" type="curve" smooth="yes"/>
      <point x="448" y="-322"/>
      <point x="411" y="-301"/>
      <point x="411" y="-252" type="curve" smooth="yes"/>
      <point x="411" y="-147"/>
      <point x="523" y="-20"/>
      <point x="662" y="56" type="curve"/>
      <point x="465" y="0" type="line"/>
      <point x="370" y="-68"/>
      <point x="272" y="-186"/>
      <point x="272" y="-307" type="curve" smooth="yes"/>
      <point x="272" y="-408"/>
      <point x="352" y="-442"/>
      <point x="440" y="-442" type="curve" smooth="yes"/>
      <point x="477" y="-442"/>
      <point x="516" y="-436"/>
      <point x="551" y="-428" type="curve"/>
    </contour>
  </outline>
</glyph>
<glyph name="LtnCapLStrk" format="2">
  <advance width="1061"/>
  <unicode hex="0141"/>
  <anchor x="377" y="-100" name="L"/>
  <anchor x="665" y="1500" name="U"/>
  <outline>
    <contour>
      <point x="-31" y="0" type="line"/>
      <point x="915" y="0" type="line"/>
      <point x="989" y="379" type="line"/>
      <point x="868" y="379" type="line"/>
      <point x="795" y="143" type="line" smooth="yes"/>
      <point x="786" y="119"/>
      <point x="770" y="102"/>
      <point x="743" y="102" type="curve" smooth="yes"/>
      <point x="340" y="102" type="line"/>
      <point x="451" y="682" type="line"/>
      <point x="754" y="850" type="line"/>
      <point x="698" y="948" type="line"/>
      <point x="477" y="825" type="line"/>
      <point x="557" y="1237" type="line" smooth="yes"/>
      <point x="561" y="1257"/>
      <point x="578" y="1276"/>
      <point x="608" y="1278" type="curve" smooth="yes"/>
      <point x="729" y="1288" type="line"/>
      <point x="729" y="1374" type="line"/>
      <point x="197" y="1374" type="line"/>
      <point x="197" y="1288" type="line"/>
      <point x="311" y="1278" type="line" smooth="yes"/>
      <point x="346" y="1276"/>
      <point x="354" y="1260"/>
      <point x="350" y="1237" type="curve" smooth="yes"/>
      <point x="246" y="694" type="line"/>
      <point x="-18" y="547" type="line"/>
      <point x="31" y="446" type="line"/>
      <point x="217" y="553" type="line"/>
      <point x="137" y="135" type="line" smooth="yes"/>
      <point x="133" y="111"/>
      <point x="115" y="98"/>
      <point x="88" y="96" type="curve" smooth="yes"/>
      <point x="-31" y="86" type="line"/>
    </contour>
  </outline>
</glyph>
<glyph name="LtnCapBHook" format="2">
  <advance width="1286"/>
  <unicode hex="0181"/>
  <anchor x="426" y="-100" name="L"/>
  <anchor x="714" y="1500" name="U"/>
  <outline>
    <contour>
      <point x="14" y="0" type="line"/>
      <point x="575" y="0" type="line" smooth="yes"/>
      <point x="918" y="0"/>
      <point x="1180" y="123"/>
      <point x="1180" y="459" type="curve" smooth="yes"/>
      <point x="1180" y="637"/>
      <point x="1055" y="707"/>
      <point x="879" y="731" type="curve"/>
      <point x="1065" y="793"/>
      <point x="1219" y="901"/>
      <point x="1219" y="1112" type="curve" smooth="yes"/>
      <point x="1219" y="1270"/>
      <point x="1110" y="1374"/>
      <point x="815" y="1374" type="curve" smooth="yes"/>
      <point x="289" y="1374" type="line" smooth="yes"/>
      <point x="186" y="1374"/>
      <point x="8" y="1290"/>
      <point x="8" y="1126" type="curve" smooth="yes"/>
      <point x="8" y="1071"/>
      <point x="49" y="1014"/>
      <point x="106" y="1014" type="curve" smooth="yes"/>
      <point x="145" y="1014"/>
      <point x="199" y="1038"/>
      <point x="246" y="1081" type="curve"/>
      <point x="190" y="1225" type="line"/>
      <point x="190" y="1225"/>
      <point x="213" y="1266"/>
      <point x="285" y="1266" type="curve" smooth="yes"/>
      <point x="348" y="1266" type="line" smooth="yes"/>
      <point x="385" y="1266"/>
      <point x="393" y="1245"/>
      <point x="389" y="1225" type="curve" smooth="yes"/>
      <point x="182" y="135" type="line"/>
      <point x="176" y="111"/>
      <point x="168" y="98"/>
      <point x="141" y="96" type="curve" smooth="yes"/>
      <point x="14" y="86" type="line"/>
    </contour>
    <contour>
      <point x="508" y="92" type="curve" smooth="yes"/>
      <point x="473" y="92"/>
      <point x="414" y="96"/>
      <point x="383" y="98" type="curve"/>
      <point x="489" y="655" type="line"/>
      <point x="535" y="662"/>
      <point x="590" y="666"/>
      <point x="641" y="666" type="curve" smooth="yes"/>
      <point x="834" y="666"/>
      <point x="956" y="604"/>
      <point x="956" y="438" type="curve" smooth="yes"/>
      <point x="956" y="221"/>
      <point x="801" y="92"/>
    </contour>
    <contour>
      <point x="604" y="756" type="curve" smooth="yes"/>
      <point x="588" y="756"/>
      <point x="539" y="758"/>
      <point x="510" y="760" type="curve"/>
      <point x="608" y="1280" type="line"/>
      <point x="631" y="1282"/>
      <point x="672" y="1286"/>
      <point x="713" y="1286" type="curve" smooth="yes"/>
      <point x="887" y="1286"/>
      <point x="993" y="1227"/>
      <point x="993" y="1098" type="curve" smooth="yes"/>
      <point x="993" y="913"/>
      <point x="862" y="756"/>
    </contour>
  </outline>
</glyph>
<glyph name="LtnSmTnSix" format="2">
  <advance width="1079"/>
  <unicode hex="0185"/>
  <anchor x="369" y="-100" name="L"/>
  <anchor x="685" y="1540" name="U"/>
  <outline>
    <contour>
      <point x="810" y="627" type="curve" smooth="yes"/>
      <point x="810" y="381"/>
      <point x="669" y="72"/>
      <point x="481" y="72" type="curve" smooth="yes"/>
      <point x="407" y="72"/>
      <point x="339" y="113"/>
      <point x="313" y="152" type="curve"/>
      <point x="427" y="772" type="line"/>
      <point x="497" y="831"/>
      <point x="597" y="877"/>
      <point x="663" y="877" type="curve" smooth="yes"/>
      <point x="712" y="877"/>
      <point x="810" y="811"/>
    </contour>
    <contour>
      <point x="312" y="1162" type="line"/>
      <point x="108" y="70" type="line"/>
      <point x="204" y="8"/>
      <point x="321" y="-25"/>
      <point x="436" y="-25" type="curve" smooth="yes"/>
      <point x="851" y="-25"/>
      <point x="1013" y="381"/>
      <point x="1013" y="635" type="curve" smooth="yes"/>
      <point x="1013" y="805"/>
      <point x="941" y="1012"/>
      <point x="730" y="1012" type="curve" smooth="yes"/>
      <point x="632" y="1012"/>
      <point x="524" y="956"/>
      <point x="450" y="889" type="curve"/>
      <point x="567" y="1509" type="line"/>
      <point x="450" y="1509" type="line"/>
      <point x="47" y="1069" type="line"/>
      <point x="116" y="999" type="line"/>
    </contour>
  </outline>
</glyph>
<glyph name="LtnSmDTopbar" format="2">
  <advance width="1077"/>
  <unicode hex="018C"/>
  <anchor x="501" y="-100" name="L"/>
  <anchor x="817" y="1540" name="U"/>
  <outline>
    <contour>
      <point x="799" y="973" type="line"/>
      <point x="764" y="985"/>
      <point x="707" y="1012"/>
      <point x="645" y="1012" type="curve" smooth="yes"/>
      <point x="283" y="1012"/>
      <point x="66" y="668"/>
      <point x="66" y="342" type="curve" smooth="yes"/>
      <point x="66" y="170"/>
      <point x="129" y="-25"/>
      <point x="358" y="-25" type="curve" smooth="yes"/>
      <point x="473" y="-25"/>
      <point x="578" y="53"/>
      <point x="649" y="129" type="curve"/>
      <point x="649" y="39"/>
      <point x="678" y="-25"/>
      <point x="803" y="-25" type="curve" smooth="yes"/>
      <point x="887" y="-25"/>
      <point x="1038" y="32"/>
      <point x="1071" y="45" type="curve"/>
      <point x="1071" y="121" type="line"/>
      <point x="1053" y="117"/>
      <point x="944" y="82"/>
      <point x="924" y="82" type="curve" smooth="yes"/>
      <point x="905" y="82"/>
      <point x="837" y="100"/>
      <point x="850" y="176" type="curve" smooth="yes"/>
      <point x="1083" y="1509" type="line"/>
      <point x="384" y="1509" type="line"/>
      <point x="321" y="1184" type="line"/>
      <point x="433" y="1184" type="line"/>
      <point x="497" y="1368" type="line" smooth="yes"/>
      <point x="504" y="1388"/>
      <point x="521" y="1405"/>
      <point x="540" y="1405" type="curve" smooth="yes"/>
      <point x="833" y="1405" type="line" smooth="yes"/>
      <point x="864" y="1405"/>
      <point x="871" y="1380"/>
      <point x="868" y="1362" type="curve" smooth="yes"/>
    </contour>
    <contour>
      <point x="770" y="807" type="curve"/>
      <point x="676" y="268" type="line"/>
      <point x="602" y="182"/>
      <point x="498" y="100"/>
      <point x="424" y="100" type="curve" smooth="yes"/>
      <point x="344" y="100"/>
      <point x="264" y="178"/>
      <point x="264" y="354" type="curve" smooth="yes"/>
      <point x="264" y="674"/>
      <point x="442" y="920"/>
      <point x="641" y="920" type="curve" smooth="yes"/>
      <point x="694" y="920"/>
      <point x="772" y="819"/>
    </contour>
  </outline>
</glyph>
<glyph name="LtnCapSchwa" format="2">
  <advance width="1231"/>
  <unicode hex="018F"/>
  <anchor x="477" y="-100" name="L"/>
  <anchor x="765" y="1500" name="U"/>
  <outline>
    <contour>
      <point x="1194" y="881" type="curve" smooth="yes"/>
      <point x="1194" y="1272"/>
      <point x="872" y="1407"/>
      <point x="686" y="1407" type="curve" smooth="yes"/>
      <point x="440" y="1407"/>
      <point x="340" y="1337"/>
      <point x="170" y="1182" type="curve"/>
      <point x="170" y="1024" type="line"/>
      <point x="307" y="1137"/>
      <point x="459" y="1290"/>
      <point x="649" y="1290" type="curve" smooth="yes"/>
      <point x="844" y="1290"/>
      <point x="969" y="1081"/>
      <point x="969" y="870" type="curve" smooth="yes"/>
      <point x="969" y="836"/>
      <point x="967" y="807"/>
      <point x="963" y="774" type="curve"/>
      <point x="322" y="772"/>
      <point x="43" y="596"/>
      <point x="43" y="270" type="curve" smooth="yes"/>
      <point x="43" y="193"/>
      <point x="121" y="-33"/>
      <point x="434" y="-33" type="curve" smooth="yes"/>
      <point x="950" y="-33"/>
      <point x="1194" y="418"/>
    </contour>
    <contour>
      <point x="946" y="659" type="curve"/>
      <point x="874" y="350"/>
      <point x="696" y="76"/>
      <point x="475" y="76" type="curve" smooth="yes"/>
      <point x="389" y="76"/>
      <point x="291" y="184"/>
      <point x="291" y="268" type="curve" smooth="yes"/>
      <point x="291" y="477"/>
      <point x="451" y="655"/>
    </contour>
  </outline>
</glyph>
<glyph name="LtnCapTrndM" format="2">
  <advance width="2199"/>
  <unicode hex="019C"/>
  <anchor x="974" y="-100" name="L"/>
  <anchor x="1262" y="1500" name="U"/>
  <outline>
    <contour>
      <point x="550" y="-33" type="curve" smooth="yes"/>
      <point x="700" y="-33"/>
      <point x="827" y="31"/>
      <point x="980" y="133" type="curve"/>
      <point x="1025" y="24"/>
      <point x="1128" y="-33"/>
      <point x="1265" y="-33" type="curve" smooth="yes"/>
      <point x="1429" y="-33"/>
      <point x="1513" y="43"/>
      <point x="1691" y="166" type="curve"/>
      <point x="1656" y="0" type="line"/>
      <point x="2041" y="0" type="line"/>
      <point x="2041" y="88" type="line"/>
      <point x="1924" y="98" type="line" smooth="yes"/>
      <point x="1898" y="100"/>
      <point x="1888" y="121"/>
      <point x="1892" y="137" type="curve"/>
      <point x="2109" y="1233" type="line" smooth="yes"/>
      <point x="2113" y="1253"/>
      <point x="2131" y="1276"/>
      <point x="2160" y="1278" type="curve" smooth="yes"/>
      <point x="2285" y="1286" type="line"/>
      <point x="2285" y="1374" type="line"/>
      <point x="1748" y="1374" type="line"/>
      <point x="1748" y="1286" type="line"/>
      <point x="1867" y="1278" type="line" smooth="yes"/>
      <point x="1896" y="1276"/>
      <point x="1906" y="1253"/>
      <point x="1902" y="1233" type="curve" smooth="yes"/>
      <point x="1714" y="282" type="line"/>
      <point x="1589" y="198"/>
      <point x="1517" y="137"/>
      <point x="1380" y="137" type="curve" smooth="yes"/>
      <point x="1197" y="137"/>
      <point x="1146" y="264"/>
      <point x="1181" y="446" type="curve"/>
      <point x="1339" y="1233" type="line" smooth="yes"/>
      <point x="1343" y="1253"/>
      <point x="1361" y="1276"/>
      <point x="1390" y="1278" type="curve" smooth="yes"/>
      <point x="1515" y="1286" type="line"/>
      <point x="1515" y="1374" type="line"/>
      <point x="978" y="1374" type="line"/>
      <point x="978" y="1286" type="line"/>
      <point x="1097" y="1278" type="line" smooth="yes"/>
      <point x="1126" y="1276"/>
      <point x="1136" y="1253"/>
      <point x="1132" y="1233" type="curve" smooth="yes"/>
      <point x="966" y="405" type="line"/>
      <point x="954" y="340"/>
      <point x="952" y="282"/>
      <point x="958" y="231" type="curve"/>
      <point x="872" y="190"/>
      <point x="747" y="137"/>
      <point x="665" y="137" type="curve" smooth="yes"/>
      <point x="483" y="137"/>
      <point x="376" y="264"/>
      <point x="411" y="446" type="curve"/>
      <point x="569" y="1233" type="line"/>
      <point x="573" y="1253"/>
      <point x="591" y="1276"/>
      <point x="620" y="1278" type="curve" smooth="yes"/>
      <point x="745" y="1286" type="line"/>
      <point x="745" y="1374" type="line"/>
      <point x="208" y="1374" type="line"/>
      <point x="208" y="1286" type="line"/>
      <point x="327" y="1278" type="line" smooth="yes"/>
      <point x="356" y="1276"/>
      <point x="366" y="1253"/>
      <point x="362" y="1233" type="curve"/>
      <point x="198" y="405" type="line"/>
      <point x="190" y="370"/>
      <point x="188" y="340"/>
      <point x="188" y="309" type="curve" smooth="yes"/>
      <point x="188" y="90"/>
      <point x="350" y="-33"/>
    </contour>
  </outline>
</glyph>
<glyph name="LtnCapOMiddleTilde" format="2">
  <advance width="1454"/>
  <unicode hex="019F"/>
  <anchor x="605" y="-100" name="L"/>
  <anchor x="893" y="1500" name="U"/>
  <outline>
    <contour>
      <point x="1415" y="854" type="curve" smooth="yes"/>
      <point x="1415" y="1159"/>
      <point x="1200" y="1407"/>
      <point x="860" y="1407" type="curve" smooth="yes"/>
      <point x="410" y="1407"/>
      <point x="98" y="977"/>
      <point x="98" y="537" type="curve" smooth="yes"/>
      <point x="98" y="193"/>
      <point x="328" y="-33"/>
      <point x="655" y="-33" type="curve" smooth="yes"/>
      <point x="1137" y="-33"/>
      <point x="1415" y="422"/>
    </contour>
    <contour>
      <point x="1182" y="854" type="curve" smooth="yes"/>
      <point x="1182" y="825"/>
      <point x="1180" y="793"/>
      <point x="1178" y="762" type="curve"/>
      <point x="358" y="762" type="line"/>
      <point x="426" y="1047"/>
      <point x="608" y="1305"/>
      <point x="842" y="1305" type="curve" smooth="yes"/>
      <point x="1038" y="1305"/>
      <point x="1182" y="1126"/>
    </contour>
    <contour>
      <point x="1163" y="666" type="line"/>
      <point x="1104" y="367"/>
      <point x="915" y="74"/>
      <point x="670" y="74" type="curve" smooth="yes"/>
      <point x="479" y="74"/>
      <point x="330" y="244"/>
      <point x="330" y="520" type="curve" smooth="yes"/>
      <point x="330" y="569"/>
      <point x="334" y="616"/>
      <point x="340" y="666" type="curve"/>
    </contour>
  </outline>
</glyph>
<glyph name="LtnSmOHorn" format="2">
  <advance width="1233"/>
  <unicode hex="01A1"/>
  <anchor x="384" y="-100" name="L"/>
  <anchor x="628" y="1100" name="U"/>
  <outline>
    <contour>
      <point x="428" y="-25" type="curve" smooth="yes"/>
      <point x="743" y="-25"/>
      <point x="973" y="283"/>
      <point x="973" y="614" type="curve" smooth="yes"/>
      <point x="973" y="625"/>
      <point x="973" y="633"/>
      <point x="973" y="641" type="curve"/>
      <point x="1108" y="709"/>
      <point x="1223" y="862"/>
      <point x="1223" y="1010" type="curve" smooth="yes"/>
      <point x="1223" y="1108"/>
      <point x="1157" y="1176"/>
      <point x="1067" y="1176" type="curve" smooth="yes"/>
      <point x="979" y="1176"/>
      <point x="903" y="1114"/>
      <point x="903" y="1032" type="curve" smooth="yes"/>
      <point x="903" y="977"/>
      <point x="936" y="938"/>
      <point x="936" y="938" type="curve"/>
      <point x="1075" y="938" type="line"/>
      <point x="1063" y="856"/>
      <point x="1026" y="782"/>
      <point x="963" y="723" type="curve"/>
      <point x="924" y="922"/>
      <point x="776" y="1012"/>
      <point x="606" y="1012" type="curve" smooth="yes"/>
      <point x="285" y="1012"/>
      <point x="63" y="694"/>
      <point x="63" y="362" type="curve" smooth="yes"/>
      <point x="63" y="125"/>
      <point x="203" y="-25"/>
    </contour>
    <contour>
      <point x="453" y="68" type="curve" smooth="yes"/>
      <point x="350" y="68"/>
      <point x="270" y="170"/>
      <point x="270" y="373" type="curve" smooth="yes"/>
      <point x="270" y="639"/>
      <point x="406" y="924"/>
      <point x="584" y="924" type="curve" smooth="yes"/>
      <point x="688" y="924"/>
      <point x="766" y="817"/>
      <point x="766" y="623" type="curve" smooth="yes"/>
      <point x="766" y="381"/>
      <point x="647" y="68"/>
    </contour>
  </outline>
</glyph>
<glyph name="LtnCapTnTwo" format="2">
  <advance width="1093"/>
  <unicode hex="01A7"/>
  <anchor x="433" y="-100" name="L"/>
  <anchor x="721" y="1500" name="U"/>
  <outline>
    <contour>
      <point x="983" y="403" type="line"/>
      <point x="842" y="403" type="line"/>
      <point x="765" y="163" type="line" smooth="yes"/>
      <point x="758" y="142"/>
      <point x="671" y="74"/>
      <point x="517" y="74" type="curve" smooth="yes"/>
      <point x="366" y="74"/>
      <point x="268" y="154"/>
      <point x="268" y="277" type="curve" smooth="yes"/>
      <point x="268" y="469"/>
      <point x="505" y="550"/>
      <point x="681" y="637" type="curve" smooth="yes"/>
      <point x="881" y="736"/>
      <point x="1078" y="885"/>
      <point x="1078" y="1129" type="curve" smooth="yes"/>
      <point x="1078" y="1321"/>
      <point x="911" y="1407"/>
      <point x="674" y="1407" type="curve" smooth="yes"/>
      <point x="501" y="1407"/>
      <point x="392" y="1372"/>
      <point x="296" y="1333" type="curve"/>
      <point x="237" y="1020" type="line"/>
      <point x="362" y="1020" type="line"/>
      <point x="433" y="1214" type="line" smooth="yes"/>
      <point x="447" y="1256"/>
      <point x="526" y="1306"/>
      <point x="650" y="1306" type="curve" smooth="yes"/>
      <point x="791" y="1306"/>
      <point x="868" y="1233"/>
      <point x="868" y="1123" type="curve" smooth="yes"/>
      <point x="868" y="983"/>
      <point x="744" y="877"/>
      <point x="533" y="784" type="curve" smooth="yes"/>
      <point x="251" y="660"/>
      <point x="62" y="534"/>
      <point x="62" y="283" type="curve" smooth="yes"/>
      <point x="62" y="108"/>
      <point x="195" y="-33"/>
      <point x="528" y="-33" type="curve" smooth="yes"/>
      <point x="714" y="-33"/>
      <point x="853" y="30"/>
      <point x="921" y="74" type="curve"/>
    </contour>
  </outline>
</glyph>
<glyph name="LtnCapEsh" format="2">
  <advance width="1153"/>
  <unicode hex="01A9"/>
  <anchor x="471" y="-100" name="L"/>
  <anchor x="796" y="1500" name="U"/>
  <outline>
    <contour>
      <point x="977" y="0" type="line"/>
      <point x="1049" y="379" type="line"/>
      <point x="930" y="379" type="line"/>
      <point x="850" y="141" type="line"/>
      <point x="843" y="121"/>
      <point x="827" y="104"/>
      <point x="809" y="104" type="curve" smooth="yes"/>
      <point x="218" y="104" type="line"/>
      <point x="761" y="713" type="line"/>
      <point x="490" y="1272" type="line"/>
      <point x="994" y="1272" type="line" smooth="yes"/>
      <point x="1012" y="1272"/>
      <point x="1021" y="1255"/>
      <point x="1022" y="1237" type="curve"/>
      <point x="1015" y="1047" type="line"/>
      <point x="1133" y="1047" type="line"/>
      <point x="1196" y="1374" type="line"/>
      <point x="261" y="1374" type="line"/>
      <point x="243" y="1280" type="line"/>
      <point x="526" y="713" type="line"/>
      <point x="-24" y="90" type="line"/>
      <point x="-41" y="0" type="line"/>
    </contour>
  </outline>
</glyph>
<glyph name="LtnRevEshLoop" format="2">
  <advance width="903"/>
  <unicode hex="01AA"/>
  <anchor x="374" y="-500" name="L"/>
  <anchor x="766" y="1540" name="U"/>
  <outline>
    <contour>
      <point x="995" y="-311" type="curve" smooth="yes"/>
      <point x="995" y="-240"/>
      <point x="958" y="-182"/>
      <point x="895" y="-182" type="curve"/>
      <point x="705" y="-332" type="line"/>
      <point x="651" y="-307"/>
      <point x="627" y="-272"/>
      <point x="627" y="-201" type="curve" smooth="yes"/>
      <point x="627" y="-156"/>
      <point x="632" y="-96"/>
      <point x="647" y="-18" type="curve" smooth="yes"/>
      <point x="848" y="1022" type="line" smooth="yes"/>
      <point x="853" y="1048"/>
      <point x="856" y="1075"/>
      <point x="856" y="1100" type="curve" smooth="yes"/>
      <point x="856" y="1276"/>
      <point x="748" y="1409"/>
      <point x="541" y="1409" type="curve" smooth="yes"/>
      <point x="248" y="1409"/>
      <point x="80" y="1155"/>
      <point x="80" y="940" type="curve" smooth="yes"/>
      <point x="80" y="760"/>
      <point x="201" y="639"/>
      <point x="395" y="639" type="curve" smooth="yes"/>
      <point x="469" y="639"/>
      <point x="537" y="655"/>
      <point x="598" y="686" type="curve"/>
      <point x="465" y="-14" type="line" smooth="yes"/>
      <point x="459" y="-47"/>
      <point x="455" y="-78"/>
      <point x="455" y="-109" type="curve" smooth="yes"/>
      <point x="455" y="-301"/>
      <point x="571" y="-446"/>
      <point x="784" y="-446" type="curve" smooth="yes"/>
      <point x="909" y="-446"/>
      <point x="995" y="-371"/>
    </contour>
    <contour>
      <point x="672" y="1110" type="curve" smooth="yes"/>
      <point x="672" y="950"/>
      <point x="582" y="741"/>
      <point x="412" y="741" type="curve" smooth="yes"/>
      <point x="328" y="741"/>
      <point x="262" y="801"/>
      <point x="262" y="936" type="curve" smooth="yes"/>
      <point x="262" y="1087"/>
      <point x="352" y="1307"/>
      <point x="524" y="1307" type="curve" smooth="yes"/>
      <point x="616" y="1307"/>
      <point x="672" y="1241"/>
    </contour>
  </outline>
</glyph>
<glyph name="LtnSmTPalHook" format="2">
  <advance width="614"/>
  <unicode hex="01AB"/>
  <anchor x="143" y="-500" name="L"/>
  <anchor x="482" y="1363" name="U"/>
  <outline>
    <contour>
      <point x="236" y="-469" type="curve" smooth="yes"/>
      <point x="412" y="-469"/>
      <point x="514" y="-389"/>
      <point x="545" y="-233" type="curve" smooth="yes"/>
      <point x="616" y="150" type="line"/>
      <point x="573" y="135"/>
      <point x="481" y="100"/>
      <point x="403" y="100" type="curve" smooth="yes"/>
      <point x="334" y="100"/>
      <point x="270" y="143"/>
      <point x="285" y="215" type="curve" smooth="yes"/>
      <point x="414" y="858" type="line"/>
      <point x="715" y="858" type="line"/>
      <point x="715" y="952" type="line"/>
      <point x="432" y="952" type="line"/>
      <point x="473" y="1186" type="line"/>
      <point x="348" y="1186" type="line"/>
      <point x="248" y="981" type="line"/>
      <point x="94" y="913" type="line"/>
      <point x="94" y="846" type="line"/>
      <point x="223" y="858" type="line"/>
      <point x="98" y="236" type="line" smooth="yes"/>
      <point x="92" y="207"/>
      <point x="90" y="178"/>
      <point x="90" y="152" type="curve" smooth="yes"/>
      <point x="90" y="51"/>
      <point x="135" y="-25"/>
      <point x="283" y="-25" type="curve" smooth="yes"/>
      <point x="342" y="-25"/>
      <point x="414" y="-14"/>
      <point x="487" y="18" type="curve"/>
      <point x="438" y="-244" type="line" smooth="yes"/>
      <point x="422" y="-332"/>
      <point x="373" y="-365"/>
      <point x="299" y="-365" type="curve"/>
      <point x="164" y="-221" type="line"/>
      <point x="150" y="-227"/>
      <point x="49" y="-250"/>
      <point x="49" y="-342" type="curve" smooth="yes"/>
      <point x="49" y="-403"/>
      <point x="115" y="-469"/>
    </contour>
  </outline>
</glyph>
<glyph name="LtnCapTHook" format="2">
  <advance width="1200"/>
  <unicode hex="01AC"/>
  <anchor x="469" y="-100" name="L"/>
  <anchor x="757" y="1500" name="U"/>
  <outline>
    <contour>
      <point x="254" y="0" type="line"/>
      <point x="786" y="0" type="line"/>
      <point x="786" y="86" type="line"/>
      <point x="670" y="96" type="line" smooth="yes"/>
      <point x="633" y="98"/>
      <point x="625" y="115"/>
      <point x="629" y="135" type="curve" smooth="yes"/>
      <point x="842" y="1282" type="line"/>
      <point x="1106" y="1282" type="line" smooth="yes"/>
      <point x="1135" y="1282"/>
      <point x="1147" y="1270"/>
      <point x="1145" y="1241" type="curve" smooth="yes"/>
      <point x="1137" y="1061" type="line"/>
      <point x="1266" y="1061" type="line"/>
      <point x="1329" y="1374" type="line"/>
      <point x="416" y="1374" type="line" smooth="yes"/>
      <point x="260" y="1374"/>
      <point x="135" y="1311"/>
      <point x="135" y="1143" type="curve" smooth="yes"/>
      <point x="135" y="1020"/>
      <point x="201" y="979"/>
      <point x="260" y="979" type="curve" smooth="yes"/>
      <point x="309" y="979"/>
      <point x="367" y="1008"/>
      <point x="414" y="1051" type="curve"/>
      <point x="264" y="1190" type="line"/>
      <point x="264" y="1257"/>
      <point x="311" y="1282"/>
      <point x="410" y="1282" type="curve" smooth="yes"/>
      <point x="635" y="1282" type="line"/>
      <point x="422" y="135" type="line" smooth="yes"/>
      <point x="418" y="111"/>
      <point x="397" y="98"/>
      <point x="373" y="96" type="curve" smooth="yes"/>
      <point x="254" y="86" type="line"/>
    </contour>
  </outline>
</glyph>
<glyph name="LtnCapTRetrHook" format="2">
  <advance width="1200"/>
  <unicode hex="01AE"/>
  <anchor x="404" y="-500" name="L"/>
  <anchor x="768" y="1500" name="U"/>
  <outline>
    <contour>
      <point x="732" y="-473" type="curve" smooth="yes"/>
      <point x="813" y="-473"/>
      <point x="908" y="-437"/>
      <point x="908" y="-358" type="curve" smooth="yes"/>
      <point x="908" y="-289"/>
      <point x="881" y="-256"/>
      <point x="842" y="-242" type="curve"/>
      <point x="619" y="-379" type="line"/>
      <point x="551" y="-336"/>
      <point x="567" y="-203"/>
      <point x="596" y="-47" type="curve" smooth="yes"/>
      <point x="842" y="1282" type="line"/>
      <point x="1106" y="1282" type="line" smooth="yes"/>
      <point x="1135" y="1282"/>
      <point x="1147" y="1270"/>
      <point x="1145" y="1241" type="curve"/>
      <point x="1137" y="1061" type="line"/>
      <point x="1266" y="1061" type="line"/>
      <point x="1329" y="1374" type="line"/>
      <point x="195" y="1374" type="line"/>
      <point x="135" y="1061" type="line"/>
      <point x="264" y="1061" type="line"/>
      <point x="328" y="1241" type="line"/>
      <point x="336" y="1268"/>
      <point x="354" y="1282"/>
      <point x="379" y="1282" type="curve" smooth="yes"/>
      <point x="635" y="1282" type="line"/>
      <point x="412" y="82" type="line" smooth="yes"/>
      <point x="399" y="12"/>
      <point x="390" y="-57"/>
      <point x="390" y="-123" type="curve" smooth="yes"/>
      <point x="390" y="-317"/>
      <point x="474" y="-473"/>
    </contour>
  </outline>
</glyph>
<glyph name="LtnCapUpsilon" format="2">
  <advance width="1450"/>
  <unicode hex="01B1"/>
  <anchor x="602" y="-100" name="L"/>
  <anchor x="890" y="1500" name="U"/>
  <outline>
    <contour>
      <point x="1450" y="1374" type="line"/>
      <point x="1094" y="1374" type="line"/>
      <point x="1137" y="1260"/>
      <point x="1167" y="1114"/>
      <point x="1167" y="993" type="curve" smooth="yes"/>
      <point x="1167" y="686"/>
      <point x="1032" y="106"/>
      <point x="639" y="106" type="curve" smooth="yes"/>
      <point x="426" y="106"/>
      <point x="354" y="301"/>
      <point x="354" y="485" type="curve" smooth="yes"/>
      <point x="354" y="780"/>
      <point x="504" y="1141"/>
      <point x="686" y="1374" type="curve"/>
      <point x="332" y="1374" type="line"/>
      <point x="307" y="1268" type="line"/>
      <point x="424" y="1257" type="line" smooth="yes"/>
      <point x="457" y="1255"/>
      <point x="457" y="1231"/>
      <point x="442" y="1210" type="curve"/>
      <point x="383" y="1132"/>
      <point x="302" y="1023"/>
      <point x="295" y="1010" type="curve"/>
      <point x="193" y="854"/>
      <point x="98" y="672"/>
      <point x="98" y="485" type="curve" smooth="yes"/>
      <point x="98" y="176"/>
      <point x="297" y="-33"/>
      <point x="614" y="-33" type="curve" smooth="yes"/>
      <point x="1038" y="-33"/>
      <point x="1384" y="369"/>
      <point x="1384" y="776" type="curve" smooth="yes"/>
      <point x="1384" y="885"/>
      <point x="1350" y="993"/>
      <point x="1317" y="1096" type="curve"/>
      <point x="1313" y="1106"/>
      <point x="1289" y="1167"/>
      <point x="1272" y="1210" type="curve"/>
      <point x="1262" y="1233"/>
      <point x="1276" y="1251"/>
      <point x="1303" y="1253" type="curve" smooth="yes"/>
      <point x="1427" y="1268" type="line"/>
    </contour>
  </outline>
</glyph>
<glyph name="LtnCapVHook" format="2">
  <advance width="1440"/>
  <unicode hex="01B2"/>
  <anchor x="560" y="-100" name="L"/>
  <anchor x="848" y="1500" name="U"/>
  <outline>
    <contour>
      <point x="569" y="-29" type="curve" smooth="yes"/>
      <point x="1063" y="-29"/>
      <point x="1393" y="391"/>
      <point x="1393" y="922" type="curve" smooth="yes"/>
      <point x="1393" y="1114"/>
      <point x="1305" y="1407"/>
      <point x="1096" y="1407" type="curve" smooth="yes"/>
      <point x="993" y="1407"/>
      <point x="895" y="1341"/>
      <point x="895" y="1251" type="curve" smooth="yes"/>
      <point x="895" y="1198"/>
      <point x="938" y="1153"/>
      <point x="938" y="1153" type="curve"/>
      <point x="1149" y="1153" type="line"/>
      <point x="1178" y="1124"/>
      <point x="1243" y="1006"/>
      <point x="1243" y="848" type="curve" smooth="yes"/>
      <point x="1243" y="588"/>
      <point x="987" y="117"/>
      <point x="664" y="117" type="curve" smooth="yes"/>
      <point x="508" y="117"/>
      <point x="381" y="213"/>
      <point x="381" y="399" type="curve" smooth="yes"/>
      <point x="381" y="414"/>
      <point x="387" y="467"/>
      <point x="403" y="541" type="curve"/>
      <point x="573" y="1374" type="line"/>
      <point x="182" y="1374" type="line"/>
      <point x="182" y="1288" type="line"/>
      <point x="299" y="1278" type="line" smooth="yes"/>
      <point x="334" y="1276"/>
      <point x="342" y="1260"/>
      <point x="338" y="1237" type="curve" smooth="yes"/>
      <point x="197" y="541" type="line" smooth="yes"/>
      <point x="174" y="434"/>
      <point x="162" y="350"/>
      <point x="162" y="328" type="curve" smooth="yes"/>
      <point x="162" y="88"/>
      <point x="352" y="-29"/>
    </contour>
  </outline>
</glyph>
<glyph name="LtnCapYHook.RtHook" format="2">
  <advance width="1309"/>
  <unicode hex="01B3"/>
  <anchor x="496" y="-100" name="L"/>
  <anchor x="784" y="1500" name="U"/>
  <outline>
    <contour>
      <point x="303" y="0" type="line"/>
      <point x="836" y="0" type="line"/>
      <point x="836" y="86" type="line"/>
      <point x="721" y="96" type="line" smooth="yes"/>
      <point x="686" y="98"/>
      <point x="676" y="115"/>
      <point x="682" y="135" type="curve"/>
      <point x="766" y="555" type="line"/>
      <point x="1169" y="1225" type="line" smooth="yes"/>
      <point x="1260" y="1374"/>
      <point x="1305" y="1411"/>
      <point x="1370" y="1411" type="curve"/>
      <point x="1530" y="1249" type="line"/>
      <point x="1595" y="1268"/>
      <point x="1659" y="1323"/>
      <point x="1659" y="1403" type="curve" smooth="yes"/>
      <point x="1659" y="1464"/>
      <point x="1575" y="1542"/>
      <point x="1460" y="1542" type="curve" smooth="yes"/>
      <point x="1290" y="1542"/>
      <point x="1171" y="1475"/>
      <point x="1094" y="1343" type="curve" smooth="yes"/>
      <point x="711" y="707" type="line"/>
      <point x="543" y="1239" type="line" smooth="yes"/>
      <point x="535" y="1262"/>
      <point x="549" y="1278"/>
      <point x="571" y="1280" type="curve" smooth="yes"/>
      <point x="702" y="1288" type="line"/>
      <point x="702" y="1374" type="line"/>
      <point x="172" y="1374" type="line"/>
      <point x="172" y="1288" type="line"/>
      <point x="287" y="1280" type="line" smooth="yes"/>
      <point x="301" y="1278"/>
      <point x="317" y="1276"/>
      <point x="326" y="1249" type="curve" smooth="yes"/>
      <point x="555" y="557" type="line"/>
      <point x="471" y="135" type="line" smooth="yes"/>
      <point x="465" y="111"/>
      <point x="446" y="98"/>
      <point x="422" y="96" type="curve" smooth="yes"/>
      <point x="303" y="86" type="line"/>
    </contour>
  </outline>
</glyph>
<glyph name="LtnSmYHook.RtHook" format="2">
  <advance width="1145"/>
  <unicode hex="01B4"/>
  <anchor x="682" y="-100" name="L"/>
  <anchor x="257" y="-391" name="O"/>
  <anchor x="593" y="1100" name="U"/>
  <outline>
    <contour>
      <point x="27" y="-469" type="curve" smooth="yes"/>
      <point x="283" y="-469"/>
      <point x="462" y="-141"/>
      <point x="576" y="87" type="curve" smooth="yes"/>
      <point x="658" y="250"/>
      <point x="823" y="711"/>
      <point x="897" y="889" type="curve" smooth="yes"/>
      <point x="993" y="1119"/>
      <point x="1068" y="1160"/>
      <point x="1111" y="1160" type="curve"/>
      <point x="1267" y="1060" type="line"/>
      <point x="1314" y="1092"/>
      <point x="1361" y="1144"/>
      <point x="1361" y="1203" type="curve" smooth="yes"/>
      <point x="1361" y="1258"/>
      <point x="1310" y="1324"/>
      <point x="1204" y="1324" type="curve" smooth="yes"/>
      <point x="1036" y="1324"/>
      <point x="902" y="1224"/>
      <point x="789" y="948" type="curve" smooth="yes"/>
      <point x="715" y="768"/>
      <point x="572" y="360"/>
      <point x="473" y="151" type="curve" smooth="yes"/>
      <point x="374" y="-58"/>
      <point x="220" y="-302"/>
      <point x="96" y="-332" type="curve"/>
      <point x="-23" y="-213" type="line"/>
      <point x="-104" y="-217"/>
      <point x="-164" y="-272"/>
      <point x="-164" y="-334" type="curve" smooth="yes"/>
      <point x="-164" y="-385"/>
      <point x="-123" y="-469"/>
    </contour>
    <contour>
      <point x="415" y="-67" type="curve"/>
      <point x="545" y="158" type="line"/>
      <point x="524" y="311"/>
      <point x="447" y="698"/>
      <point x="420" y="791" type="curve" smooth="yes"/>
      <point x="379" y="926"/>
      <point x="338" y="1012"/>
      <point x="250" y="1012" type="curve" smooth="yes"/>
      <point x="213" y="1012"/>
      <point x="41" y="954"/>
      <point x="4" y="942" type="curve"/>
      <point x="4" y="891" type="line"/>
      <point x="190" y="877" type="line" smooth="yes"/>
      <point x="209" y="874"/>
      <point x="264" y="662"/>
      <point x="307" y="469" type="curve" smooth="yes"/>
      <point x="328" y="371"/>
      <point x="396" y="64"/>
    </contour>
  </outline>
</glyph>
<glyph name="LtnSmEzhRev" format="2">
  <advance width="1057"/>
  <unicode hex="01B9"/>
  <anchor x="366" y="-500" name="L"/>
  <anchor x="686" y="1100" name="U"/>
  <outline>
    <contour>
      <point x="428" y="-469" type="curve" smooth="yes"/>
      <point x="624" y="-469"/>
      <point x="917" y="-369"/>
      <point x="917" y="-168" type="curve" smooth="yes"/>
      <point x="917" y="-116"/>
      <point x="883" y="-63"/>
      <point x="806" y="-63" type="curve" smooth="yes"/>
      <point x="781" y="-63"/>
      <point x="740" y="-75"/>
      <point x="712" y="-86" type="curve"/>
      <point x="653" y="-289" type="line"/>
      <point x="602" y="-340"/>
      <point x="501" y="-362"/>
      <point x="445" y="-362" type="curve" smooth="yes"/>
      <point x="294" y="-362"/>
      <point x="185" y="-216"/>
      <point x="185" y="-76" type="curve" smooth="yes"/>
      <point x="185" y="131"/>
      <point x="399" y="290"/>
      <point x="591" y="305" type="curve"/>
      <point x="629" y="205" type="line"/>
      <point x="759" y="296" type="line"/>
      <point x="384" y="819" type="line"/>
      <point x="449" y="815"/>
      <point x="553" y="811"/>
      <point x="604" y="811" type="curve" smooth="yes"/>
      <point x="679" y="811"/>
      <point x="769" y="856"/>
      <point x="849" y="856" type="curve" smooth="yes"/>
      <point x="890" y="856"/>
      <point x="945" y="829"/>
      <point x="953" y="797" type="curve"/>
      <point x="817" y="679" type="line"/>
      <point x="823" y="644"/>
      <point x="857" y="611"/>
      <point x="919" y="611" type="curve" smooth="yes"/>
      <point x="1009" y="611"/>
      <point x="1057" y="709"/>
      <point x="1057" y="797" type="curve"/>
      <point x="1057" y="928"/>
      <point x="958" y="1012"/>
      <point x="810" y="1012" type="curve" smooth="yes"/>
      <point x="701" y="1012"/>
      <point x="513" y="920"/>
      <point x="436" y="920" type="curve" smooth="yes"/>
      <point x="408" y="920"/>
      <point x="383" y="928"/>
      <point x="354" y="932" type="curve"/>
      <point x="325" y="1024" type="line"/>
      <point x="156" y="926" type="line"/>
      <point x="529" y="391" type="line"/>
      <point x="275" y="391"/>
      <point x="-20" y="195"/>
      <point x="-20" y="-98" type="curve" smooth="yes"/>
      <point x="-20" y="-313"/>
      <point x="201" y="-469"/>
    </contour>
  </outline>
</glyph>
<glyph name="LtnSmEzhTail" format="2">
  <advance width="971"/>
  <unicode hex="01BA"/>
  <anchor x="294" y="-500" name="L"/>
  <anchor x="614" y="1100" name="U"/>
  <outline>
    <contour>
      <point x="1040" y="926" type="line"/>
      <point x="909" y="1024" type="line"/>
      <point x="844" y="932" type="line"/>
      <point x="815" y="927"/>
      <point x="786" y="920"/>
      <point x="758" y="920" type="curve" smooth="yes"/>
      <point x="623" y="920"/>
      <point x="500" y="1012"/>
      <point x="360" y="1012" type="curve" smooth="yes"/>
      <point x="207" y="1012"/>
      <point x="80" y="870"/>
      <point x="80" y="719" type="curve" smooth="yes"/>
      <point x="80" y="655"/>
      <point x="123" y="598"/>
      <point x="190" y="598" type="curve" smooth="yes"/>
      <point x="233" y="598"/>
      <point x="279" y="631"/>
      <point x="299" y="666" type="curve"/>
      <point x="195" y="797" type="line"/>
      <point x="215" y="829"/>
      <point x="260" y="856"/>
      <point x="301" y="856" type="curve" smooth="yes"/>
      <point x="381" y="856"/>
      <point x="453" y="811"/>
      <point x="528" y="811" type="curve" smooth="yes"/>
      <point x="579" y="811"/>
      <point x="691" y="815"/>
      <point x="762" y="819" type="curve"/>
      <point x="313" y="416" type="line"/>
      <point x="360" y="375" type="line"/>
      <point x="386" y="396"/>
      <point x="439" y="424"/>
      <point x="489" y="424" type="curve" smooth="yes"/>
      <point x="561" y="424"/>
      <point x="662" y="371"/>
      <point x="662" y="307" type="curve" smooth="yes"/>
      <point x="662" y="90"/>
      <point x="78" y="119"/>
      <point x="78" y="-213" type="curve" smooth="yes"/>
      <point x="78" y="-371"/>
      <point x="244" y="-469"/>
      <point x="371" y="-469" type="curve" smooth="yes"/>
      <point x="586" y="-469"/>
      <point x="756" y="-319"/>
      <point x="756" y="-231" type="curve" smooth="yes"/>
      <point x="756" y="-176"/>
      <point x="729" y="-131"/>
      <point x="674" y="-131" type="curve" smooth="yes"/>
      <point x="631" y="-131"/>
      <point x="586" y="-154"/>
      <point x="565" y="-178" type="curve"/>
      <point x="565" y="-315" type="line"/>
      <point x="541" y="-354"/>
      <point x="438" y="-377"/>
      <point x="371" y="-377" type="curve" smooth="yes"/>
      <point x="303" y="-377"/>
      <point x="227" y="-311"/>
      <point x="227" y="-248" type="curve" smooth="yes"/>
      <point x="227" y="16"/>
      <point x="825" y="-53"/>
      <point x="825" y="332" type="curve" smooth="yes"/>
      <point x="825" y="498"/>
      <point x="629" y="506"/>
      <point x="588" y="506" type="curve"/>
    </contour>
  </outline>
</glyph>
<glyph name="LtnTwoStrk" format="2">
  <advance width="1139"/>
  <unicode hex="01BB"/>
  <anchor x="399" y="-100" name="L"/>
  <anchor x="687" y="1500" name="U"/>
  <outline>
    <contour>
      <point x="-51" y="0" type="line"/>
      <point x="901" y="0" type="line"/>
      <point x="967" y="350" type="line"/>
      <point x="858" y="350" type="line"/>
      <point x="791" y="178" type="line"/>
      <point x="219" y="178" type="line"/>
      <point x="401" y="301"/>
      <point x="561" y="416"/>
      <point x="702" y="535" type="curve"/>
      <point x="1010" y="535" type="line"/>
      <point x="1030" y="649" type="line"/>
      <point x="829" y="649" type="line"/>
      <point x="967" y="786"/>
      <point x="1057" y="930"/>
      <point x="1057" y="1090" type="curve" smooth="yes"/>
      <point x="1057" y="1317"/>
      <point x="883" y="1399"/>
      <point x="688" y="1399" type="curve" smooth="yes"/>
      <point x="436" y="1399"/>
      <point x="201" y="1233"/>
      <point x="201" y="1073" type="curve" smooth="yes"/>
      <point x="201" y="991"/>
      <point x="274" y="981"/>
      <point x="301" y="981" type="curve" smooth="yes"/>
      <point x="367" y="981"/>
      <point x="396" y="996"/>
      <point x="410" y="1018" type="curve"/>
      <point x="449" y="1231" type="line"/>
      <point x="475" y="1249"/>
      <point x="539" y="1278"/>
      <point x="627" y="1278" type="curve" smooth="yes"/>
      <point x="758" y="1278"/>
      <point x="842" y="1214"/>
      <point x="842" y="1067" type="curve" smooth="yes"/>
      <point x="842" y="920"/>
      <point x="770" y="793"/>
      <point x="627" y="649" type="curve"/>
      <point x="68" y="649" type="line"/>
      <point x="45" y="535" type="line"/>
      <point x="500" y="535" type="line"/>
      <point x="367" y="422"/>
      <point x="193" y="297"/>
      <point x="-25" y="141" type="curve"/>
    </contour>
  </outline>
</glyph>
<glyph name="LtnWynn" format="2">
  <advance width="1009"/>
  <unicode hex="01BF"/>
  <anchor x="219" y="-500" name="L"/>
  <anchor x="539" y="1100" name="U"/>
  <outline>
    <contour>
      <point x="319" y="-369" type="line"/>
      <point x="190" y="-358" type="line" smooth="yes"/>
      <point x="154" y="-355"/>
      <point x="145" y="-340"/>
      <point x="150" y="-317" type="curve" smooth="yes"/>
      <point x="178" y="-178" type="line"/>
      <point x="513" y="-18"/>
      <point x="943" y="321"/>
      <point x="943" y="745" type="curve" smooth="yes"/>
      <point x="943" y="895"/>
      <point x="865" y="1012"/>
      <point x="678" y="1012" type="curve" smooth="yes"/>
      <point x="563" y="1012"/>
      <point x="454" y="948"/>
      <point x="383" y="885" type="curve"/>
      <point x="408" y="1012" type="line"/>
      <point x="328" y="1012" type="line"/>
      <point x="18" y="948" type="line"/>
      <point x="18" y="889" type="line"/>
      <point x="190" y="870" type="line"/>
      <point x="-41" y="-317" type="line" smooth="yes"/>
      <point x="-46" y="-344"/>
      <point x="-63" y="-355"/>
      <point x="-90" y="-358" type="curve" smooth="yes"/>
      <point x="-197" y="-369" type="line"/>
      <point x="-197" y="-446" type="line"/>
      <point x="319" y="-446" type="line"/>
    </contour>
    <contour>
      <point x="360" y="768" type="line"/>
      <point x="445" y="836"/>
      <point x="525" y="887"/>
      <point x="584" y="887" type="curve" smooth="yes"/>
      <point x="658" y="887"/>
      <point x="733" y="815"/>
      <point x="733" y="706" type="curve" smooth="yes"/>
      <point x="733" y="385"/>
      <point x="456" y="79"/>
      <point x="201" y="-57" type="curve"/>
    </contour>
  </outline>
</glyph>
<glyph name="LtnCapHwair" format="2">
  <advance width="2057"/>
  <unicode hex="01F6"/>
  <anchor x="818" y="-100" name="L"/>
  <anchor x="1106" y="1500" name="U"/>
  <outline>
    <contour>
      <point x="1275" y="-25" type="curve" smooth="yes"/>
      <point x="1498" y="-25"/>
      <point x="1751" y="118"/>
      <point x="1798" y="342" type="curve" smooth="yes"/>
      <point x="1932" y="987" type="line"/>
      <point x="1741" y="987" type="line"/>
      <point x="1601" y="306" type="line" smooth="yes"/>
      <point x="1570" y="152"/>
      <point x="1441" y="102"/>
      <point x="1343" y="102" type="curve" smooth="yes"/>
      <point x="1290" y="102"/>
      <point x="1181" y="108"/>
      <point x="1223" y="308" type="curve" smooth="yes"/>
      <point x="1403" y="1237" type="line" smooth="yes"/>
      <point x="1408" y="1264"/>
      <point x="1427" y="1276"/>
      <point x="1452" y="1278" type="curve" smooth="yes"/>
      <point x="1571" y="1288" type="line"/>
      <point x="1571" y="1374" type="line"/>
      <point x="1038" y="1374" type="line"/>
      <point x="1038" y="1288" type="line"/>
      <point x="1155" y="1278" type="line" smooth="yes"/>
      <point x="1192" y="1276"/>
      <point x="1200" y="1260"/>
      <point x="1196" y="1237" type="curve" smooth="yes"/>
      <point x="1106" y="770" type="line"/>
      <point x="467" y="770" type="line"/>
      <point x="557" y="1237" type="line" smooth="yes"/>
      <point x="561" y="1264"/>
      <point x="582" y="1276"/>
      <point x="606" y="1278" type="curve" smooth="yes"/>
      <point x="727" y="1288" type="line"/>
      <point x="727" y="1374" type="line"/>
      <point x="195" y="1374" type="line"/>
      <point x="195" y="1288" type="line"/>
      <point x="309" y="1278" type="line" smooth="yes"/>
      <point x="346" y="1276"/>
      <point x="354" y="1260"/>
      <point x="350" y="1237" type="curve" smooth="yes"/>
      <point x="137" y="135" type="line"/>
      <point x="131" y="111"/>
      <point x="113" y="98"/>
      <point x="86" y="96" type="curve" smooth="yes"/>
      <point x="-31" y="86" type="line"/>
      <point x="-31" y="0" type="line"/>
      <point x="502" y="0" type="line"/>
      <point x="502" y="86" type="line"/>
      <point x="383" y="96" type="line" smooth="yes"/>
      <point x="348" y="98"/>
      <point x="340" y="115"/>
      <point x="344" y="135" type="curve" smooth="yes"/>
      <point x="446" y="668" type="line"/>
      <point x="1085" y="668" type="line"/>
      <point x="1014" y="300" type="line"/>
      <point x="966" y="66"/>
      <point x="1085" y="-25"/>
    </contour>
  </outline>
</glyph>
<glyph name="LtnSmDCurl" format="2">
  <advance width="1178"/>
  <unicode hex="0221"/>
  <anchor x="510" y="-320" name="L"/>
  <anchor x="868" y="1540" name="U"/>
  <outline>
    <contour>
      <point x="387" y="-231" type="line"/>
      <point x="459" y="-102"/>
      <point x="563" y="49"/>
      <point x="666" y="135" type="curve"/>
      <point x="666" y="14"/>
      <point x="737" y="-25"/>
      <point x="864" y="-25" type="curve" smooth="yes"/>
      <point x="1030" y="-25"/>
      <point x="1210" y="76"/>
      <point x="1210" y="260" type="curve" smooth="yes"/>
      <point x="1210" y="330"/>
      <point x="1161" y="408"/>
      <point x="1069" y="408" type="curve" smooth="yes"/>
      <point x="1001" y="408"/>
      <point x="946" y="391"/>
      <point x="883" y="371" type="curve"/>
      <point x="1083" y="1509" type="line"/>
      <point x="999" y="1509" type="line"/>
      <point x="682" y="1448" type="line"/>
      <point x="682" y="1386" type="line"/>
      <point x="868" y="1368" type="line"/>
      <point x="799" y="975" type="line"/>
      <point x="764" y="987"/>
      <point x="707" y="1012"/>
      <point x="645" y="1012" type="curve" smooth="yes"/>
      <point x="283" y="1012"/>
      <point x="66" y="668"/>
      <point x="66" y="342" type="curve" smooth="yes"/>
      <point x="66" y="170"/>
      <point x="129" y="-25"/>
      <point x="358" y="-25" type="curve" smooth="yes"/>
      <point x="365" y="-25"/>
      <point x="391" y="-25"/>
      <point x="414" y="-18" type="curve"/>
      <point x="371" y="-78"/>
      <point x="332" y="-141"/>
      <point x="301" y="-203" type="curve"/>
    </contour>
    <contour>
      <point x="424" y="100" type="curve" smooth="yes"/>
      <point x="344" y="100"/>
      <point x="264" y="178"/>
      <point x="264" y="354" type="curve" smooth="yes"/>
      <point x="264" y="674"/>
      <point x="442" y="920"/>
      <point x="641" y="920" type="curve" smooth="yes"/>
      <point x="695" y="920"/>
      <point x="768" y="810"/>
      <point x="768" y="795" type="curve"/>
      <point x="674" y="266" type="line"/>
      <point x="600" y="180"/>
      <point x="498" y="100"/>
    </contour>
    <contour>
      <point x="934" y="76" type="curve" smooth="yes"/>
      <point x="899" y="76"/>
      <point x="854" y="106"/>
      <point x="854" y="176" type="curve" smooth="yes"/>
      <point x="854" y="184"/>
      <point x="858" y="217"/>
      <point x="866" y="266" type="curve"/>
      <point x="922" y="291"/>
      <point x="969" y="324"/>
      <point x="1028" y="324" type="curve" smooth="yes"/>
      <point x="1083" y="324"/>
      <point x="1110" y="287"/>
      <point x="1110" y="242" type="curve" smooth="yes"/>
      <point x="1110" y="152"/>
      <point x="1022" y="76"/>
    </contour>
  </outline>
</glyph>
<glyph name="LtnCapAStrk" format="2">
  <advance width="1378"/>
  <unicode hex="023A"/>
  <anchor x="1012" y="0" name="H"/>
  <anchor x="559" y="-100" name="L"/>
  <anchor x="1175" y="0" name="O"/>
  <anchor x="847" y="1500" name="U"/>
  <outline>
    <component base="LtnCapA"/>
    <contour>
      <point x="125" y="-98" type="line"/>
      <point x="213" y="-164" type="line"/>
      <point x="1287" y="1470" type="line"/>
      <point x="1182" y="1534" type="line"/>
    </contour>
  </outline>
</glyph>
<glyph name="LtnCapGlottalStop" format="2">
  <advance width="965"/>
  <unicode hex="0241"/>
  <anchor x="388" y="-35" name="L"/>
  <anchor x="687" y="1435" name="U"/>
  <outline>
    <contour>
      <point x="989" y="1096" type="curve" smooth="yes"/>
      <point x="989" y="1280"/>
      <point x="836" y="1407"/>
      <point x="621" y="1407" type="curve" smooth="yes"/>
      <point x="449" y="1407"/>
      <point x="201" y="1304"/>
      <point x="201" y="1140" type="curve" smooth="yes"/>
      <point x="201" y="1093"/>
      <point x="232" y="1049"/>
      <point x="283" y="1049" type="curve" smooth="yes"/>
      <point x="325" y="1049"/>
      <point x="376" y="1062"/>
      <point x="408" y="1079" type="curve"/>
      <point x="477" y="1268" type="line"/>
      <point x="520" y="1294"/>
      <point x="563" y="1305"/>
      <point x="604" y="1305" type="curve" smooth="yes"/>
      <point x="700" y="1305"/>
      <point x="774" y="1231"/>
      <point x="774" y="1098" type="curve" smooth="yes"/>
      <point x="774" y="868"/>
      <point x="578" y="733"/>
      <point x="377" y="670" type="curve"/>
      <point x="270" y="137" type="line" smooth="yes"/>
      <point x="266" y="119"/>
      <point x="236" y="97"/>
      <point x="217" y="96" type="curve" smooth="yes"/>
      <point x="94" y="88" type="line"/>
      <point x="94" y="0" type="line"/>
      <point x="643" y="0" type="line"/>
      <point x="643" y="88" type="line"/>
      <point x="514" y="96" type="line" smooth="yes"/>
      <point x="498" y="97"/>
      <point x="473" y="119"/>
      <point x="477" y="137" type="curve" smooth="yes"/>
      <point x="578" y="637" type="line"/>
      <point x="786" y="725"/>
      <point x="989" y="834"/>
    </contour>
  </outline>
</glyph>
<glyph name="LtnCapUBar" format="2">
  <advance width="1448"/>
  <unicode hex="0244"/>
  <anchor x="617" y="-100" name="L"/>
  <anchor x="905" y="1500" name="U"/>
  <outline>
    <contour>
      <point x="637" y="-33" type="curve" smooth="yes"/>
      <point x="963" y="-33"/>
      <point x="1151" y="141"/>
      <point x="1208" y="438" type="curve" smooth="yes"/>
      <point x="1253" y="662" type="line"/>
      <point x="1430" y="662" type="line"/>
      <point x="1454" y="776" type="line"/>
      <point x="1276" y="776" type="line"/>
      <point x="1366" y="1237" type="line" smooth="yes"/>
      <point x="1370" y="1264"/>
      <point x="1391" y="1276"/>
      <point x="1415" y="1278" type="curve" smooth="yes"/>
      <point x="1534" y="1288" type="line"/>
      <point x="1534" y="1374" type="line"/>
      <point x="1071" y="1374" type="line"/>
      <point x="1071" y="1288" type="line"/>
      <point x="1186" y="1278" type="line" smooth="yes"/>
      <point x="1223" y="1276"/>
      <point x="1231" y="1260"/>
      <point x="1227" y="1237" type="curve" smooth="yes"/>
      <point x="1135" y="776" type="line"/>
      <point x="471" y="776" type="line"/>
      <point x="565" y="1237" type="line"/>
      <point x="569" y="1264"/>
      <point x="590" y="1276"/>
      <point x="614" y="1278" type="curve" smooth="yes"/>
      <point x="735" y="1288" type="line"/>
      <point x="735" y="1374" type="line"/>
      <point x="203" y="1374" type="line"/>
      <point x="203" y="1288" type="line"/>
      <point x="317" y="1278" type="line" smooth="yes"/>
      <point x="354" y="1276"/>
      <point x="362" y="1260"/>
      <point x="358" y="1237" type="curve" smooth="yes"/>
      <point x="264" y="776" type="line"/>
      <point x="78" y="776" type="line"/>
      <point x="53" y="662" type="line"/>
      <point x="242" y="662" type="line"/>
      <point x="215" y="541" type="line"/>
      <point x="197" y="446"/>
      <point x="188" y="367"/>
      <point x="188" y="326" type="curve" smooth="yes"/>
      <point x="188" y="66"/>
      <point x="385" y="-33"/>
    </contour>
    <contour>
      <point x="690" y="100" type="curve" smooth="yes"/>
      <point x="514" y="100"/>
      <point x="401" y="186"/>
      <point x="401" y="358" type="curve" smooth="yes"/>
      <point x="401" y="395"/>
      <point x="408" y="461"/>
      <point x="424" y="541" type="curve" smooth="yes"/>
      <point x="449" y="662" type="line"/>
      <point x="1112" y="662" type="line"/>
      <point x="1083" y="510" type="line" smooth="yes"/>
      <point x="1040" y="291"/>
      <point x="956" y="100"/>
    </contour>
  </outline>
</glyph>
<glyph name="LtnCapEStrk" format="2">
  <advance width="1143"/>
  <unicode hex="0246"/>
  <anchor x="469" y="-100" name="L"/>
  <anchor x="757" y="1500" name="U"/>
  <outline>
    <component base="LtnCapE"/>
    <contour>
      <point x="5" y="-98" type="line"/>
      <point x="93" y="-164" type="line"/>
      <point x="1167" y="1470" type="line"/>
      <point x="1062" y="1534" type="line"/>
    </contour>
  </outline>
</glyph>
<glyph name="LtnCapJStrk" format="2">
  <advance width="958"/>
  <unicode hex="0248"/>
  <anchor x="284" y="-100" name="L"/>
  <anchor x="546" y="54" name="O"/>
  <anchor x="831" y="1500" name="U"/>
  <outline>
    <contour>
      <point x="229" y="-25" type="curve" smooth="yes"/>
      <point x="580" y="-25"/>
      <point x="678" y="186"/>
      <point x="739" y="524" type="curve" smooth="yes"/>
      <point x="766" y="668" type="line"/>
      <point x="1001" y="668" type="line"/>
      <point x="1001" y="776" type="line"/>
      <point x="786" y="776" type="line"/>
      <point x="870" y="1237" type="line"/>
      <point x="877" y="1264"/>
      <point x="895" y="1276"/>
      <point x="922" y="1278" type="curve" smooth="yes"/>
      <point x="1038" y="1288" type="line"/>
      <point x="1038" y="1374" type="line"/>
      <point x="506" y="1374" type="line"/>
      <point x="506" y="1288" type="line"/>
      <point x="625" y="1278" type="line" smooth="yes"/>
      <point x="659" y="1276"/>
      <point x="668" y="1260"/>
      <point x="664" y="1237" type="curve" smooth="yes"/>
      <point x="580" y="776" type="line"/>
      <point x="330" y="776" type="line"/>
      <point x="330" y="668" type="line"/>
      <point x="559" y="668" type="line"/>
      <point x="528" y="506" type="line" smooth="yes"/>
      <point x="477" y="231"/>
      <point x="418" y="82"/>
      <point x="244" y="82" type="curve" smooth="yes"/>
      <point x="201" y="82"/>
      <point x="162" y="94"/>
      <point x="162" y="129" type="curve" smooth="yes"/>
      <point x="162" y="379" type="line"/>
      <point x="27" y="379" type="line"/>
      <point x="-41" y="29" type="line"/>
      <point x="-20" y="18"/>
      <point x="68" y="-25"/>
    </contour>
  </outline>
</glyph>
<glyph name="LtnSmQHookTail" format="2">
  <advance width="1069"/>
  <unicode hex="024B"/>
  <anchor x="292" y="-100" name="L"/>
  <anchor x="802" y="1100" name="U"/>
  <outline>
    <contour>
      <point x="905" y="-469" type="curve" smooth="yes"/>
      <point x="995" y="-469"/>
      <point x="1104" y="-428"/>
      <point x="1104" y="-324" type="curve" smooth="yes"/>
      <point x="1104" y="-281"/>
      <point x="1071" y="-244"/>
      <point x="1030" y="-236" type="curve"/>
      <point x="836" y="-356" type="line"/>
      <point x="786" y="-338"/>
      <point x="762" y="-309"/>
      <point x="762" y="-256" type="curve" smooth="yes"/>
      <point x="762" y="-197"/>
      <point x="780" y="-133"/>
      <point x="791" y="-76" type="curve" smooth="yes"/>
      <point x="1006" y="1012" type="line"/>
      <point x="883" y="1012" type="line"/>
      <point x="834" y="952" type="line"/>
      <point x="797" y="981"/>
      <point x="727" y="1012"/>
      <point x="641" y="1012" type="curve" smooth="yes"/>
      <point x="299" y="1012"/>
      <point x="66" y="662"/>
      <point x="66" y="346" type="curve" smooth="yes"/>
      <point x="66" y="102"/>
      <point x="184" y="-25"/>
      <point x="348" y="-25" type="curve" smooth="yes"/>
      <point x="444" y="-25"/>
      <point x="545" y="31"/>
      <point x="639" y="109" type="curve"/>
      <point x="615" y="8"/>
      <point x="584" y="-150"/>
      <point x="584" y="-213" type="curve" smooth="yes"/>
      <point x="584" y="-412"/>
      <point x="727" y="-469"/>
    </contour>
    <contour>
      <point x="430" y="100" type="curve" smooth="yes"/>
      <point x="328" y="100"/>
      <point x="264" y="199"/>
      <point x="264" y="354" type="curve" smooth="yes"/>
      <point x="264" y="674"/>
      <point x="444" y="918"/>
      <point x="668" y="918" type="curve" smooth="yes"/>
      <point x="698" y="918"/>
      <point x="778" y="825"/>
      <point x="772" y="795" type="curve"/>
      <point x="662" y="231" type="line"/>
      <point x="590" y="168"/>
      <point x="514" y="100"/>
    </contour>
  </outline>
</glyph>
<glyph name="LtnSmBHook" format="2">
  <advance width="1008"/>
  <unicode hex="0253"/>
  <anchor x="396" y="-100" name="L"/>
  <anchor x="712" y="1540" name="U"/>
  <outline>
    <contour>
      <point x="365" y="-25" type="curve" smooth="yes"/>
      <point x="780" y="-25"/>
      <point x="942" y="381"/>
      <point x="942" y="635" type="curve" smooth="yes"/>
      <point x="942" y="805"/>
      <point x="870" y="1012"/>
      <point x="659" y="1012" type="curve" smooth="yes"/>
      <point x="561" y="1012"/>
      <point x="455" y="956"/>
      <point x="379" y="889" type="curve"/>
      <point x="380" y="889"/>
      <point x="405" y="1030"/>
      <point x="422" y="1100" type="curve" smooth="yes"/>
      <point x="466" y="1286"/>
      <point x="556" y="1395"/>
      <point x="676" y="1397" type="curve"/>
      <point x="772" y="1266" type="line"/>
      <point x="772" y="1266"/>
      <point x="912" y="1297"/>
      <point x="912" y="1407" type="curve" smooth="yes"/>
      <point x="912" y="1459"/>
      <point x="869" y="1509"/>
      <point x="758" y="1509" type="curve" smooth="yes"/>
      <point x="598" y="1509"/>
      <point x="434" y="1452"/>
      <point x="319" y="1288" type="curve" smooth="yes"/>
      <point x="269" y="1216"/>
      <point x="233" y="1134"/>
      <point x="212" y="1012" type="curve" smooth="yes"/>
      <point x="189" y="881"/>
      <point x="67" y="230"/>
      <point x="37" y="70" type="curve"/>
      <point x="133" y="8"/>
      <point x="250" y="-25"/>
    </contour>
    <contour>
      <point x="410" y="72" type="curve" smooth="yes"/>
      <point x="336" y="72"/>
      <point x="266" y="111"/>
      <point x="240" y="152" type="curve"/>
      <point x="358" y="772" type="line"/>
      <point x="426" y="831"/>
      <point x="526" y="877"/>
      <point x="592" y="877" type="curve" smooth="yes"/>
      <point x="641" y="877"/>
      <point x="739" y="811"/>
      <point x="739" y="627" type="curve" smooth="yes"/>
      <point x="739" y="381"/>
      <point x="598" y="72"/>
    </contour>
  </outline>
</glyph>
<glyph name="LtnSmOpnO" format="2">
  <advance width="891"/>
  <unicode hex="0254"/>
  <anchor x="329" y="0" name="H"/>
  <anchor x="309" y="-100" name="L"/>
  <anchor x="378" y="0" name="O"/>
  <anchor x="891" y="1000" name="R"/>
  <anchor x="553" y="1100" name="U"/>
  <outline>
    <contour>
      <point x="825" y="631" type="curve" smooth="yes"/>
      <point x="825" y="874"/>
      <point x="705" y="1012"/>
      <point x="510" y="1012" type="curve" smooth="yes"/>
      <point x="328" y="1012"/>
      <point x="193" y="893"/>
      <point x="109" y="811" type="curve"/>
      <point x="109" y="682" type="line"/>
      <point x="225" y="797"/>
      <point x="340" y="879"/>
      <point x="449" y="879" type="curve" smooth="yes"/>
      <point x="584" y="879"/>
      <point x="631" y="739"/>
      <point x="631" y="606" type="curve" smooth="yes"/>
      <point x="631" y="440"/>
      <point x="561" y="104"/>
      <point x="342" y="94" type="curve"/>
      <point x="223" y="252" type="line"/>
      <point x="92" y="236"/>
      <point x="66" y="172"/>
      <point x="66" y="119" type="curve" smooth="yes"/>
      <point x="66" y="57"/>
      <point x="127" y="-25"/>
      <point x="274" y="-25" type="curve" smooth="yes"/>
      <point x="553" y="-25"/>
      <point x="825" y="264"/>
    </contour>
  </outline>
</glyph>
<glyph name="LtnSmDTail" format="2">
  <advance width="1077"/>
  <unicode hex="0256"/>
  <anchor x="342" y="-100" name="L"/>
  <anchor x="1077" y="1000" name="R"/>
  <anchor x="773" y="1540" name="U"/>
  <outline>
    <contour>
      <point x="1126" y="-346" type="curve" smooth="yes"/>
      <point x="1126" y="-274"/>
      <point x="1084" y="-241"/>
      <point x="1053" y="-236" type="curve"/>
      <point x="866" y="-356" type="line"/>
      <point x="811" y="-332"/>
      <point x="788" y="-293"/>
      <point x="788" y="-217" type="curve" smooth="yes"/>
      <point x="788" y="-172"/>
      <point x="800" y="-92"/>
      <point x="813" y="-18" type="curve" smooth="yes"/>
      <point x="1083" y="1509" type="line"/>
      <point x="999" y="1509" type="line"/>
      <point x="682" y="1448" type="line"/>
      <point x="682" y="1386" type="line"/>
      <point x="868" y="1368" type="line"/>
      <point x="799" y="973" type="line"/>
      <point x="764" y="988"/>
      <point x="707" y="1012"/>
      <point x="645" y="1012" type="curve" smooth="yes"/>
      <point x="283" y="1012"/>
      <point x="66" y="668"/>
      <point x="66" y="342" type="curve" smooth="yes"/>
      <point x="66" y="170"/>
      <point x="129" y="-25"/>
      <point x="358" y="-25" type="curve" smooth="yes"/>
      <point x="473" y="-25"/>
      <point x="578" y="53"/>
      <point x="649" y="129" type="curve"/>
      <point x="631" y="40"/>
      <point x="608" y="-95"/>
      <point x="608" y="-141" type="curve" smooth="yes"/>
      <point x="608" y="-328"/>
      <point x="715" y="-469"/>
      <point x="926" y="-469" type="curve" smooth="yes"/>
      <point x="1051" y="-469"/>
      <point x="1126" y="-406"/>
    </contour>
    <contour>
      <point x="770" y="807" type="curve"/>
      <point x="676" y="268" type="line"/>
      <point x="602" y="182"/>
      <point x="498" y="100"/>
      <point x="424" y="100" type="curve" smooth="yes"/>
      <point x="344" y="100"/>
      <point x="264" y="178"/>
      <point x="264" y="354" type="curve" smooth="yes"/>
      <point x="264" y="674"/>
      <point x="442" y="920"/>
      <point x="641" y="920" type="curve" smooth="yes"/>
      <point x="694" y="920"/>
      <point x="772" y="819"/>
    </contour>
  </outline>
</glyph>
<glyph name="LtnSmDHook" format="2">
  <advance width="1112"/>
  <unicode hex="0257"/>
  <anchor x="447" y="-100" name="L"/>
  <anchor x="763" y="1540" name="U"/>
  <outline>
    <contour>
      <point x="1456" y="1401" type="curve" smooth="yes"/>
      <point x="1456" y="1458"/>
      <point x="1434" y="1524"/>
      <point x="1305" y="1524" type="curve" smooth="yes"/>
      <point x="1184" y="1524"/>
      <point x="1004" y="1483"/>
      <point x="889" y="1319" type="curve"/>
      <point x="852" y="1270"/>
      <point x="825" y="1133"/>
      <point x="805" y="1010" type="curve" smooth="yes"/>
      <point x="799" y="975" type="line"/>
      <point x="764" y="987"/>
      <point x="707" y="1012"/>
      <point x="645" y="1012" type="curve" smooth="yes"/>
      <point x="283" y="1012"/>
      <point x="66" y="668"/>
      <point x="66" y="342" type="curve" smooth="yes"/>
      <point x="66" y="170"/>
      <point x="129" y="-25"/>
      <point x="358" y="-25" type="curve" smooth="yes"/>
      <point x="473" y="-25"/>
      <point x="580" y="53"/>
      <point x="651" y="129" type="curve"/>
      <point x="651" y="39"/>
      <point x="678" y="-25"/>
      <point x="803" y="-25" type="curve" smooth="yes"/>
      <point x="887" y="-25"/>
      <point x="1038" y="33"/>
      <point x="1071" y="45" type="curve"/>
      <point x="1071" y="121" type="line"/>
      <point x="1053" y="117"/>
      <point x="944" y="82"/>
      <point x="924" y="82" type="curve" smooth="yes"/>
      <point x="905" y="82"/>
      <point x="836" y="100"/>
      <point x="850" y="176" type="curve" smooth="yes"/>
      <point x="995" y="1012" type="line" smooth="yes"/>
      <point x="1022" y="1163"/>
      <point x="1044" y="1356"/>
      <point x="1186" y="1409" type="curve"/>
      <point x="1346" y="1288" type="line"/>
      <point x="1346" y="1288"/>
      <point x="1456" y="1307"/>
    </contour>
    <contour>
      <point x="766" y="793" type="curve"/>
      <point x="676" y="268" type="line"/>
      <point x="600" y="182"/>
      <point x="498" y="100"/>
      <point x="424" y="100" type="curve" smooth="yes"/>
      <point x="344" y="100"/>
      <point x="264" y="178"/>
      <point x="264" y="354" type="curve" smooth="yes"/>
      <point x="264" y="674"/>
      <point x="442" y="920"/>
      <point x="641" y="920" type="curve" smooth="yes"/>
      <point x="694" y="920"/>
      <point x="770" y="811"/>
    </contour>
  </outline>
</glyph>
<glyph name="LtnSmRevE" format="2">
  <advance width="1022"/>
  <unicode hex="0258"/>
  <anchor x="387" y="-100" name="L"/>
  <anchor x="1022" y="1000" name="R"/>
  <anchor x="631" y="1100" name="U"/>
  <outline>
    <contour>
      <point x="956" y="614" type="curve" smooth="yes"/>
      <point x="956" y="840"/>
      <point x="821" y="1012"/>
      <point x="588" y="1012" type="curve" smooth="yes"/>
      <point x="322" y="1012"/>
      <point x="102" y="881"/>
      <point x="102" y="614" type="curve" smooth="yes"/>
      <point x="102" y="489"/>
      <point x="223" y="432"/>
      <point x="332" y="434" type="curve" smooth="yes"/>
      <point x="485" y="436"/>
      <point x="543" y="461"/>
      <point x="741" y="575" type="curve"/>
      <point x="711" y="379"/>
      <point x="608" y="86"/>
      <point x="383" y="86" type="curve" smooth="yes"/>
      <point x="248" y="86"/>
      <point x="117" y="158"/>
      <point x="37" y="266" type="curve"/>
      <point x="12" y="141" type="line"/>
      <point x="92" y="23"/>
      <point x="217" y="-25"/>
      <point x="354" y="-25" type="curve" smooth="yes"/>
      <point x="696" y="-25"/>
      <point x="956" y="285"/>
    </contour>
    <contour>
      <point x="745" y="678" type="curve"/>
      <point x="604" y="594"/>
      <point x="514" y="559"/>
      <point x="418" y="559" type="curve" smooth="yes"/>
      <point x="387" y="559"/>
      <point x="301" y="582"/>
      <point x="301" y="657" type="curve" smooth="yes"/>
      <point x="301" y="801"/>
      <point x="420" y="920"/>
      <point x="561" y="920" type="curve" smooth="yes"/>
      <point x="694" y="920"/>
      <point x="737" y="774"/>
    </contour>
  </outline>
</glyph>
<glyph name="LtnSmSchwaHook" format="2">
  <advance width="1108"/>
  <unicode hex="025A"/>
  <anchor x="331" y="0" name="H"/>
  <anchor x="335" y="-100" name="L"/>
  <anchor x="450" y="0" name="O"/>
  <anchor x="557" y="1100" name="U"/>
  <outline>
    <contour>
      <point x="1229" y="741" type="curve"/>
      <point x="1165" y="786" type="line"/>
      <point x="1151" y="754"/>
      <point x="1145" y="739"/>
      <point x="1139" y="725" type="curve" smooth="yes"/>
      <point x="1116" y="676"/>
      <point x="1094" y="621"/>
      <point x="1034" y="621" type="curve" smooth="yes"/>
      <point x="973" y="621"/>
      <point x="981" y="686"/>
      <point x="993" y="748" type="curve" smooth="yes"/>
      <point x="1024" y="907" type="line"/>
      <point x="969" y="944" type="line"/>
      <point x="922" y="918"/>
      <point x="848" y="879"/>
      <point x="750" y="821" type="curve"/>
      <point x="674" y="975"/>
      <point x="528" y="1012"/>
      <point x="471" y="1012" type="curve" smooth="yes"/>
      <point x="295" y="1012"/>
      <point x="164" y="895"/>
      <point x="84" y="815" type="curve"/>
      <point x="84" y="686" type="line"/>
      <point x="231" y="819"/>
      <point x="319" y="889"/>
      <point x="408" y="889" type="curve" smooth="yes"/>
      <point x="483" y="889"/>
      <point x="545" y="825"/>
      <point x="575" y="729" type="curve"/>
      <point x="285" y="582"/>
      <point x="37" y="352"/>
      <point x="37" y="188" type="curve" smooth="yes"/>
      <point x="37" y="88"/>
      <point x="88" y="-25"/>
      <point x="268" y="-25" type="curve" smooth="yes"/>
      <point x="584" y="-25"/>
      <point x="788" y="297"/>
      <point x="788" y="618" type="curve" smooth="yes"/>
      <point x="788" y="666"/>
      <point x="782" y="707"/>
      <point x="774" y="750" type="curve"/>
      <point x="831" y="782"/>
      <point x="881" y="809"/>
      <point x="924" y="834" type="curve"/>
      <point x="920" y="821"/>
      <point x="895" y="750"/>
      <point x="895" y="682" type="curve" smooth="yes"/>
      <point x="895" y="612"/>
      <point x="920" y="549"/>
      <point x="1012" y="549" type="curve" smooth="yes"/>
      <point x="1149" y="549"/>
      <point x="1198" y="666"/>
    </contour>
    <contour>
      <point x="590" y="647" type="curve"/>
      <point x="596" y="487"/>
      <point x="530" y="72"/>
      <point x="311" y="72" type="curve" smooth="yes"/>
      <point x="246" y="72"/>
      <point x="213" y="141"/>
      <point x="213" y="197" type="curve" smooth="yes"/>
      <point x="213" y="362"/>
      <point x="383" y="537"/>
    </contour>
  </outline>
</glyph>
<glyph name="LtnSmRevOpnEHook" format="2">
  <advance width="1085"/>
  <unicode hex="025D"/>
  <anchor x="304" y="-100" name="L"/>
  <anchor x="548" y="1100" name="U"/>
  <outline>
    <contour>
      <point x="291" y="-25" type="curve" smooth="yes"/>
      <point x="516" y="-25"/>
      <point x="766" y="57"/>
      <point x="766" y="311" type="curve" smooth="yes"/>
      <point x="766" y="418"/>
      <point x="694" y="479"/>
      <point x="553" y="500" type="curve"/>
      <point x="680" y="545"/>
      <point x="829" y="655"/>
      <point x="811" y="811" type="curve"/>
      <point x="940" y="889" type="line"/>
      <point x="931" y="843"/>
      <point x="922" y="798"/>
      <point x="913" y="752" type="curve" smooth="yes"/>
      <point x="899" y="676"/>
      <point x="940" y="594"/>
      <point x="1022" y="594" type="curve" smooth="yes"/>
      <point x="1151" y="594"/>
      <point x="1204" y="713"/>
      <point x="1235" y="791" type="curve"/>
      <point x="1184" y="829" type="line"/>
      <point x="1153" y="762"/>
      <point x="1120" y="674"/>
      <point x="1047" y="674" type="curve" smooth="yes"/>
      <point x="991" y="674"/>
      <point x="983" y="731"/>
      <point x="995" y="797" type="curve" smooth="yes"/>
      <point x="1026" y="958" type="line"/>
      <point x="975" y="991" type="line"/>
      <point x="788" y="879" type="line"/>
      <point x="745" y="958"/>
      <point x="643" y="1012"/>
      <point x="508" y="1012" type="curve" smooth="yes"/>
      <point x="358" y="1012"/>
      <point x="121" y="961"/>
      <point x="121" y="782" type="curve" smooth="yes"/>
      <point x="121" y="731"/>
      <point x="170" y="688"/>
      <point x="213" y="688" type="curve" smooth="yes"/>
      <point x="279" y="688"/>
      <point x="319" y="723"/>
      <point x="326" y="731" type="curve"/>
      <point x="342" y="879" type="line"/>
      <point x="346" y="883"/>
      <point x="385" y="934"/>
      <point x="463" y="934" type="curve" smooth="yes"/>
      <point x="545" y="934"/>
      <point x="614" y="879"/>
      <point x="614" y="784" type="curve" smooth="yes"/>
      <point x="614" y="606"/>
      <point x="473" y="528"/>
      <point x="344" y="524" type="curve"/>
      <point x="344" y="444" type="line"/>
      <point x="395" y="444" type="line" smooth="yes"/>
      <point x="471" y="444"/>
      <point x="563" y="432"/>
      <point x="563" y="319" type="curve" smooth="yes"/>
      <point x="563" y="156"/>
      <point x="442" y="70"/>
      <point x="311" y="70" type="curve" smooth="yes"/>
      <point x="201" y="70"/>
      <point x="106" y="125"/>
      <point x="0" y="246" type="curve"/>
      <point x="0" y="115" type="line"/>
      <point x="82" y="25"/>
      <point x="168" y="-25"/>
    </contour>
  </outline>
</glyph>
<glyph name="LtnSmCapG" format="2">
  <advance width="1075"/>
  <unicode hex="0262"/>
  <anchor x="465" y="-100" name="L"/>
  <anchor x="1075" y="1000" name="R"/>
  <anchor x="709" y="1100" name="U"/>
  <outline>
    <contour>
      <point x="1081" y="410" type="line"/>
      <point x="1081" y="487" type="line"/>
      <point x="659" y="487" type="line"/>
      <point x="659" y="410" type="line"/>
      <point x="689" y="407"/>
      <point x="718" y="404"/>
      <point x="748" y="401" type="curve" smooth="yes"/>
      <point x="772" y="399"/>
      <point x="772" y="391"/>
      <point x="770" y="383" type="curve" smooth="yes"/>
      <point x="713" y="94" type="line"/>
      <point x="665" y="83"/>
      <point x="614" y="72"/>
      <point x="563" y="72" type="curve" smooth="yes"/>
      <point x="451" y="72"/>
      <point x="268" y="147"/>
      <point x="268" y="375" type="curve" smooth="yes"/>
      <point x="268" y="702"/>
      <point x="512" y="913"/>
      <point x="748" y="913" type="curve" smooth="yes"/>
      <point x="797" y="913"/>
      <point x="833" y="903"/>
      <point x="879" y="885" type="curve" smooth="yes"/>
      <point x="894" y="879"/>
      <point x="903" y="870"/>
      <point x="903" y="854" type="curve"/>
      <point x="897" y="711" type="line"/>
      <point x="1024" y="711" type="line"/>
      <point x="1077" y="958" type="line"/>
      <point x="944" y="995"/>
      <point x="872" y="1012"/>
      <point x="768" y="1012" type="curve" smooth="yes"/>
      <point x="418" y="1012"/>
      <point x="66" y="774"/>
      <point x="66" y="395" type="curve" smooth="yes"/>
      <point x="66" y="231"/>
      <point x="158" y="-25"/>
      <point x="530" y="-25" type="curve" smooth="yes"/>
      <point x="647" y="-25"/>
      <point x="772" y="6"/>
      <point x="887" y="35" type="curve"/>
      <point x="961" y="381" type="line" smooth="yes"/>
      <point x="964" y="393"/>
      <point x="973" y="399"/>
      <point x="991" y="401" type="curve" smooth="yes"/>
    </contour>
  </outline>
</glyph>
<glyph name="LtnSmLezh" format="2">
  <advance width="1167"/>
  <unicode hex="026E"/>
  <anchor x="344" y="-500" name="L"/>
  <anchor x="811" y="1580" name="U"/>
  <outline>
    <contour>
      <point x="1229" y="926" type="line"/>
      <point x="1098" y="1024" type="line"/>
      <point x="1030" y="932" type="line"/>
      <point x="1004" y="925"/>
      <point x="973" y="920"/>
      <point x="946" y="920" type="curve" smooth="yes"/>
      <point x="811" y="920"/>
      <point x="688" y="999"/>
      <point x="549" y="999" type="curve" smooth="yes"/>
      <point x="506" y="999"/>
      <point x="463" y="989"/>
      <point x="426" y="969" type="curve"/>
      <point x="528" y="1509" type="line"/>
      <point x="449" y="1509" type="line"/>
      <point x="129" y="1448" type="line"/>
      <point x="129" y="1386" type="line"/>
      <point x="311" y="1368" type="line"/>
      <point x="86" y="197" type="line" smooth="yes"/>
      <point x="81" y="170"/>
      <point x="80" y="145"/>
      <point x="80" y="125" type="curve" smooth="yes"/>
      <point x="80" y="37"/>
      <point x="129" y="-25"/>
      <point x="254" y="-25" type="curve" smooth="yes"/>
      <point x="350" y="-25"/>
      <point x="506" y="39"/>
      <point x="539" y="53" type="curve"/>
      <point x="539" y="131" type="line"/>
      <point x="516" y="123"/>
      <point x="414" y="90"/>
      <point x="375" y="90" type="curve" smooth="yes"/>
      <point x="319" y="90"/>
      <point x="277" y="133"/>
      <point x="277" y="185" type="curve" smooth="yes"/>
      <point x="277" y="191"/>
      <point x="278" y="197"/>
      <point x="279" y="203" type="curve" smooth="yes"/>
      <point x="393" y="803" type="line"/>
      <point x="418" y="827"/>
      <point x="457" y="846"/>
      <point x="489" y="846" type="curve" smooth="yes"/>
      <point x="569" y="846"/>
      <point x="641" y="799"/>
      <point x="717" y="799" type="curve" smooth="yes"/>
      <point x="767" y="799"/>
      <point x="879" y="810"/>
      <point x="950" y="819" type="curve"/>
      <point x="369" y="299" type="line"/>
      <point x="481" y="205" type="line"/>
      <point x="557" y="305" type="line"/>
      <point x="694" y="297"/>
      <point x="831" y="168"/>
      <point x="831" y="23" type="curve" smooth="yes"/>
      <point x="831" y="-166"/>
      <point x="643" y="-362"/>
      <point x="446" y="-362" type="curve" smooth="yes"/>
      <point x="391" y="-362"/>
      <point x="334" y="-354"/>
      <point x="295" y="-289" type="curve"/>
      <point x="276" y="-106" type="line"/>
      <point x="252" y="-96"/>
      <point x="215" y="-84"/>
      <point x="190" y="-84" type="curve" smooth="yes"/>
      <point x="113" y="-84"/>
      <point x="39" y="-152"/>
      <point x="39" y="-231" type="curve" smooth="yes"/>
      <point x="39" y="-391"/>
      <point x="231" y="-469"/>
      <point x="424" y="-469" type="curve" smooth="yes"/>
      <point x="700" y="-469"/>
      <point x="1040" y="-283"/>
      <point x="1040" y="23" type="curve" smooth="yes"/>
      <point x="1040" y="256"/>
      <point x="864" y="381"/>
      <point x="651" y="391" type="curve"/>
    </contour>
  </outline>
</glyph>
<glyph name="LtnSmTurnedM" format="2">
  <advance width="1589"/>
  <unicode hex="026F"/>
  <anchor x="628" y="-100" name="L"/>
  <anchor x="1589" y="1000" name="R"/>
  <anchor x="872" y="1100" name="U"/>
  <outline>
    <contour>
      <point x="1524" y="987" type="line"/>
      <point x="1333" y="987" type="line"/>
      <point x="1192" y="299" type="line"/>
      <point x="1151" y="248"/>
      <point x="1018" y="119"/>
      <point x="924" y="119" type="curve" smooth="yes"/>
      <point x="836" y="119"/>
      <point x="819" y="231"/>
      <point x="838" y="319" type="curve" smooth="yes"/>
      <point x="975" y="987" type="line"/>
      <point x="784" y="987" type="line"/>
      <point x="641" y="295" type="line"/>
      <point x="610" y="248"/>
      <point x="492" y="119"/>
      <point x="365" y="119" type="curve" smooth="yes"/>
      <point x="311" y="119"/>
      <point x="260" y="184"/>
      <point x="289" y="322" type="curve" smooth="yes"/>
      <point x="399" y="868" type="line" smooth="yes"/>
      <point x="420" y="963"/>
      <point x="346" y="1012"/>
      <point x="233" y="1012" type="curve" smooth="yes"/>
      <point x="156" y="1012"/>
      <point x="47" y="963"/>
      <point x="-25" y="934" type="curve"/>
      <point x="-25" y="864" type="line"/>
      <point x="29" y="879"/>
      <point x="74" y="899"/>
      <point x="104" y="899" type="curve" smooth="yes"/>
      <point x="158" y="899"/>
      <point x="207" y="854"/>
      <point x="193" y="788" type="curve" smooth="yes"/>
      <point x="80" y="236" type="line" smooth="yes"/>
      <point x="47" y="78"/>
      <point x="119" y="-25"/>
      <point x="256" y="-25" type="curve" smooth="yes"/>
      <point x="381" y="-25"/>
      <point x="530" y="66"/>
      <point x="629" y="164" type="curve"/>
      <point x="639" y="90"/>
      <point x="674" y="-25"/>
      <point x="811" y="-25" type="curve" smooth="yes"/>
      <point x="932" y="-25"/>
      <point x="1065" y="68"/>
      <point x="1163" y="164" type="curve"/>
      <point x="1126" y="-25" type="line"/>
      <point x="1208" y="-25" type="line"/>
      <point x="1518" y="39" type="line"/>
      <point x="1518" y="98" type="line"/>
      <point x="1346" y="117" type="line"/>
    </contour>
  </outline>
</glyph>
<glyph name="LtnSmNLftHook" format="2">
  <advance width="1085"/>
  <unicode hex="0272"/>
  <anchor x="502" y="-100" name="L"/>
  <anchor x="650" y="1100" name="U"/>
  <outline>
    <contour>
      <point x="1079" y="41" type="curve"/>
      <point x="1077" y="113" type="line"/>
      <point x="1030" y="98"/>
      <point x="985" y="86"/>
      <point x="948" y="86" type="curve" smooth="yes"/>
      <point x="924" y="86"/>
      <point x="845" y="94"/>
      <point x="860" y="172" type="curve" smooth="yes"/>
      <point x="969" y="750" type="line"/>
      <point x="1001" y="934"/>
      <point x="936" y="1012"/>
      <point x="786" y="1012" type="curve" smooth="yes"/>
      <point x="649" y="1012"/>
      <point x="496" y="913"/>
      <point x="406" y="821" type="curve"/>
      <point x="444" y="1012" type="line"/>
      <point x="362" y="1012" type="line"/>
      <point x="53" y="948" type="line"/>
      <point x="53" y="889" type="line"/>
      <point x="225" y="870" type="line"/>
      <point x="35" y="-72" type="line" smooth="yes"/>
      <point x="-1" y="-248"/>
      <point x="-41" y="-330"/>
      <point x="-102" y="-348" type="curve"/>
      <point x="-236" y="-176" type="line"/>
      <point x="-252" y="-176"/>
      <point x="-352" y="-227"/>
      <point x="-352" y="-311" type="curve" smooth="yes"/>
      <point x="-352" y="-375"/>
      <point x="-336" y="-446"/>
      <point x="-217" y="-446" type="curve" smooth="yes"/>
      <point x="-4" y="-446"/>
      <point x="179" y="-311"/>
      <point x="240" y="-8" type="curve" smooth="yes"/>
      <point x="379" y="688" type="line"/>
      <point x="469" y="784"/>
      <point x="608" y="866"/>
      <point x="674" y="866" type="curve" smooth="yes"/>
      <point x="719" y="866"/>
      <point x="786" y="834"/>
      <point x="764" y="725" type="curve" smooth="yes"/>
      <point x="639" y="96" type="line" smooth="yes"/>
      <point x="617" y="-14"/>
      <point x="756" y="-25"/>
      <point x="805" y="-25" type="curve" smooth="yes"/>
      <point x="891" y="-25"/>
      <point x="1044" y="29"/>
    </contour>
  </outline>
</glyph>
<glyph name="LtnSmNRetrHook" format="2">
  <advance width="1085"/>
  <unicode hex="0273"/>
  <anchor x="322" y="-100" name="L"/>
  <anchor x="622" y="1100" name="U"/>
  <outline>
    <contour>
      <point x="1133" y="-301" type="curve" smooth="yes"/>
      <point x="1133" y="-229"/>
      <point x="1059" y="-215"/>
      <point x="1059" y="-215" type="curve"/>
      <point x="864" y="-336" type="line"/>
      <point x="821" y="-319"/>
      <point x="793" y="-297"/>
      <point x="793" y="-236" type="curve" smooth="yes"/>
      <point x="793" y="-199"/>
      <point x="807" y="-102"/>
      <point x="823" y="-18" type="curve" smooth="yes"/>
      <point x="969" y="750" type="line" smooth="yes"/>
      <point x="1004" y="932"/>
      <point x="936" y="1012"/>
      <point x="786" y="1012" type="curve" smooth="yes"/>
      <point x="649" y="1012"/>
      <point x="496" y="913"/>
      <point x="406" y="821" type="curve"/>
      <point x="444" y="1012" type="line"/>
      <point x="362" y="1012" type="line"/>
      <point x="53" y="948" type="line"/>
      <point x="53" y="889" type="line"/>
      <point x="225" y="870" type="line"/>
      <point x="47" y="0" type="line"/>
      <point x="238" y="0" type="line"/>
      <point x="379" y="688" type="line"/>
      <point x="469" y="784"/>
      <point x="608" y="866"/>
      <point x="674" y="866" type="curve" smooth="yes"/>
      <point x="719" y="866"/>
      <point x="786" y="834"/>
      <point x="764" y="725" type="curve" smooth="yes"/>
      <point x="616" y="-14" type="line" smooth="yes"/>
      <point x="604" y="-76"/>
      <point x="594" y="-156"/>
      <point x="594" y="-188" type="curve" smooth="yes"/>
      <point x="594" y="-365"/>
      <point x="707" y="-446"/>
      <point x="918" y="-446" type="curve" smooth="yes"/>
      <point x="1001" y="-446"/>
      <point x="1133" y="-410"/>
    </contour>
  </outline>
</glyph>
<glyph name="LtnSmBarredO" format="2">
  <advance width="1036"/>
  <unicode hex="0275"/>
  <anchor x="399" y="-100" name="L"/>
  <anchor x="1036" y="1000" name="R"/>
  <anchor x="643" y="1100" name="U"/>
  <outline>
    <contour>
      <point x="973" y="614" type="curve" smooth="yes"/>
      <point x="973" y="891"/>
      <point x="803" y="1012"/>
      <point x="606" y="1012" type="curve" smooth="yes"/>
      <point x="285" y="1012"/>
      <point x="63" y="694"/>
      <point x="63" y="362" type="curve" smooth="yes"/>
      <point x="63" y="125"/>
      <point x="203" y="-25"/>
      <point x="428" y="-25" type="curve" smooth="yes"/>
      <point x="743" y="-25"/>
      <point x="973" y="283"/>
    </contour>
    <contour>
      <point x="766" y="623" type="curve" smooth="yes"/>
      <point x="766" y="600"/>
      <point x="765" y="578"/>
      <point x="762" y="555" type="curve"/>
      <point x="291" y="555" type="line"/>
      <point x="336" y="756"/>
      <point x="446" y="924"/>
      <point x="584" y="924" type="curve" smooth="yes"/>
      <point x="688" y="924"/>
      <point x="766" y="817"/>
    </contour>
    <contour>
      <point x="748" y="453" type="line"/>
      <point x="707" y="254"/>
      <point x="604" y="68"/>
      <point x="453" y="68" type="curve" smooth="yes"/>
      <point x="350" y="68"/>
      <point x="270" y="170"/>
      <point x="270" y="373" type="curve" smooth="yes"/>
      <point x="270" y="399"/>
      <point x="272" y="426"/>
      <point x="274" y="453" type="curve"/>
    </contour>
  </outline>
</glyph>
<glyph name="LtnSmCapOe" format="2">
  <advance width="1665"/>
  <unicode hex="0276"/>
  <anchor x="728" y="-100" name="L"/>
  <anchor x="1665" y="1000" name="R"/>
  <anchor x="972" y="1100" name="U"/>
  <outline>
    <contour>
      <point x="1671" y="989" type="line"/>
      <point x="1014" y="989" type="line"/>
      <point x="989" y="870" type="line"/>
      <point x="930" y="956"/>
      <point x="831" y="1014"/>
      <point x="676" y="1014" type="curve" smooth="yes"/>
      <point x="309" y="1014"/>
      <point x="66" y="692"/>
      <point x="66" y="389" type="curve" smooth="yes"/>
      <point x="66" y="129"/>
      <point x="268" y="-25"/>
      <point x="516" y="-25" type="curve" smooth="yes"/>
      <point x="627" y="-25"/>
      <point x="727" y="10"/>
      <point x="821" y="82" type="curve"/>
      <point x="803" y="0" type="line"/>
      <point x="1516" y="0" type="line"/>
      <point x="1573" y="258" type="line"/>
      <point x="1454" y="258" type="line"/>
      <point x="1403" y="113" type="line" smooth="yes"/>
      <point x="1397" y="98"/>
      <point x="1389" y="90"/>
      <point x="1370" y="90" type="curve" smooth="yes"/>
      <point x="1001" y="90" type="line"/>
      <point x="1083" y="467" type="line"/>
      <point x="1292" y="467" type="line" smooth="yes"/>
      <point x="1313" y="467"/>
      <point x="1317" y="459"/>
      <point x="1315" y="449" type="curve" smooth="yes"/>
      <point x="1296" y="336" type="line"/>
      <point x="1407" y="336" type="line"/>
      <point x="1483" y="686" type="line"/>
      <point x="1372" y="686" type="line"/>
      <point x="1339" y="582" type="line" smooth="yes"/>
      <point x="1335" y="565"/>
      <point x="1329" y="561"/>
      <point x="1311" y="561" type="curve" smooth="yes"/>
      <point x="1104" y="561" type="line"/>
      <point x="1178" y="899" type="line"/>
      <point x="1477" y="899" type="line" smooth="yes"/>
      <point x="1497" y="899"/>
      <point x="1499" y="895"/>
      <point x="1499" y="881" type="curve" smooth="yes"/>
      <point x="1499" y="754" type="line"/>
      <point x="1620" y="754" type="line"/>
    </contour>
    <contour>
      <point x="922" y="612" type="curve" smooth="yes"/>
      <point x="922" y="358"/>
      <point x="752" y="72"/>
      <point x="526" y="72" type="curve" smooth="yes"/>
      <point x="391" y="72"/>
      <point x="266" y="170"/>
      <point x="266" y="375" type="curve" smooth="yes"/>
      <point x="266" y="633"/>
      <point x="442" y="922"/>
      <point x="662" y="922" type="curve" smooth="yes"/>
      <point x="791" y="922"/>
      <point x="922" y="834"/>
    </contour>
  </outline>
</glyph>
<glyph name="LtnSmPhi" format="2">
  <advance width="1159"/>
  <unicode hex="0278"/>
  <anchor x="385" y="-500" name="L"/>
  <anchor x="777" y="1540" name="U"/>
  <outline>
    <contour>
      <point x="158" y="-446" type="line"/>
      <point x="649" y="-446" type="line"/>
      <point x="649" y="-369" type="line"/>
      <point x="543" y="-358" type="line" smooth="yes"/>
      <point x="508" y="-354"/>
      <point x="499" y="-340"/>
      <point x="504" y="-317" type="curve" smooth="yes"/>
      <point x="565" y="-18" type="line"/>
      <point x="850" y="27"/>
      <point x="1094" y="309"/>
      <point x="1094" y="614" type="curve" smooth="yes"/>
      <point x="1094" y="840"/>
      <point x="940" y="963"/>
      <point x="776" y="999" type="curve"/>
      <point x="827" y="1245" type="line" smooth="yes"/>
      <point x="834" y="1272"/>
      <point x="852" y="1284"/>
      <point x="879" y="1286" type="curve" smooth="yes"/>
      <point x="983" y="1296" type="line"/>
      <point x="983" y="1374" type="line"/>
      <point x="492" y="1374" type="line"/>
      <point x="492" y="1296" type="line"/>
      <point x="598" y="1286" type="line" smooth="yes"/>
      <point x="633" y="1282"/>
      <point x="643" y="1268"/>
      <point x="639" y="1245" type="curve" smooth="yes"/>
      <point x="588" y="1006" type="line"/>
      <point x="301" y="958"/>
      <point x="66" y="668"/>
      <point x="66" y="362" type="curve" smooth="yes"/>
      <point x="66" y="166"/>
      <point x="201" y="31"/>
      <point x="377" y="-10" type="curve"/>
      <point x="313" y="-317" type="line" smooth="yes"/>
      <point x="307" y="-344"/>
      <point x="289" y="-356"/>
      <point x="262" y="-358" type="curve" smooth="yes"/>
      <point x="158" y="-369" type="line"/>
    </contour>
    <contour>
      <point x="401" y="104" type="line"/>
      <point x="332" y="152"/>
      <point x="272" y="240"/>
      <point x="272" y="373" type="curve" smooth="yes"/>
      <point x="272" y="602"/>
      <point x="414" y="842"/>
      <point x="567" y="905" type="curve"/>
    </contour>
    <contour>
      <point x="586" y="82" type="curve"/>
      <point x="754" y="889" type="line"/>
      <point x="825" y="842"/>
      <point x="887" y="752"/>
      <point x="887" y="623" type="curve" smooth="yes"/>
      <point x="887" y="412"/>
      <point x="752" y="145"/>
    </contour>
  </outline>
</glyph>
<glyph name="LtnSmTurnedRHook" format="2">
  <advance width="735"/>
  <unicode hex="027B"/>
  <anchor x="276" y="-500" name="L"/>
  <anchor x="596" y="1100" name="U"/>
  <outline>
    <contour>
      <point x="633" y="-469" type="curve" smooth="yes"/>
      <point x="715" y="-469"/>
      <point x="799" y="-434"/>
      <point x="799" y="-354" type="curve" smooth="yes"/>
      <point x="799" y="-285"/>
      <point x="762" y="-252"/>
      <point x="725" y="-238" type="curve"/>
      <point x="518" y="-375" type="line"/>
      <point x="479" y="-350"/>
      <point x="465" y="-295"/>
      <point x="465" y="-221" type="curve" smooth="yes"/>
      <point x="465" y="-168"/>
      <point x="472" y="-105"/>
      <point x="485" y="-43" type="curve" smooth="yes"/>
      <point x="694" y="987" type="line"/>
      <point x="504" y="987" type="line"/>
      <point x="397" y="471" type="line" smooth="yes"/>
      <point x="372" y="352"/>
      <point x="227" y="166"/>
      <point x="127" y="123" type="curve"/>
      <point x="78" y="221" type="line"/>
      <point x="-35" y="221"/>
      <point x="-104" y="209"/>
      <point x="-104" y="113" type="curve" smooth="yes"/>
      <point x="-104" y="57"/>
      <point x="-72" y="-25"/>
      <point x="27" y="-25" type="curve" smooth="yes"/>
      <point x="150" y="-25"/>
      <point x="258" y="53"/>
      <point x="342" y="182" type="curve"/>
      <point x="328" y="115"/>
      <point x="309" y="48"/>
      <point x="299" y="-20" type="curve" smooth="yes"/>
      <point x="292" y="-66"/>
      <point x="287" y="-109"/>
      <point x="287" y="-150" type="curve" smooth="yes"/>
      <point x="287" y="-330"/>
      <point x="397" y="-469"/>
    </contour>
  </outline>
</glyph>
<glyph name="LtnSmRHookTail" format="2">
  <advance width="766"/>
  <unicode hex="027D"/>
  <anchor x="162" y="-500" name="L"/>
  <anchor x="482" y="1100" name="U"/>
  <outline>
    <contour>
      <point x="838" y="874" type="curve" smooth="yes"/>
      <point x="838" y="930"/>
      <point x="805" y="1012"/>
      <point x="707" y="1012" type="curve" smooth="yes"/>
      <point x="584" y="1012"/>
      <point x="475" y="934"/>
      <point x="391" y="805" type="curve"/>
      <point x="434" y="1012" type="line"/>
      <point x="352" y="1012" type="line"/>
      <point x="43" y="948" type="line"/>
      <point x="43" y="889" type="line"/>
      <point x="215" y="870" type="line"/>
      <point x="59" y="100" type="line" smooth="yes"/>
      <point x="44" y="27"/>
      <point x="35" y="-45"/>
      <point x="35" y="-113" type="curve" smooth="yes"/>
      <point x="35" y="-315"/>
      <point x="113" y="-469"/>
      <point x="371" y="-469" type="curve" smooth="yes"/>
      <point x="453" y="-469"/>
      <point x="547" y="-434"/>
      <point x="547" y="-354" type="curve" smooth="yes"/>
      <point x="547" y="-285"/>
      <point x="510" y="-252"/>
      <point x="473" y="-238" type="curve"/>
      <point x="256" y="-375" type="line"/>
      <point x="213" y="-346"/>
      <point x="203" y="-276"/>
      <point x="203" y="-201" type="curve" smooth="yes"/>
      <point x="203" y="-150"/>
      <point x="212" y="-97"/>
      <point x="221" y="-53" type="curve" smooth="yes"/>
      <point x="336" y="516" type="line" smooth="yes"/>
      <point x="360" y="635"/>
      <point x="506" y="821"/>
      <point x="606" y="864" type="curve"/>
      <point x="655" y="766" type="line"/>
      <point x="766" y="766"/>
      <point x="838" y="778"/>
    </contour>
  </outline>
</glyph>
<glyph name="LtnSmRFishhook" format="2">
  <advance width="676"/>
  <unicode hex="027E"/>
  <anchor x="190" y="-100" name="L"/>
  <anchor x="530" y="1100" name="U"/>
  <outline>
    <contour>
      <point x="750" y="899" type="curve" smooth="yes"/>
      <point x="750" y="954"/>
      <point x="715" y="1012"/>
      <point x="606" y="1012" type="curve" smooth="yes"/>
      <point x="360" y="1012"/>
      <point x="188" y="850"/>
      <point x="141" y="614" type="curve" smooth="yes"/>
      <point x="20" y="0" type="line"/>
      <point x="211" y="0" type="line"/>
      <point x="332" y="610" type="line" smooth="yes"/>
      <point x="369" y="797"/>
      <point x="395" y="864"/>
      <point x="498" y="897" type="curve"/>
      <point x="637" y="778" type="line"/>
      <point x="686" y="784"/>
      <point x="750" y="829"/>
    </contour>
  </outline>
</glyph>
<glyph name="LtnSmEsh" format="2">
  <advance width="557"/>
  <unicode hex="0283"/>
  <anchor x="88" y="-500" name="L"/>
  <anchor x="480" y="1540" name="U"/>
  <outline>
    <contour>
      <point x="831" y="1403" type="curve" smooth="yes"/>
      <point x="831" y="1479"/>
      <point x="725" y="1509"/>
      <point x="672" y="1509" type="curve" smooth="yes"/>
      <point x="428" y="1509"/>
      <point x="249" y="1327"/>
      <point x="233" y="1090" type="curve" smooth="yes"/>
      <point x="154" y="-72" type="line" smooth="yes"/>
      <point x="145" y="-199"/>
      <point x="137" y="-303"/>
      <point x="8" y="-358" type="curve"/>
      <point x="-152" y="-252" type="line"/>
      <point x="-203" y="-268"/>
      <point x="-252" y="-311"/>
      <point x="-252" y="-367" type="curve" smooth="yes"/>
      <point x="-252" y="-440"/>
      <point x="-143" y="-469"/>
      <point x="-90" y="-469" type="curve" smooth="yes"/>
      <point x="152" y="-469"/>
      <point x="329" y="-289"/>
      <point x="346" y="-51" type="curve" smooth="yes"/>
      <point x="428" y="1110" type="line" smooth="yes"/>
      <point x="437" y="1239"/>
      <point x="444" y="1337"/>
      <point x="573" y="1395" type="curve"/>
      <point x="729" y="1290" type="line"/>
      <point x="782" y="1307"/>
      <point x="831" y="1348"/>
    </contour>
  </outline>
</glyph>
<glyph name="LtnSmUBar" format="2">
  <advance width="1079"/>
  <unicode hex="0289"/>
  <anchor x="462" y="0" name="H"/>
  <anchor x="442" y="-100" name="L"/>
  <anchor x="933" y="0" name="O"/>
  <anchor x="1079" y="1000" name="R"/>
  <anchor x="686" y="1100" name="U"/>
  <outline>
    <contour>
      <point x="301" y="-25" type="curve" smooth="yes"/>
      <point x="438" y="-25"/>
      <point x="555" y="27"/>
      <point x="662" y="129" type="curve"/>
      <point x="662" y="96"/>
      <point x="641" y="-25"/>
      <point x="795" y="-25" type="curve" smooth="yes"/>
      <point x="883" y="-25"/>
      <point x="1022" y="20"/>
      <point x="1073" y="49" type="curve"/>
      <point x="1073" y="121" type="line"/>
      <point x="1016" y="88"/>
      <point x="971" y="84"/>
      <point x="944" y="84" type="curve" smooth="yes"/>
      <point x="899" y="84"/>
      <point x="836" y="115"/>
      <point x="854" y="199" type="curve" smooth="yes"/>
      <point x="905" y="446" type="line"/>
      <point x="1081" y="446" type="line"/>
      <point x="1104" y="557" type="line"/>
      <point x="928" y="557" type="line"/>
      <point x="1018" y="987" type="line"/>
      <point x="827" y="987" type="line"/>
      <point x="737" y="557" type="line"/>
      <point x="350" y="557" type="line"/>
      <point x="446" y="1012" type="line"/>
      <point x="362" y="1012" type="line"/>
      <point x="53" y="948" type="line"/>
      <point x="53" y="889" type="line"/>
      <point x="225" y="870" type="line"/>
      <point x="162" y="557" type="line"/>
      <point x="-6" y="557" type="line"/>
      <point x="-29" y="446" type="line"/>
      <point x="137" y="446" type="line"/>
      <point x="92" y="231" type="line" smooth="yes"/>
      <point x="70" y="125"/>
      <point x="111" y="-25"/>
    </contour>
    <contour>
      <point x="389" y="102" type="curve" smooth="yes"/>
      <point x="336" y="102"/>
      <point x="268" y="162"/>
      <point x="283" y="231" type="curve" smooth="yes"/>
      <point x="328" y="446" type="line"/>
      <point x="715" y="446" type="line"/>
      <point x="672" y="233" type="line"/>
      <point x="594" y="162"/>
      <point x="487" y="102"/>
    </contour>
  </outline>
</glyph>
<glyph name="LtnSmTurnedV" format="2">
  <advance width="946"/>
  <unicode hex="028C"/>
  <anchor x="463" y="0" name="H"/>
  <anchor x="443" y="-100" name="L"/>
  <anchor x="511" y="0" name="O"/>
  <anchor x="946" y="1000" name="R"/>
  <anchor x="687" y="1100" name="U"/>
  <outline>
    <contour>
      <point x="129" y="-25" type="curve" smooth="yes"/>
      <point x="180" y="-25"/>
      <point x="221" y="-6"/>
      <point x="250" y="20" type="curve"/>
      <point x="211" y="268" type="line"/>
      <point x="274" y="430"/>
      <point x="367" y="569"/>
      <point x="506" y="752" type="curve"/>
      <point x="569" y="121" type="line" smooth="yes"/>
      <point x="580" y="25"/>
      <point x="627" y="-23"/>
      <point x="737" y="-25" type="curve"/>
      <point x="956" y="43" type="line"/>
      <point x="956" y="102" type="line"/>
      <point x="811" y="111" type="line"/>
      <point x="788" y="111"/>
      <point x="776" y="123"/>
      <point x="766" y="152" type="curve" smooth="yes"/>
      <point x="723" y="262"/>
      <point x="680" y="840"/>
      <point x="680" y="854" type="curve" smooth="yes"/>
      <point x="678" y="901"/>
      <point x="692" y="952"/>
      <point x="721" y="1012" type="curve"/>
      <point x="602" y="1012" type="line"/>
      <point x="477" y="872"/>
      <point x="231" y="588"/>
      <point x="47" y="252" type="curve"/>
      <point x="35" y="225"/>
      <point x="4" y="166"/>
      <point x="4" y="98" type="curve" smooth="yes"/>
      <point x="4" y="25"/>
      <point x="43" y="-25"/>
    </contour>
  </outline>
</glyph>
<glyph name="LtnSmTurnedY" format="2">
  <advance width="1018"/>
  <unicode hex="028E"/>
  <anchor x="414" y="-100" name="L"/>
  <anchor x="730" y="1540" name="U"/>
  <outline>
    <contour>
      <point x="1100" y="1372" type="curve" smooth="yes"/>
      <point x="1100" y="1425"/>
      <point x="1059" y="1509"/>
      <point x="909" y="1509" type="curve" smooth="yes"/>
      <point x="733" y="1509"/>
      <point x="580" y="1247"/>
      <point x="471" y="1020" type="curve"/>
      <point x="471" y="1020"/>
      <point x="336" y="784"/>
      <point x="182" y="414" type="curve" smooth="yes"/>
      <point x="147" y="328"/>
      <point x="47" y="172"/>
      <point x="16" y="141" type="curve"/>
      <point x="-88" y="78" type="line"/>
      <point x="-88" y="31" type="line"/>
      <point x="84" y="-25" type="line"/>
      <point x="141" y="-25" type="line"/>
      <point x="459" y="705" type="line"/>
      <point x="459" y="705"/>
      <point x="530" y="317"/>
      <point x="567" y="197" type="curve" smooth="yes"/>
      <point x="606" y="61"/>
      <point x="649" y="-25"/>
      <point x="735" y="-25" type="curve" smooth="yes"/>
      <point x="774" y="-25"/>
      <point x="946" y="33"/>
      <point x="981" y="45" type="curve"/>
      <point x="981" y="96" type="line"/>
      <point x="797" y="111" type="line" smooth="yes"/>
      <point x="778" y="113"/>
      <point x="721" y="326"/>
      <point x="680" y="518" type="curve" smooth="yes"/>
      <point x="637" y="715"/>
      <point x="598" y="918"/>
      <point x="594" y="950" type="curve"/>
      <point x="721" y="1233"/>
      <point x="780" y="1370"/>
      <point x="840" y="1370" type="curve"/>
      <point x="958" y="1253" type="line"/>
      <point x="1040" y="1255"/>
      <point x="1100" y="1311"/>
    </contour>
  </outline>
</glyph>
<glyph name="LtnSmZRetrHook" format="2">
  <advance width="911"/>
  <unicode hex="0290"/>
  <anchor x="287" y="-100" name="L"/>
  <anchor x="576" y="1100" name="U"/>
  <outline>
    <contour>
      <point x="1049" y="-313" type="curve" smooth="yes"/>
      <point x="1049" y="-277"/>
      <point x="1008" y="-246"/>
      <point x="977" y="-233" type="curve"/>
      <point x="766" y="-356" type="line"/>
      <point x="717" y="-356"/>
      <point x="700" y="-346"/>
      <point x="700" y="-307" type="curve"/>
      <point x="801" y="217" type="line"/>
      <point x="684" y="188" type="line"/>
      <point x="663" y="159"/>
      <point x="619" y="121"/>
      <point x="575" y="121" type="curve" smooth="yes"/>
      <point x="520" y="121"/>
      <point x="455" y="170"/>
      <point x="399" y="190" type="curve"/>
      <point x="227" y="145" type="line"/>
      <point x="922" y="958" type="line"/>
      <point x="768" y="1038" type="line"/>
      <point x="723" y="924" type="line"/>
      <point x="698" y="911"/>
      <point x="684" y="909"/>
      <point x="676" y="909" type="curve" smooth="yes"/>
      <point x="594" y="909"/>
      <point x="492" y="1012"/>
      <point x="369" y="1012" type="curve" smooth="yes"/>
      <point x="188" y="1012"/>
      <point x="80" y="844"/>
      <point x="80" y="719" type="curve" smooth="yes"/>
      <point x="80" y="668"/>
      <point x="115" y="598"/>
      <point x="193" y="598" type="curve" smooth="yes"/>
      <point x="250" y="598"/>
      <point x="295" y="649"/>
      <point x="305" y="666" type="curve"/>
      <point x="197" y="797" type="line"/>
      <point x="219" y="834"/>
      <point x="272" y="856"/>
      <point x="307" y="856" type="curve" smooth="yes"/>
      <point x="362" y="856"/>
      <point x="426" y="827"/>
      <point x="481" y="797" type="curve"/>
      <point x="662" y="836" type="line"/>
      <point x="-33" y="23" type="line"/>
      <point x="109" y="-53" type="line"/>
      <point x="160" y="43" type="line"/>
      <point x="178" y="61"/>
      <point x="203" y="63"/>
      <point x="213" y="63" type="curve" smooth="yes"/>
      <point x="322" y="63"/>
      <point x="399" y="-25"/>
      <point x="508" y="-25" type="curve" smooth="yes"/>
      <point x="553" y="-25"/>
      <point x="600" y="-10"/>
      <point x="645" y="14" type="curve"/>
      <point x="631" y="-47"/>
      <point x="588" y="-256"/>
      <point x="588" y="-317" type="curve" smooth="yes"/>
      <point x="588" y="-440"/>
      <point x="731" y="-469"/>
      <point x="834" y="-469" type="curve" smooth="yes"/>
      <point x="928" y="-469"/>
      <point x="1049" y="-440"/>
    </contour>
  </outline>
</glyph>
<glyph name="LtnSmEzhCurl" format="2">
  <advance width="971"/>
  <unicode hex="0293"/>
  <anchor x="294" y="-500" name="L"/>
  <anchor x="614" y="1100" name="U"/>
  <outline>
    <contour>
      <point x="285" y="213" type="line"/>
      <point x="369" y="305" type="line"/>
      <point x="506" y="297"/>
      <point x="633" y="168"/>
      <point x="633" y="23" type="curve" smooth="yes"/>
      <point x="633" y="-167"/>
      <point x="377" y="-370"/>
      <point x="223" y="-370" type="curve" smooth="yes"/>
      <point x="141" y="-370"/>
      <point x="73" y="-322"/>
      <point x="73" y="-252" type="curve" smooth="yes"/>
      <point x="73" y="-184"/>
      <point x="133" y="-143"/>
      <point x="200" y="-143" type="curve" smooth="yes"/>
      <point x="330" y="-143"/>
      <point x="427" y="-215"/>
      <point x="492" y="-322" type="curve" smooth="yes"/>
      <point x="526" y="-378"/>
      <point x="542" y="-420"/>
      <point x="561" y="-485" type="curve"/>
      <point x="655" y="-434" type="line"/>
      <point x="640" y="-381"/>
      <point x="621" y="-335"/>
      <point x="595" y="-289" type="curve" smooth="yes"/>
      <point x="510" y="-139"/>
      <point x="362" y="-29"/>
      <point x="190" y="-29" type="curve" smooth="yes"/>
      <point x="32" y="-29"/>
      <point x="-92" y="-116"/>
      <point x="-92" y="-253" type="curve" smooth="yes"/>
      <point x="-92" y="-388"/>
      <point x="8" y="-469"/>
      <point x="238" y="-469" type="curve" smooth="yes"/>
      <point x="510" y="-469"/>
      <point x="842" y="-273"/>
      <point x="842" y="23" type="curve" smooth="yes"/>
      <point x="842" y="256"/>
      <point x="676" y="381"/>
      <point x="463" y="391" type="curve"/>
      <point x="1040" y="926" type="line"/>
      <point x="909" y="1024" type="line"/>
      <point x="844" y="932" type="line"/>
      <point x="820" y="926"/>
      <point x="786" y="920"/>
      <point x="758" y="920" type="curve" smooth="yes"/>
      <point x="623" y="920"/>
      <point x="500" y="1012"/>
      <point x="360" y="1012" type="curve" smooth="yes"/>
      <point x="207" y="1012"/>
      <point x="80" y="870"/>
      <point x="80" y="719" type="curve" smooth="yes"/>
      <point x="80" y="655"/>
      <point x="123" y="598"/>
      <point x="190" y="598" type="curve" smooth="yes"/>
      <point x="233" y="598"/>
      <point x="279" y="631"/>
      <point x="299" y="666" type="curve"/>
      <point x="195" y="797" type="line"/>
      <point x="215" y="829"/>
      <point x="260" y="856"/>
      <point x="301" y="856" type="curve" smooth="yes"/>
      <point x="381" y="856"/>
      <point x="453" y="818"/>
      <point x="528" y="811" type="curve" smooth="yes"/>
      <point x="579" y="806"/>
      <point x="691" y="806"/>
      <point x="753" y="806" type="curve"/>
      <point x="180" y="299" type="line"/>
    </contour>
  </outline>
</glyph>
<glyph name="LtnRevGlottalStop" format="2">
  <advance width="899"/>
  <unicode hex="0295"/>
  <anchor x="314" y="-100" name="L"/>
  <anchor x="630" y="1540" name="U"/>
  <outline>
    <contour>
      <point x="182" y="0" type="line"/>
      <point x="674" y="0" type="line"/>
      <point x="674" y="94" type="line"/>
      <point x="567" y="104" type="line" smooth="yes"/>
      <point x="549" y="106"/>
      <point x="524" y="127"/>
      <point x="528" y="145" type="curve" smooth="yes"/>
      <point x="635" y="662" type="line"/>
      <point x="516" y="705"/>
      <point x="373" y="793"/>
      <point x="373" y="975" type="curve" smooth="yes"/>
      <point x="373" y="1184"/>
      <point x="492" y="1293"/>
      <point x="670" y="1293" type="curve" smooth="yes"/>
      <point x="690" y="1293"/>
      <point x="711" y="1293"/>
      <point x="733" y="1288" type="curve"/>
      <point x="772" y="1102" type="line"/>
      <point x="789" y="1099"/>
      <point x="806" y="1096"/>
      <point x="823" y="1096" type="curve" smooth="yes"/>
      <point x="907" y="1096"/>
      <point x="971" y="1157"/>
      <point x="971" y="1239" type="curve" smooth="yes"/>
      <point x="971" y="1319"/>
      <point x="905" y="1407"/>
      <point x="707" y="1407" type="curve" smooth="yes"/>
      <point x="442" y="1407"/>
      <point x="156" y="1294"/>
      <point x="156" y="985" type="curve" smooth="yes"/>
      <point x="156" y="723"/>
      <point x="289" y="655"/>
      <point x="428" y="588" type="curve"/>
      <point x="340" y="145" type="line" smooth="yes"/>
      <point x="336" y="127"/>
      <point x="307" y="106"/>
      <point x="287" y="104" type="curve" smooth="yes"/>
      <point x="182" y="94" type="line"/>
    </contour>
  </outline>
</glyph>
<glyph name="LtnStretchedC" format="2">
  <advance width="891"/>
  <unicode hex="0297"/>
  <anchor x="386" y="-500" name="L"/>
  <anchor x="720" y="1100" name="U"/>
  <outline>
    <contour>
      <point x="895" y="868" type="curve" smooth="yes"/>
      <point x="895" y="930"/>
      <point x="831" y="1012"/>
      <point x="684" y="1012" type="curve" smooth="yes"/>
      <point x="442" y="1012"/>
      <point x="206" y="791"/>
      <point x="145" y="494" type="curve" smooth="yes"/>
      <point x="53" y="47" type="line" smooth="yes"/>
      <point x="44" y="4"/>
      <point x="41" y="-43"/>
      <point x="41" y="-88" type="curve" smooth="yes"/>
      <point x="41" y="-332"/>
      <point x="162" y="-469"/>
      <point x="356" y="-469" type="curve" smooth="yes"/>
      <point x="539" y="-469"/>
      <point x="674" y="-352"/>
      <point x="758" y="-270" type="curve"/>
      <point x="758" y="-139" type="line"/>
      <point x="643" y="-256"/>
      <point x="526" y="-338"/>
      <point x="420" y="-338" type="curve" smooth="yes"/>
      <point x="283" y="-338"/>
      <point x="238" y="-199"/>
      <point x="238" y="-66" type="curve" smooth="yes"/>
      <point x="238" y="0"/>
      <point x="245" y="61"/>
      <point x="256" y="117" type="curve" smooth="yes"/>
      <point x="346" y="561" type="line" smooth="yes"/>
      <point x="364" y="652"/>
      <point x="399" y="727"/>
      <point x="438" y="780" type="curve" smooth="yes"/>
      <point x="498" y="860"/>
      <point x="569" y="891"/>
      <point x="618" y="893" type="curve"/>
      <point x="735" y="735" type="line"/>
      <point x="866" y="752"/>
      <point x="895" y="815"/>
    </contour>
  </outline>
</glyph>
<glyph name="LtnSmCapB" format="2">
  <advance width="993"/>
  <unicode hex="0299"/>
  <anchor x="373" y="-100" name="L"/>
  <anchor x="617" y="1100" name="U"/>
  <outline>
    <contour>
      <point x="-31" y="0" type="line"/>
      <point x="418" y="0" type="line" smooth="yes"/>
      <point x="688" y="0"/>
      <point x="901" y="88"/>
      <point x="901" y="334" type="curve" smooth="yes"/>
      <point x="901" y="455"/>
      <point x="817" y="508"/>
      <point x="696" y="528" type="curve"/>
      <point x="827" y="575"/>
      <point x="934" y="651"/>
      <point x="934" y="795" type="curve" smooth="yes"/>
      <point x="934" y="913"/>
      <point x="840" y="987"/>
      <point x="606" y="987" type="curve" smooth="yes"/>
      <point x="145" y="987" type="line"/>
      <point x="145" y="909" type="line"/>
      <point x="236" y="901" type="line" smooth="yes"/>
      <point x="260" y="899"/>
      <point x="268" y="885"/>
      <point x="262" y="864" type="curve"/>
      <point x="102" y="117" type="line" smooth="yes"/>
      <point x="100" y="102"/>
      <point x="84" y="86"/>
      <point x="68" y="86" type="curve"/>
      <point x="-31" y="78" type="line"/>
    </contour>
    <contour>
      <point x="365" y="84" type="curve" smooth="yes"/>
      <point x="342" y="84"/>
      <point x="309" y="86"/>
      <point x="285" y="86" type="curve"/>
      <point x="367" y="465" type="line"/>
      <point x="399" y="467"/>
      <point x="434" y="469"/>
      <point x="471" y="469" type="curve" smooth="yes"/>
      <point x="621" y="469"/>
      <point x="700" y="428"/>
      <point x="700" y="319" type="curve" smooth="yes"/>
      <point x="700" y="174"/>
      <point x="592" y="84"/>
    </contour>
    <contour>
      <point x="442" y="553" type="curve" smooth="yes"/>
      <point x="430" y="553"/>
      <point x="406" y="553"/>
      <point x="383" y="555" type="curve"/>
      <point x="457" y="903" type="line"/>
      <point x="475" y="905"/>
      <point x="500" y="905"/>
      <point x="526" y="905" type="curve" smooth="yes"/>
      <point x="664" y="905"/>
      <point x="729" y="864"/>
      <point x="729" y="782" type="curve" smooth="yes"/>
      <point x="729" y="657"/>
      <point x="639" y="553"/>
    </contour>
  </outline>
</glyph>
<glyph name="LtnSmTurnedK" format="2">
  <advance width="1042"/>
  <unicode hex="029E"/>
  <anchor x="272" y="-100" name="L"/>
  <anchor x="650" y="1100" name="U"/>
  <outline>
    <contour>
      <point x="1018" y="987" type="line"/>
      <point x="827" y="987" type="line"/>
      <point x="743" y="571" type="line"/>
      <point x="649" y="487" type="line"/>
      <point x="606" y="578"/>
      <point x="498" y="831"/>
      <point x="442" y="915" type="curve" smooth="yes"/>
      <point x="410" y="965"/>
      <point x="344" y="1012"/>
      <point x="279" y="1012" type="curve" smooth="yes"/>
      <point x="213" y="1012"/>
      <point x="92" y="975"/>
      <point x="25" y="940" type="curve"/>
      <point x="25" y="870" type="line"/>
      <point x="59" y="887"/>
      <point x="123" y="901"/>
      <point x="152" y="901" type="curve" smooth="yes"/>
      <point x="225" y="901"/>
      <point x="301" y="797"/>
      <point x="365" y="682" type="curve" smooth="yes"/>
      <point x="426" y="571"/>
      <point x="469" y="424"/>
      <point x="506" y="354" type="curve"/>
      <point x="444" y="297"/>
      <point x="338" y="205"/>
      <point x="262" y="147" type="curve"/>
      <point x="193" y="221" type="line"/>
      <point x="98" y="188"/>
      <point x="55" y="133"/>
      <point x="55" y="86" type="curve" smooth="yes"/>
      <point x="53" y="35"/>
      <point x="96" y="-25"/>
      <point x="188" y="-25" type="curve" smooth="yes"/>
      <point x="260" y="-25"/>
      <point x="306" y="7"/>
      <point x="385" y="88" type="curve" smooth="yes"/>
      <point x="717" y="430" type="line"/>
      <point x="535" y="-469" type="line"/>
      <point x="614" y="-469" type="line"/>
      <point x="934" y="-408" type="line"/>
      <point x="934" y="-346" type="line"/>
      <point x="752" y="-330" type="line"/>
    </contour>
  </outline>
</glyph>
<glyph name="LtnSmCapL" format="2">
  <advance width="848"/>
  <unicode hex="029F"/>
  <anchor x="298" y="-100" name="L"/>
  <anchor x="542" y="1100" name="U"/>
  <outline>
    <contour>
      <point x="-43" y="0" type="line"/>
      <point x="731" y="0" type="line"/>
      <point x="795" y="287" type="line"/>
      <point x="682" y="287" type="line"/>
      <point x="621" y="113" type="line" smooth="yes"/>
      <point x="616" y="98"/>
      <point x="606" y="90"/>
      <point x="590" y="90" type="curve" smooth="yes"/>
      <point x="289" y="90" type="line"/>
      <point x="451" y="858" type="line"/>
      <point x="455" y="885"/>
      <point x="475" y="897"/>
      <point x="500" y="899" type="curve" smooth="yes"/>
      <point x="606" y="909" type="line"/>
      <point x="606" y="987" type="line"/>
      <point x="100" y="987" type="line"/>
      <point x="100" y="909" type="line"/>
      <point x="227" y="899" type="line" smooth="yes"/>
      <point x="262" y="897"/>
      <point x="272" y="881"/>
      <point x="266" y="858" type="curve"/>
      <point x="115" y="127" type="line" smooth="yes"/>
      <point x="109" y="102"/>
      <point x="90" y="90"/>
      <point x="63" y="88" type="curve" smooth="yes"/>
      <point x="-43" y="78" type="line"/>
    </contour>
  </outline>
</glyph>
<glyph name="LtnSmQHook" format="2">
  <advance width="1069"/>
  <unicode hex="02A0"/>
  <anchor x="222" y="-100" name="L"/>
  <anchor x="863" y="1540" name="U"/>
  <outline>
    <contour>
      <point x="395" y="-446" type="line"/>
      <point x="911" y="-446" type="line"/>
      <point x="911" y="-369" type="line"/>
      <point x="784" y="-358" type="line" smooth="yes"/>
      <point x="748" y="-355"/>
      <point x="739" y="-340"/>
      <point x="743" y="-317" type="curve" smooth="yes"/>
      <point x="1018" y="1092" type="line" smooth="yes"/>
      <point x="1061" y="1313"/>
      <point x="1077" y="1384"/>
      <point x="1155" y="1384" type="curve"/>
      <point x="1317" y="1274" type="line"/>
      <point x="1366" y="1282"/>
      <point x="1430" y="1317"/>
      <point x="1430" y="1386" type="curve" smooth="yes"/>
      <point x="1430" y="1444"/>
      <point x="1405" y="1509"/>
      <point x="1276" y="1509" type="curve" smooth="yes"/>
      <point x="1028" y="1509"/>
      <point x="908" y="1343"/>
      <point x="862" y="1108" type="curve" smooth="yes"/>
      <point x="852" y="1056"/>
      <point x="843" y="1004"/>
      <point x="834" y="952" type="curve"/>
      <point x="797" y="981"/>
      <point x="727" y="1012"/>
      <point x="641" y="1012" type="curve" smooth="yes"/>
      <point x="299" y="1012"/>
      <point x="66" y="662"/>
      <point x="66" y="346" type="curve" smooth="yes"/>
      <point x="66" y="102"/>
      <point x="184" y="-25"/>
      <point x="348" y="-25" type="curve" smooth="yes"/>
      <point x="444" y="-25"/>
      <point x="545" y="31"/>
      <point x="639" y="109" type="curve"/>
      <point x="555" y="-317" type="line" smooth="yes"/>
      <point x="550" y="-344"/>
      <point x="530" y="-355"/>
      <point x="504" y="-358" type="curve" smooth="yes"/>
      <point x="395" y="-369" type="line"/>
    </contour>
    <contour>
      <point x="430" y="100" type="curve" smooth="yes"/>
      <point x="328" y="100"/>
      <point x="264" y="199"/>
      <point x="264" y="354" type="curve" smooth="yes"/>
      <point x="264" y="674"/>
      <point x="444" y="918"/>
      <point x="668" y="918" type="curve" smooth="yes"/>
      <point x="698" y="918"/>
      <point x="778" y="825"/>
      <point x="772" y="795" type="curve"/>
      <point x="662" y="231" type="line"/>
      <point x="600" y="168"/>
      <point x="514" y="100"/>
    </contour>
  </outline>
</glyph>
<glyph name="LtnGlottalStopStrk" format="2">
  <advance width="899"/>
  <unicode hex="02A1"/>
  <anchor x="318" y="-100" name="L"/>
  <anchor x="634" y="1540" name="U"/>
  <outline>
    <contour>
      <point x="954" y="1104" type="curve" smooth="yes"/>
      <point x="954" y="1286"/>
      <point x="811" y="1407"/>
      <point x="594" y="1407" type="curve" smooth="yes"/>
      <point x="459" y="1407"/>
      <point x="176" y="1327"/>
      <point x="176" y="1153" type="curve" smooth="yes"/>
      <point x="176" y="1106"/>
      <point x="201" y="1069"/>
      <point x="266" y="1069" type="curve" smooth="yes"/>
      <point x="305" y="1069"/>
      <point x="347" y="1084"/>
      <point x="383" y="1100" type="curve"/>
      <point x="453" y="1278" type="line"/>
      <point x="496" y="1305"/>
      <point x="539" y="1315"/>
      <point x="580" y="1315" type="curve" smooth="yes"/>
      <point x="676" y="1315"/>
      <point x="745" y="1229"/>
      <point x="745" y="1085" type="curve" smooth="yes"/>
      <point x="745" y="879"/>
      <point x="547" y="700"/>
      <point x="365" y="643" type="curve"/>
      <point x="334" y="492" type="line"/>
      <point x="57" y="492" type="line"/>
      <point x="57" y="387" type="line"/>
      <point x="313" y="387" type="line"/>
      <point x="262" y="131" type="line" smooth="yes"/>
      <point x="258" y="113"/>
      <point x="227" y="92"/>
      <point x="209" y="90" type="curve" smooth="yes"/>
      <point x="96" y="80" type="line"/>
      <point x="96" y="0" type="line"/>
      <point x="598" y="0" type="line"/>
      <point x="598" y="80" type="line"/>
      <point x="489" y="90" type="line" smooth="yes"/>
      <point x="471" y="92"/>
      <point x="449" y="113"/>
      <point x="453" y="131" type="curve" smooth="yes"/>
      <point x="504" y="387" type="line"/>
      <point x="776" y="387" type="line"/>
      <point x="776" y="492" type="line"/>
      <point x="524" y="492" type="line"/>
      <point x="551" y="625" type="line"/>
      <point x="750" y="707"/>
      <point x="954" y="866"/>
    </contour>
  </outline>
</glyph>
<glyph name="LtnRevGlottalStopStrk" format="2">
  <advance width="899"/>
  <unicode hex="02A2"/>
  <anchor x="345" y="-100" name="L"/>
  <anchor x="661" y="1540" name="U"/>
  <outline>
    <contour>
      <point x="182" y="0" type="line"/>
      <point x="674" y="0" type="line"/>
      <point x="674" y="94" type="line"/>
      <point x="567" y="104" type="line" smooth="yes"/>
      <point x="549" y="106"/>
      <point x="524" y="127"/>
      <point x="528" y="145" type="curve" smooth="yes"/>
      <point x="578" y="387" type="line"/>
      <point x="862" y="387" type="line"/>
      <point x="862" y="492" type="line"/>
      <point x="598" y="492" type="line"/>
      <point x="635" y="662" type="line"/>
      <point x="516" y="705"/>
      <point x="373" y="793"/>
      <point x="373" y="975" type="curve" smooth="yes"/>
      <point x="373" y="1189"/>
      <point x="497" y="1281"/>
      <point x="682" y="1294" type="curve" smooth="yes"/>
      <point x="698" y="1295"/>
      <point x="715" y="1296"/>
      <point x="733" y="1296" type="curve"/>
      <point x="773" y="1103" type="line"/>
      <point x="789" y="1098"/>
      <point x="807" y="1096"/>
      <point x="823" y="1096" type="curve" smooth="yes"/>
      <point x="907" y="1096"/>
      <point x="971" y="1157"/>
      <point x="971" y="1239" type="curve" smooth="yes"/>
      <point x="971" y="1319"/>
      <point x="905" y="1407"/>
      <point x="707" y="1407" type="curve" smooth="yes"/>
      <point x="442" y="1407"/>
      <point x="156" y="1294"/>
      <point x="156" y="985" type="curve" smooth="yes"/>
      <point x="156" y="713"/>
      <point x="291" y="647"/>
      <point x="428" y="588" type="curve"/>
      <point x="410" y="492" type="line"/>
      <point x="141" y="492" type="line"/>
      <point x="141" y="387" type="line"/>
      <point x="387" y="387" type="line"/>
      <point x="340" y="145" type="line" smooth="yes"/>
      <point x="336" y="127"/>
      <point x="307" y="106"/>
      <point x="287" y="104" type="curve" smooth="yes"/>
      <point x="182" y="94" type="line"/>
    </contour>
  </outline>
</glyph>
<glyph name="LtnSmDzDigraphCurl" format="2">
  <advance width="1630"/>
  <unicode hex="02A5"/>
  <anchor x="727" y="-100" name="L"/>
  <anchor x="1051" y="1580" name="U"/>
  <outline>
    <contour>
      <point x="938" y="-264" type="curve"/>
      <point x="1026" y="-264" type="line"/>
      <point x="1042" y="-186"/>
      <point x="1069" y="-90"/>
      <point x="1114" y="20" type="curve"/>
      <point x="1157" y="-2"/>
      <point x="1200" y="-27"/>
      <point x="1249" y="-27" type="curve" smooth="yes"/>
      <point x="1423" y="-27"/>
      <point x="1556" y="74"/>
      <point x="1556" y="246" type="curve" smooth="yes"/>
      <point x="1556" y="311"/>
      <point x="1485" y="391"/>
      <point x="1415" y="391" type="curve" smooth="yes"/>
      <point x="1272" y="391"/>
      <point x="1176" y="303"/>
      <point x="1100" y="190" type="curve"/>
      <point x="942" y="162" type="line"/>
      <point x="1653" y="958" type="line"/>
      <point x="1528" y="1038" type="line"/>
      <point x="1468" y="967" type="line"/>
      <point x="1446" y="954"/>
      <point x="1399" y="940"/>
      <point x="1391" y="940" type="curve" smooth="yes"/>
      <point x="1315" y="940"/>
      <point x="1190" y="1012"/>
      <point x="1067" y="1012" type="curve" smooth="yes"/>
      <point x="1042" y="1012"/>
      <point x="1018" y="1008"/>
      <point x="993" y="1001" type="curve"/>
      <point x="1083" y="1509" type="line"/>
      <point x="999" y="1509" type="line"/>
      <point x="682" y="1448" type="line"/>
      <point x="682" y="1386" type="line"/>
      <point x="868" y="1368" type="line"/>
      <point x="801" y="973" type="line"/>
      <point x="766" y="985"/>
      <point x="707" y="1012"/>
      <point x="645" y="1012" type="curve" smooth="yes"/>
      <point x="283" y="1012"/>
      <point x="66" y="668"/>
      <point x="66" y="342" type="curve" smooth="yes"/>
      <point x="66" y="170"/>
      <point x="129" y="-25"/>
      <point x="358" y="-25" type="curve" smooth="yes"/>
      <point x="473" y="-25"/>
      <point x="571" y="47"/>
      <point x="643" y="123" type="curve"/>
      <point x="618" y="-25" type="line"/>
      <point x="739" y="-25" type="line"/>
      <point x="799" y="31"/>
      <point x="871" y="79"/>
      <point x="946" y="79" type="curve" smooth="yes"/>
      <point x="975" y="79"/>
      <point x="1005" y="72"/>
      <point x="1034" y="55" type="curve"/>
      <point x="987" y="-55"/>
      <point x="958" y="-147"/>
    </contour>
    <contour>
      <point x="424" y="100" type="curve" smooth="yes"/>
      <point x="344" y="100"/>
      <point x="264" y="178"/>
      <point x="264" y="354" type="curve" smooth="yes"/>
      <point x="264" y="674"/>
      <point x="442" y="920"/>
      <point x="641" y="920" type="curve" smooth="yes"/>
      <point x="694" y="920"/>
      <point x="772" y="819"/>
      <point x="770" y="807" type="curve"/>
      <point x="676" y="268" type="line"/>
      <point x="602" y="182"/>
      <point x="498" y="100"/>
    </contour>
    <contour>
      <point x="1311" y="92" type="curve" smooth="yes"/>
      <point x="1270" y="92"/>
      <point x="1227" y="121"/>
      <point x="1184" y="162" type="curve"/>
      <point x="1237" y="242"/>
      <point x="1290" y="299"/>
      <point x="1378" y="299" type="curve" smooth="yes"/>
      <point x="1411" y="299"/>
      <point x="1436" y="270"/>
      <point x="1436" y="240" type="curve" smooth="yes"/>
      <point x="1436" y="152"/>
      <point x="1415" y="92"/>
    </contour>
    <contour>
      <point x="864" y="266" type="line"/>
      <point x="967" y="850" type="line"/>
      <point x="981" y="854"/>
      <point x="1032" y="866"/>
      <point x="1044" y="866" type="curve" smooth="yes"/>
      <point x="1100" y="866"/>
      <point x="1145" y="827"/>
      <point x="1202" y="797" type="curve"/>
      <point x="1372" y="827" type="line"/>
    </contour>
  </outline>
</glyph>
<glyph name="LtnSmTsDigraph" format="2">
  <advance width="1208"/>
  <unicode hex="02A6"/>
  <anchor x="464" y="-100" name="L"/>
  <anchor x="759" y="1363" name="U"/>
  <outline>
    <contour>
      <point x="1165" y="883" type="curve" smooth="yes"/>
      <point x="1165" y="932"/>
      <point x="1112" y="1012"/>
      <point x="958" y="1012" type="curve" smooth="yes"/>
      <point x="791" y="1012"/>
      <point x="592" y="903"/>
      <point x="592" y="702" type="curve" smooth="yes"/>
      <point x="592" y="600"/>
      <point x="672" y="510"/>
      <point x="756" y="444" type="curve" smooth="yes"/>
      <point x="856" y="369"/>
      <point x="926" y="311"/>
      <point x="926" y="227" type="curve" smooth="yes"/>
      <point x="926" y="123"/>
      <point x="848" y="57"/>
      <point x="764" y="57" type="curve" smooth="yes"/>
      <point x="694" y="57"/>
      <point x="653" y="90"/>
      <point x="627" y="131" type="curve"/>
      <point x="664" y="231" type="line"/>
      <point x="651" y="244"/>
      <point x="606" y="274"/>
      <point x="557" y="274" type="curve" smooth="yes"/>
      <point x="473" y="274"/>
      <point x="434" y="229"/>
      <point x="434" y="164" type="curve" smooth="yes"/>
      <point x="434" y="143"/>
      <point x="440" y="123"/>
      <point x="449" y="104" type="curve"/>
      <point x="434" y="102"/>
      <point x="418" y="100"/>
      <point x="403" y="100" type="curve" smooth="yes"/>
      <point x="334" y="100"/>
      <point x="270" y="143"/>
      <point x="285" y="215" type="curve" smooth="yes"/>
      <point x="414" y="858" type="line"/>
      <point x="590" y="858" type="line"/>
      <point x="590" y="952" type="line"/>
      <point x="432" y="952" type="line"/>
      <point x="473" y="1186" type="line"/>
      <point x="348" y="1186" type="line"/>
      <point x="248" y="981" type="line"/>
      <point x="94" y="913" type="line"/>
      <point x="94" y="846" type="line"/>
      <point x="223" y="858" type="line"/>
      <point x="98" y="236" type="line" smooth="yes"/>
      <point x="92" y="207"/>
      <point x="90" y="178"/>
      <point x="90" y="152" type="curve" smooth="yes"/>
      <point x="90" y="51"/>
      <point x="135" y="-25"/>
      <point x="283" y="-25" type="curve" smooth="yes"/>
      <point x="352" y="-25"/>
      <point x="444" y="2"/>
      <point x="514" y="27" type="curve"/>
      <point x="561" y="-4"/>
      <point x="629" y="-25"/>
      <point x="723" y="-25" type="curve" smooth="yes"/>
      <point x="975" y="-25"/>
      <point x="1112" y="129"/>
      <point x="1112" y="297" type="curve" smooth="yes"/>
      <point x="1112" y="397"/>
      <point x="1026" y="475"/>
      <point x="936" y="547" type="curve" smooth="yes"/>
      <point x="850" y="616"/>
      <point x="756" y="696"/>
      <point x="756" y="770" type="curve" smooth="yes"/>
      <point x="756" y="823"/>
      <point x="784" y="911"/>
      <point x="874" y="911" type="curve" smooth="yes"/>
      <point x="899" y="911"/>
      <point x="918" y="901"/>
      <point x="926" y="895" type="curve"/>
      <point x="1020" y="770" type="line"/>
      <point x="1069" y="774"/>
      <point x="1165" y="788"/>
    </contour>
  </outline>
</glyph>
<glyph name="LtnSmTeshDigraph" format="2">
  <advance width="1128"/>
  <unicode hex="02A7"/>
  <anchor x="367" y="-500" name="L"/>
  <anchor x="747" y="1580" name="U"/>
  <outline>
    <contour>
      <point x="1300" y="1403" type="curve" smooth="yes"/>
      <point x="1300" y="1479"/>
      <point x="1196" y="1509"/>
      <point x="1141" y="1509" type="curve" smooth="yes"/>
      <point x="899" y="1509"/>
      <point x="724" y="1327"/>
      <point x="705" y="1090" type="curve" smooth="yes"/>
      <point x="694" y="952" type="line"/>
      <point x="432" y="952" type="line"/>
      <point x="473" y="1186" type="line"/>
      <point x="348" y="1186" type="line"/>
      <point x="248" y="981" type="line"/>
      <point x="94" y="913" type="line"/>
      <point x="94" y="846" type="line"/>
      <point x="223" y="858" type="line"/>
      <point x="98" y="236" type="line" smooth="yes"/>
      <point x="92" y="207"/>
      <point x="90" y="178"/>
      <point x="90" y="152" type="curve" smooth="yes"/>
      <point x="90" y="51"/>
      <point x="135" y="-25"/>
      <point x="283" y="-25" type="curve" smooth="yes"/>
      <point x="401" y="-25"/>
      <point x="545" y="41"/>
      <point x="575" y="68" type="curve"/>
      <point x="575" y="150" type="line"/>
      <point x="535" y="125"/>
      <point x="481" y="100"/>
      <point x="403" y="100" type="curve" smooth="yes"/>
      <point x="341" y="100"/>
      <point x="283" y="135"/>
      <point x="283" y="195" type="curve" smooth="yes"/>
      <point x="283" y="201"/>
      <point x="284" y="208"/>
      <point x="285" y="215" type="curve" smooth="yes"/>
      <point x="414" y="858" type="line"/>
      <point x="688" y="858" type="line"/>
      <point x="623" y="-72" type="line" smooth="yes"/>
      <point x="614" y="-199"/>
      <point x="606" y="-303"/>
      <point x="477" y="-358" type="curve"/>
      <point x="319" y="-252" type="line"/>
      <point x="266" y="-268"/>
      <point x="217" y="-311"/>
      <point x="217" y="-367" type="curve" smooth="yes"/>
      <point x="217" y="-440"/>
      <point x="326" y="-469"/>
      <point x="381" y="-469" type="curve" smooth="yes"/>
      <point x="623" y="-469"/>
      <point x="798" y="-289"/>
      <point x="815" y="-51" type="curve" smooth="yes"/>
      <point x="899" y="1110" type="line" smooth="yes"/>
      <point x="908" y="1239"/>
      <point x="917" y="1339"/>
      <point x="1042" y="1395" type="curve"/>
      <point x="1200" y="1290" type="line"/>
      <point x="1253" y="1307"/>
      <point x="1300" y="1348"/>
    </contour>
  </outline>
</glyph>
<glyph name="LtnSmLZDigraph" format="2">
  <advance width="1191"/>
  <unicode hex="02AB"/>
  <anchor x="431" y="-100" name="L"/>
  <anchor x="817" y="1580" name="U"/>
  <outline>
    <contour>
      <point x="1202" y="958" type="line"/>
      <point x="1048" y="1038" type="line"/>
      <point x="1003" y="924" type="line"/>
      <point x="978" y="911"/>
      <point x="964" y="909"/>
      <point x="956" y="909" type="curve" smooth="yes"/>
      <point x="874" y="909"/>
      <point x="772" y="1012"/>
      <point x="649" y="1012" type="curve" smooth="yes"/>
      <point x="538" y="1012"/>
      <point x="454" y="949"/>
      <point x="406" y="871" type="curve"/>
      <point x="528" y="1509" type="line"/>
      <point x="449" y="1509" type="line"/>
      <point x="129" y="1448" type="line"/>
      <point x="129" y="1386" type="line"/>
      <point x="311" y="1368" type="line"/>
      <point x="86" y="197" type="line"/>
      <point x="82" y="170"/>
      <point x="80" y="145"/>
      <point x="80" y="125" type="curve" smooth="yes"/>
      <point x="80" y="37"/>
      <point x="129" y="-25"/>
      <point x="254" y="-25" type="curve" smooth="yes"/>
      <point x="340" y="-25"/>
      <point x="496" y="33"/>
      <point x="552" y="54" type="curve"/>
      <point x="633" y="31"/>
      <point x="716" y="-25"/>
      <point x="817" y="-25" type="curve" smooth="yes"/>
      <point x="950" y="-25"/>
      <point x="1114" y="98"/>
      <point x="1114" y="264" type="curve" smooth="yes"/>
      <point x="1114" y="324"/>
      <point x="1071" y="391"/>
      <point x="997" y="391" type="curve" smooth="yes"/>
      <point x="960" y="391"/>
      <point x="909" y="362"/>
      <point x="882" y="313" type="curve"/>
      <point x="995" y="188" type="line"/>
      <point x="972" y="160"/>
      <point x="944" y="121"/>
      <point x="886" y="121" type="curve" smooth="yes"/>
      <point x="831" y="121"/>
      <point x="735" y="170"/>
      <point x="679" y="190" type="curve"/>
      <point x="507" y="145" type="line"/>
    </contour>
    <contour>
      <point x="279" y="203" type="curve"/>
      <point x="368" y="673" type="line"/>
      <point x="383" y="634"/>
      <point x="417" y="598"/>
      <point x="473" y="598" type="curve" smooth="yes"/>
      <point x="530" y="598"/>
      <point x="575" y="649"/>
      <point x="585" y="666" type="curve"/>
      <point x="477" y="797" type="line"/>
      <point x="499" y="834"/>
      <point x="552" y="856"/>
      <point x="587" y="856" type="curve" smooth="yes"/>
      <point x="642" y="856"/>
      <point x="706" y="827"/>
      <point x="761" y="797" type="curve"/>
      <point x="942" y="836" type="line"/>
      <point x="319" y="107" type="line"/>
      <point x="289" y="128"/>
      <point x="271" y="166"/>
    </contour>
  </outline>
</glyph>
<glyph name="LtnBidentalPercussive" format="2">
  <advance width="1086"/>
  <unicode hex="02AD"/>
  <anchor x="431" y="-100" name="L"/>
  <anchor x="747" y="1540" name="U"/>
  <outline>
    <contour>
      <point x="1057" y="1005" type="line"/>
      <point x="1139" y="1410" type="line"/>
      <point x="325" y="1410" type="line"/>
      <point x="243" y="1005" type="line"/>
      <point x="316" y="1005" type="line"/>
      <point x="374" y="1292" type="line"/>
      <point x="1043" y="1292" type="line"/>
      <point x="985" y="1005" type="line"/>
    </contour>
    <contour>
      <point x="863" y="0" type="line"/>
      <point x="945" y="405" type="line"/>
      <point x="130" y="405" type="line"/>
      <point x="48" y="0" type="line"/>
      <point x="121" y="0" type="line"/>
      <point x="179" y="287" type="line"/>
      <point x="848" y="287" type="line"/>
      <point x="790" y="0" type="line"/>
    </contour>
  </outline>
</glyph>
<glyph name="LtnSmTurnedHFishhook" format="2">
  <advance width="1126"/>
  <unicode hex="02AE"/>
  <anchor x="312" y="-100" name="L"/>
  <anchor x="639" y="1100" name="U"/>
  <outline>
    <contour>
      <point x="1067" y="987" type="line"/>
      <point x="879" y="987" type="line"/>
      <point x="729" y="270" type="line"/>
      <point x="639" y="176"/>
      <point x="512" y="111"/>
      <point x="446" y="111" type="curve" smooth="yes"/>
      <point x="401" y="111"/>
      <point x="325" y="166"/>
      <point x="348" y="274" type="curve" smooth="yes"/>
      <point x="426" y="647" type="line" smooth="yes"/>
      <point x="471" y="862"/>
      <point x="395" y="1012"/>
      <point x="150" y="1012" type="curve" smooth="yes"/>
      <point x="33" y="1012"/>
      <point x="-49" y="954"/>
      <point x="-49" y="889" type="curve" smooth="yes"/>
      <point x="-49" y="805"/>
      <point x="8" y="780"/>
      <point x="20" y="776" type="curve"/>
      <point x="215" y="911" type="line"/>
      <point x="268" y="881"/>
      <point x="267" y="795"/>
      <point x="227" y="602" type="curve" smooth="yes"/>
      <point x="154" y="252" type="line" smooth="yes"/>
      <point x="116" y="68"/>
      <point x="184" y="-25"/>
      <point x="334" y="-25" type="curve" smooth="yes"/>
      <point x="471" y="-25"/>
      <point x="618" y="47"/>
      <point x="702" y="139" type="curve"/>
      <point x="575" y="-469" type="line"/>
      <point x="657" y="-469" type="line"/>
      <point x="977" y="-408" type="line"/>
      <point x="977" y="-346" type="line"/>
      <point x="795" y="-330" type="line"/>
    </contour>
  </outline>
</glyph>
<glyph name="ModSmH" format="2">
  <advance width="700"/>
  <unicode hex="02B0"/>
  <anchor x="393" y="725" name="L"/>
  <anchor x="572" y="1700" name="U"/>
  <outline>
    <contour>
      <point x="621" y="770" type="curve" smooth="yes"/>
      <point x="676" y="770"/>
      <point x="776" y="807"/>
      <point x="799" y="815" type="curve"/>
      <point x="797" y="858" type="line"/>
      <point x="766" y="850"/>
      <point x="737" y="834"/>
      <point x="713" y="834" type="curve" smooth="yes"/>
      <point x="696" y="834"/>
      <point x="647" y="848"/>
      <point x="655" y="895" type="curve"/>
      <point x="723" y="1227" type="line" smooth="yes"/>
      <point x="745" y="1335"/>
      <point x="700" y="1391"/>
      <point x="604" y="1391" type="curve" smooth="yes"/>
      <point x="514" y="1391"/>
      <point x="422" y="1348"/>
      <point x="367" y="1292" type="curve"/>
      <point x="453" y="1690" type="line"/>
      <point x="399" y="1690" type="line"/>
      <point x="193" y="1653" type="line"/>
      <point x="193" y="1616" type="line"/>
      <point x="309" y="1606" type="line"/>
      <point x="127" y="784" type="line"/>
      <point x="250" y="784" type="line"/>
      <point x="348" y="1214" type="line"/>
      <point x="406" y="1270"/>
      <point x="487" y="1311"/>
      <point x="530" y="1311" type="curve" smooth="yes"/>
      <point x="559" y="1311"/>
      <point x="604" y="1276"/>
      <point x="590" y="1212" type="curve" smooth="yes"/>
      <point x="512" y="850" type="line"/>
      <point x="496" y="782"/>
      <point x="588" y="770"/>
    </contour>
  </outline>
</glyph>
<glyph name="ModApos" format="2">
  <advance width="520"/>
  <unicode hex="02BC"/>
  <outline>
    <contour>
      <point x="588" y="1296" type="curve" smooth="yes"/>
      <point x="588" y="1415"/>
      <point x="504" y="1446"/>
      <point x="438" y="1446" type="curve" smooth="yes"/>
      <point x="346" y="1446"/>
      <point x="279" y="1362"/>
      <point x="279" y="1294" type="curve" smooth="yes"/>
      <point x="279" y="1268"/>
      <point x="291" y="1247"/>
      <point x="297" y="1237" type="curve"/>
      <point x="424" y="1237" type="line"/>
      <point x="424" y="1098"/>
      <point x="283" y="969"/>
      <point x="190" y="881" type="curve"/>
      <point x="313" y="881" type="line"/>
      <point x="401" y="948"/>
      <point x="588" y="1122"/>
    </contour>
  </outline>
</glyph>
<glyph name="ModGlottalStop" format="2">
  <advance width="580"/>
  <unicode hex="02C0"/>
  <anchor x="307" y="725" name="L"/>
  <anchor x="486" y="1700" name="U"/>
  <outline>
    <contour>
      <point x="150" y="784" type="line"/>
      <point x="475" y="784" type="line"/>
      <point x="475" y="831" type="line"/>
      <point x="406" y="838" type="line" smooth="yes"/>
      <point x="393" y="839"/>
      <point x="379" y="852"/>
      <point x="381" y="862" type="curve" smooth="yes"/>
      <point x="444" y="1157" type="line"/>
      <point x="573" y="1208"/>
      <point x="707" y="1303"/>
      <point x="707" y="1446" type="curve" smooth="yes"/>
      <point x="707" y="1554"/>
      <point x="614" y="1628"/>
      <point x="471" y="1628" type="curve" smooth="yes"/>
      <point x="385" y="1628"/>
      <point x="203" y="1581"/>
      <point x="203" y="1477" type="curve" smooth="yes"/>
      <point x="203" y="1448"/>
      <point x="217" y="1425"/>
      <point x="260" y="1425" type="curve" smooth="yes"/>
      <point x="285" y="1425"/>
      <point x="313" y="1434"/>
      <point x="336" y="1444" type="curve"/>
      <point x="381" y="1550" type="line"/>
      <point x="408" y="1567"/>
      <point x="436" y="1573"/>
      <point x="463" y="1573" type="curve" smooth="yes"/>
      <point x="526" y="1573"/>
      <point x="571" y="1522"/>
      <point x="571" y="1436" type="curve" smooth="yes"/>
      <point x="571" y="1311"/>
      <point x="442" y="1204"/>
      <point x="324" y="1169" type="curve"/>
      <point x="258" y="862" type="line" smooth="yes"/>
      <point x="256" y="852"/>
      <point x="236" y="839"/>
      <point x="223" y="838" type="curve" smooth="yes"/>
      <point x="150" y="831" type="line"/>
    </contour>
  </outline>
</glyph>
